<svg width="126" height="50" viewBox="0 0 126 50" fill="none" xmlns="http://www.w3.org/2000/svg">
<g id="IQ Lab logo">
<g id="Group">
<path id="Vector" d="M33.7708 15.04H27.5482V34.9626H33.7708V15.04Z" fill="white"/>
<path id="Vector_2" fill-rule="evenodd" clip-rule="evenodd" d="M0 0.938171V49.0618H48.0401V0.938171H0ZM10.9799 14.0149H5.93206V8.96089H10.9799V14.0149ZM18.0665 35.0335H11.8439V15.1108H18.0665V35.0335ZM40.0313 35.9851H34.981V41.0416H21.2902V8.96089H40.0313V35.9851Z" fill="white"/>
</g>
<g id="Group_2">
<path id="Vector_3" d="M56.0438 12.3902V37.7137H60.8996V12.3902H56.0438Z" fill="white"/>
<path id="Vector_4" d="M75.9192 34.9727C76.4245 33.9149 76.6822 32.5685 76.6822 30.9108V19.1652C76.6822 14.1086 74.0446 12.0106 70.1261 12.0106C66.2076 12.0106 63.5523 14.144 63.5523 19.0336V30.9639C63.5523 35.8838 65.7074 38.0932 69.8987 38.0932C70.9927 38.0932 71.9603 37.9616 72.7965 37.6858L75.9798 40.0875L78.4962 36.967L75.9192 34.9727ZM68.4359 33.9402V16.1586H71.7961V33.9402H68.4359Z" fill="white"/>
<path id="Vector_5" d="M89.0441 33.4518V12.3902H84.1782V37.7137H94.7235L95.1555 33.4518H89.0441Z" fill="white"/>
<path id="Vector_6" d="M107.34 12.3902H100.092L96.5172 37.7137H101.474L102.096 31.6852H105.246L105.943 37.7137H111.001L107.34 12.3902ZM102.52 27.3904C102.856 24.2598 103.455 18.5629 103.543 16.7964H103.733C103.97 19.2209 104.473 24.151 104.834 27.3904H102.52Z" fill="white"/>
<path id="Vector_7" d="M122.239 24.1383C123.431 23.6828 124.707 22.6046 124.707 19.1728V18.1681C124.707 14.2529 122.63 12.3902 118.336 12.3902H112.361V37.7137H118.659C123.277 37.7137 125.122 35.5296 125.122 31.1057V29.0911C125.122 25.5606 123.406 24.6217 122.239 24.1383ZM117.077 16.227H117.989C119.531 16.227 120.051 16.9634 120.051 18.5857V19.8941C120.051 21.8302 119.485 22.3591 117.845 22.3591H117.077V16.227ZM120.195 31.2322C120.195 33.1076 119.786 33.9124 118.05 33.9124H117.077V26.1073H117.737C119.733 26.1073 120.195 26.945 120.195 28.9089V31.2322Z" fill="white"/>
</g>
</g>
</svg>
