<svg width="126" height="50" viewBox="0 0 126 50" fill="none" xmlns="http://www.w3.org/2000/svg">
<path d="M33.7705 15.0402H27.5479V34.9628H33.7705V15.0402Z" fill="#003DA5"/>
<path fill-rule="evenodd" clip-rule="evenodd" d="M0 0.93811V49.0618H48.0401V0.93811H0ZM10.9799 14.0149H5.93206V8.96083H10.9799V14.0149ZM18.0665 35.0334H11.8439V15.1107H18.0665V35.0334ZM40.0313 35.985H34.981V41.0416H21.2902V8.96083H40.0313V35.985Z" fill="#003DA5"/>
<path d="M56.0439 12.3902V37.7136H60.8997V12.3902H56.0439Z" fill="#003DA5"/>
<path d="M75.9196 34.9727C76.4249 33.9148 76.6826 32.5684 76.6826 30.9107V19.1651C76.6826 14.1085 74.045 12.0105 70.1265 12.0105C66.208 12.0105 63.5527 14.144 63.5527 19.0335V30.9638C63.5527 35.8838 65.7078 38.0932 69.8991 38.0932C70.9931 38.0932 71.9607 37.9616 72.7969 37.6857L75.9802 40.0875L78.4966 36.967L75.9196 34.9727ZM68.4363 33.9401V16.1585H71.7965V33.9401H68.4363Z" fill="#003DA5"/>
<path d="M89.0446 33.4514V12.3899H84.1787V37.7133H94.724L95.1561 33.4514H89.0446Z" fill="#003DA5"/>
<path d="M107.341 12.3902H100.092L96.5176 37.7136H101.474L102.096 31.6852H105.246L105.944 37.7136H111.002L107.341 12.3902ZM102.52 27.3904C102.856 24.2597 103.455 18.5628 103.544 16.7963H103.733C103.971 19.2209 104.473 24.1509 104.835 27.3904H102.52Z" fill="#003DA5"/>
<path d="M122.239 24.138C123.431 23.6824 124.707 22.6043 124.707 19.1725V18.1677C124.707 14.2525 122.63 12.3899 118.335 12.3899H112.36V37.7133H118.659C123.277 37.7133 125.121 35.5292 125.121 31.1053V29.0908C125.121 25.5603 123.406 24.6213 122.239 24.138ZM117.077 16.2266H117.989C119.53 16.2266 120.051 16.9631 120.051 18.5853V19.8938C120.051 21.8298 119.485 22.3588 117.845 22.3588H117.077V16.2266ZM120.195 31.2319C120.195 33.1072 119.786 33.912 118.05 33.912H117.077V26.1069H117.737C119.732 26.1069 120.195 26.9446 120.195 28.9086V31.2319Z" fill="#003DA5"/>
</svg>
