<svg width="597" height="274" viewBox="0 0 597 274" fill="none" xmlns="http://www.w3.org/2000/svg">
<rect y="0.39209" width="3.94228" height="3.94228" fill="#003DA5"/>
<rect x="22.446" y="0.39209" width="3.94228" height="3.94228" fill="#003DA5"/>
<rect x="44.8922" y="0.39209" width="3.94228" height="3.94228" fill="#003DA5"/>
<rect x="67.3384" y="0.39209" width="3.94228" height="3.94228" fill="#003DA5"/>
<rect x="89.7844" y="0.39209" width="3.94228" height="3.94228" fill="#003DA5"/>
<rect x="112.23" y="0.39209" width="3.94228" height="3.94228" fill="#003DA5"/>
<rect x="134.677" y="0.39209" width="3.94228" height="3.94228" fill="#003DA5"/>
<rect x="157.123" y="0.39209" width="3.94228" height="3.94228" fill="#003DA5"/>
<rect x="179.569" y="0.39209" width="3.94228" height="3.94228" fill="#003DA5"/>
<rect x="202.015" y="0.39209" width="3.94228" height="3.94228" fill="#003DA5"/>
<rect x="224.461" y="0.39209" width="3.94228" height="3.94228" fill="#003DA5"/>
<rect x="246.907" y="0.39209" width="3.94228" height="3.94228" fill="#003DA5"/>
<rect x="269.353" y="0.39209" width="3.94228" height="3.94228" fill="#003DA5"/>
<rect x="291.799" y="0.39209" width="3.94228" height="3.94228" fill="#003DA5"/>
<rect x="314.245" y="0.39209" width="3.94228" height="3.94228" fill="#003DA5"/>
<rect x="335.635" y="0.39209" width="3.94228" height="3.94228" fill="#003DA5"/>
<rect x="357.025" y="0.39209" width="3.94228" height="3.94228" fill="#003DA5"/>
<rect x="378.416" y="0.39209" width="3.94228" height="3.94228" fill="#003DA5"/>
<rect x="399.805" y="0.39209" width="3.94228" height="3.94228" fill="#003DA5"/>
<rect x="421.195" y="0.39209" width="3.94228" height="3.94228" fill="#003DA5"/>
<rect x="442.585" y="0.39209" width="3.94228" height="3.94228" fill="#003DA5"/>
<rect x="463.976" y="0.39209" width="3.94228" height="3.94228" fill="#003DA5"/>
<rect x="485.365" y="0.39209" width="3.94228" height="3.94228" fill="#003DA5"/>
<rect x="506.755" y="0.39209" width="3.94228" height="3.94228" fill="#003DA5"/>
<rect x="528.146" y="0.39209" width="3.94228" height="3.94228" fill="#003DA5"/>
<rect x="549.536" y="0.39209" width="3.94228" height="3.94228" fill="#003DA5"/>
<rect x="570.926" y="0.39209" width="3.94228" height="3.94228" fill="#003DA5"/>
<rect x="592.315" y="0.39209" width="3.94228" height="3.94228" fill="#003DA5"/>
<rect y="22.8381" width="3.94228" height="3.94228" fill="#003DA5"/>
<rect x="22.446" y="22.8381" width="3.94228" height="3.94228" fill="#003DA5"/>
<rect x="44.8922" y="22.8381" width="3.94228" height="3.94228" fill="#003DA5"/>
<rect x="67.3384" y="22.8381" width="3.94228" height="3.94228" fill="#003DA5"/>
<rect x="89.7844" y="22.8381" width="3.94228" height="3.94228" fill="#003DA5"/>
<rect x="112.23" y="22.8381" width="3.94228" height="3.94228" fill="#003DA5"/>
<rect x="134.677" y="22.8381" width="3.94228" height="3.94228" fill="#003DA5"/>
<rect x="157.123" y="22.8381" width="3.94228" height="3.94228" fill="#003DA5"/>
<rect x="179.569" y="22.8381" width="3.94228" height="3.94228" fill="#003DA5"/>
<rect x="202.015" y="22.8381" width="3.94228" height="3.94228" fill="#003DA5"/>
<rect x="224.461" y="22.8381" width="3.94228" height="3.94228" fill="#003DA5"/>
<rect x="246.907" y="22.8381" width="3.94228" height="3.94228" fill="#003DA5"/>
<rect x="269.353" y="22.8381" width="3.94228" height="3.94228" fill="#003DA5"/>
<rect x="314.245" y="22.8381" width="3.94228" height="3.94228" fill="#003DA5"/>
<rect x="291.799" y="22.8381" width="3.94228" height="3.94228" fill="#003DA5"/>
<rect x="335.635" y="22.8381" width="3.94228" height="3.94228" fill="#003DA5"/>
<rect x="357.025" y="22.8381" width="3.94228" height="3.94228" fill="#003DA5"/>
<rect x="378.416" y="22.8381" width="3.94228" height="3.94228" fill="#003DA5"/>
<rect x="399.805" y="22.8381" width="3.94228" height="3.94228" fill="#003DA5"/>
<rect x="421.195" y="22.8381" width="3.94228" height="3.94228" fill="#003DA5"/>
<rect x="442.585" y="22.8381" width="3.94228" height="3.94228" fill="#003DA5"/>
<rect x="463.976" y="22.8381" width="3.94228" height="3.94228" fill="#003DA5"/>
<rect x="485.365" y="22.8381" width="3.94228" height="3.94228" fill="#003DA5"/>
<rect x="506.755" y="22.8381" width="3.94228" height="3.94228" fill="#003DA5"/>
<rect x="528.146" y="22.8381" width="3.94228" height="3.94228" fill="#003DA5"/>
<rect x="549.536" y="22.8381" width="3.94228" height="3.94228" fill="#003DA5"/>
<rect x="570.926" y="22.8381" width="3.94228" height="3.94228" fill="#003DA5"/>
<rect x="592.315" y="22.8381" width="3.94228" height="3.94228" fill="#003DA5"/>
<rect y="45.2843" width="3.94228" height="3.94228" fill="#003DA5"/>
<rect x="22.446" y="45.2843" width="3.94228" height="3.94228" fill="#003DA5"/>
<rect x="44.8922" y="45.2843" width="3.94228" height="3.94228" fill="#003DA5"/>
<rect x="67.3384" y="45.2843" width="3.94228" height="3.94228" fill="#003DA5"/>
<rect x="89.7844" y="45.2843" width="3.94228" height="3.94228" fill="#003DA5"/>
<rect x="112.23" y="45.2843" width="3.94228" height="3.94228" fill="#003DA5"/>
<rect x="134.677" y="45.2843" width="3.94228" height="3.94228" fill="#003DA5"/>
<rect x="157.123" y="45.2843" width="3.94228" height="3.94228" fill="#003DA5"/>
<rect x="179.569" y="45.2843" width="3.94228" height="3.94228" fill="#003DA5"/>
<rect x="202.015" y="45.2843" width="3.94228" height="3.94228" fill="#003DA5"/>
<rect x="224.461" y="45.2843" width="3.94228" height="3.94228" fill="#003DA5"/>
<rect x="246.907" y="45.2843" width="3.94228" height="3.94228" fill="#003DA5"/>
<rect x="314.245" y="45.2843" width="3.94228" height="3.94228" fill="#003DA5"/>
<rect x="269.353" y="45.2843" width="3.94228" height="3.94228" fill="#003DA5"/>
<rect x="291.799" y="45.2843" width="3.94228" height="3.94228" fill="#003DA5"/>
<rect x="335.635" y="45.2843" width="3.94228" height="3.94228" fill="#003DA5"/>
<rect x="357.025" y="45.2843" width="3.94228" height="3.94228" fill="#003DA5"/>
<rect x="378.416" y="45.2843" width="3.94228" height="3.94228" fill="#003DA5"/>
<rect x="399.805" y="45.2843" width="3.94228" height="3.94228" fill="#003DA5"/>
<rect x="421.195" y="45.2843" width="3.94228" height="3.94228" fill="#003DA5"/>
<rect x="442.585" y="45.2843" width="3.94228" height="3.94228" fill="#003DA5"/>
<rect x="463.976" y="45.2843" width="3.94228" height="3.94228" fill="#003DA5"/>
<rect x="485.365" y="45.2843" width="3.94228" height="3.94228" fill="#003DA5"/>
<rect x="549.536" y="45.2843" width="3.94228" height="3.94228" fill="#003DA5"/>
<rect x="570.926" y="45.2843" width="3.94228" height="3.94228" fill="#003DA5"/>
<rect x="592.315" y="45.2843" width="3.94228" height="3.94228" fill="#003DA5"/>
<rect y="67.7303" width="3.94228" height="3.94228" fill="#003DA5"/>
<rect x="22.446" y="67.7303" width="3.94228" height="3.94228" fill="#003DA5"/>
<rect x="44.8922" y="67.7303" width="3.94228" height="3.94228" fill="#003DA5"/>
<rect x="67.3384" y="67.7303" width="3.94228" height="3.94228" fill="#003DA5"/>
<rect x="89.7844" y="67.7303" width="3.94228" height="3.94228" fill="#003DA5"/>
<rect x="112.23" y="67.7303" width="3.94228" height="3.94228" fill="#003DA5"/>
<rect x="134.677" y="67.7303" width="3.94228" height="3.94228" fill="#003DA5"/>
<rect x="157.123" y="67.7303" width="3.94228" height="3.94228" fill="#003DA5"/>
<rect x="179.569" y="67.7303" width="3.94228" height="3.94228" fill="#003DA5"/>
<rect x="202.015" y="67.7303" width="3.94228" height="3.94228" fill="#003DA5"/>
<rect x="224.461" y="67.7303" width="3.94228" height="3.94228" fill="#003DA5"/>
<rect x="314.245" y="67.7303" width="3.94228" height="3.94228" fill="#003DA5"/>
<rect x="246.907" y="67.7303" width="3.94228" height="3.94228" fill="#003DA5"/>
<rect x="269.353" y="67.7303" width="3.94228" height="3.94228" fill="#003DA5"/>
<rect x="291.799" y="67.7303" width="3.94228" height="3.94228" fill="#003DA5"/>
<rect x="335.635" y="67.7303" width="3.94228" height="3.94228" fill="#003DA5"/>
<rect x="357.025" y="67.7303" width="3.94228" height="3.94228" fill="#003DA5"/>
<rect x="378.416" y="67.7303" width="3.94228" height="3.94228" fill="#003DA5"/>
<rect x="399.805" y="67.7303" width="3.94228" height="3.94228" fill="#003DA5"/>
<rect x="421.195" y="67.7303" width="3.94228" height="3.94228" fill="#003DA5"/>
<rect x="442.585" y="67.7303" width="3.94228" height="3.94228" fill="#003DA5"/>
<rect x="463.976" y="67.7303" width="3.94228" height="3.94228" fill="#003DA5"/>
<rect x="485.365" y="67.7303" width="3.94228" height="3.94228" fill="#003DA5"/>
<rect x="549.536" y="67.7303" width="3.94228" height="3.94228" fill="#003DA5"/>
<rect x="570.926" y="67.7303" width="3.94228" height="3.94228" fill="#003DA5"/>
<rect x="592.315" y="67.7303" width="3.94228" height="3.94228" fill="#003DA5"/>
<rect y="90.1765" width="3.94228" height="3.94228" fill="#003DA5"/>
<rect x="22.446" y="90.1765" width="3.94228" height="3.94228" fill="#003DA5"/>
<rect x="44.8922" y="90.1765" width="3.94228" height="3.94228" fill="#003DA5"/>
<rect x="67.3384" y="90.1765" width="3.94228" height="3.94228" fill="#003DA5"/>
<rect x="89.7844" y="90.1765" width="3.94228" height="3.94228" fill="#003DA5"/>
<rect x="112.23" y="90.1765" width="3.94228" height="3.94228" fill="#003DA5"/>
<rect x="134.677" y="90.1765" width="3.94228" height="3.94228" fill="#003DA5"/>
<rect x="157.123" y="90.1765" width="3.94228" height="3.94228" fill="#003DA5"/>
<rect x="179.569" y="90.1765" width="3.94228" height="3.94228" fill="#003DA5"/>
<rect x="202.015" y="90.1765" width="3.94228" height="3.94228" fill="#003DA5"/>
<rect x="314.245" y="90.1765" width="3.94228" height="3.94228" fill="#003DA5"/>
<rect x="224.461" y="90.1765" width="3.94228" height="3.94228" fill="#003DA5"/>
<rect x="246.907" y="90.1765" width="3.94228" height="3.94228" fill="#003DA5"/>
<rect x="269.353" y="90.1765" width="3.94228" height="3.94228" fill="#003DA5"/>
<rect x="291.799" y="90.1765" width="3.94228" height="3.94228" fill="#003DA5"/>
<rect x="335.635" y="90.1765" width="3.94228" height="3.94228" fill="#003DA5"/>
<rect x="357.025" y="90.1765" width="3.94228" height="3.94228" fill="#003DA5"/>
<rect x="378.416" y="90.1765" width="3.94228" height="3.94228" fill="#003DA5"/>
<rect x="399.805" y="90.1765" width="3.94228" height="3.94228" fill="#003DA5"/>
<rect x="421.195" y="90.1765" width="3.94228" height="3.94228" fill="#003DA5"/>
<rect x="442.585" y="90.1765" width="3.94228" height="3.94228" fill="#003DA5"/>
<rect x="463.976" y="90.1765" width="3.94228" height="3.94228" fill="#003DA5"/>
<rect x="485.365" y="90.1765" width="3.94228" height="3.94228" fill="#003DA5"/>
<rect x="506.755" y="90.1765" width="3.94228" height="3.94228" fill="#003DA5"/>
<rect x="528.146" y="90.1765" width="3.94228" height="3.94228" fill="#003DA5"/>
<rect x="549.536" y="90.1765" width="3.94228" height="3.94228" fill="#003DA5"/>
<rect x="570.926" y="90.1765" width="3.94228" height="3.94228" fill="#003DA5"/>
<rect x="592.315" y="90.1765" width="3.94228" height="3.94228" fill="#003DA5"/>
<rect y="112.623" width="3.94228" height="3.94228" fill="#003DA5"/>
<rect x="22.446" y="112.623" width="3.94228" height="3.94228" fill="#003DA5"/>
<rect x="44.8922" y="112.623" width="3.94228" height="3.94228" fill="#003DA5"/>
<rect x="67.3384" y="112.623" width="3.94228" height="3.94228" fill="#003DA5"/>
<rect x="89.7844" y="112.623" width="3.94228" height="3.94228" fill="#003DA5"/>
<rect x="112.23" y="112.623" width="3.94228" height="3.94228" fill="#003DA5"/>
<rect x="134.677" y="112.623" width="3.94228" height="3.94228" fill="#003DA5"/>
<rect x="157.123" y="112.623" width="3.94228" height="3.94228" fill="#003DA5"/>
<rect x="179.569" y="112.623" width="3.94228" height="3.94228" fill="#003DA5"/>
<rect x="314.245" y="112.623" width="3.94228" height="3.94228" fill="#003DA5"/>
<rect x="202.015" y="112.623" width="3.94228" height="3.94228" fill="#003DA5"/>
<rect x="224.461" y="112.623" width="3.94228" height="3.94228" fill="#003DA5"/>
<rect x="246.907" y="112.623" width="3.94228" height="3.94228" fill="#003DA5"/>
<rect x="269.353" y="112.623" width="3.94228" height="3.94228" fill="#003DA5"/>
<rect x="291.799" y="112.623" width="3.94228" height="3.94228" fill="#003DA5"/>
<rect x="335.635" y="112.623" width="3.94228" height="3.94228" fill="#003DA5"/>
<rect x="357.025" y="112.623" width="3.94228" height="3.94228" fill="#003DA5"/>
<rect x="378.416" y="112.623" width="3.94228" height="3.94228" fill="#003DA5"/>
<rect x="399.805" y="112.623" width="3.94228" height="3.94228" fill="#003DA5"/>
<rect x="421.195" y="112.623" width="3.94228" height="3.94228" fill="#003DA5"/>
<rect x="442.585" y="112.623" width="3.94228" height="3.94228" fill="#003DA5"/>
<rect x="463.976" y="112.623" width="3.94228" height="3.94228" fill="#003DA5"/>
<rect x="485.365" y="112.623" width="3.94228" height="3.94228" fill="#003DA5"/>
<rect x="506.755" y="112.623" width="3.94228" height="3.94228" fill="#003DA5"/>
<rect x="528.146" y="112.623" width="3.94228" height="3.94228" fill="#003DA5"/>
<rect x="549.536" y="112.623" width="3.94228" height="3.94228" fill="#003DA5"/>
<rect x="570.926" y="112.623" width="3.94228" height="3.94228" fill="#003DA5"/>
<rect x="592.315" y="112.623" width="3.94228" height="3.94228" fill="#003DA5"/>
<rect y="135.069" width="3.94228" height="3.94228" fill="#003DA5"/>
<rect x="22.446" y="135.069" width="3.94228" height="3.94228" fill="#003DA5"/>
<rect x="44.8922" y="135.069" width="3.94228" height="3.94228" fill="#003DA5"/>
<rect x="67.3384" y="135.069" width="3.94228" height="3.94228" fill="#003DA5"/>
<rect x="89.7844" y="135.069" width="3.94228" height="3.94228" fill="#003DA5"/>
<rect x="112.23" y="135.069" width="3.94228" height="3.94228" fill="#003DA5"/>
<rect x="134.677" y="135.069" width="3.94228" height="3.94228" fill="#003DA5"/>
<rect x="157.123" y="135.069" width="3.94228" height="3.94228" fill="#003DA5"/>
<rect x="314.245" y="135.069" width="3.94228" height="3.94228" fill="#003DA5"/>
<rect x="179.569" y="135.069" width="3.94228" height="3.94228" fill="#003DA5"/>
<rect x="202.015" y="135.069" width="3.94228" height="3.94228" fill="#003DA5"/>
<rect x="224.461" y="135.069" width="3.94228" height="3.94228" fill="#003DA5"/>
<rect x="246.907" y="135.069" width="3.94228" height="3.94228" fill="#003DA5"/>
<rect x="269.353" y="135.069" width="3.94228" height="3.94228" fill="#003DA5"/>
<rect x="291.799" y="135.069" width="3.94228" height="3.94228" fill="#003DA5"/>
<rect x="335.635" y="135.069" width="3.94228" height="3.94228" fill="#003DA5"/>
<rect x="357.025" y="135.069" width="3.94228" height="3.94228" fill="#003DA5"/>
<rect x="378.416" y="135.069" width="3.94228" height="3.94228" fill="#003DA5"/>
<rect x="399.805" y="135.069" width="3.94228" height="3.94228" fill="#003DA5"/>
<rect x="421.195" y="135.069" width="3.94228" height="3.94228" fill="#003DA5"/>
<rect x="442.585" y="135.069" width="3.94228" height="3.94228" fill="#003DA5"/>
<rect x="463.976" y="135.069" width="3.94228" height="3.94228" fill="#003DA5"/>
<rect x="485.365" y="135.069" width="3.94228" height="3.94228" fill="#003DA5"/>
<rect x="506.755" y="135.069" width="3.94228" height="3.94228" fill="#003DA5"/>
<rect x="528.146" y="135.069" width="3.94228" height="3.94228" fill="#003DA5"/>
<rect x="549.536" y="135.069" width="3.94228" height="3.94228" fill="#003DA5"/>
<rect x="570.926" y="135.069" width="3.94228" height="3.94228" fill="#003DA5"/>
<rect x="592.315" y="135.069" width="3.94228" height="3.94228" fill="#003DA5"/>
<rect y="157.515" width="3.94228" height="3.94228" fill="#003DA5"/>
<rect x="22.446" y="157.515" width="3.94228" height="3.94228" fill="#003DA5"/>
<rect x="44.8922" y="157.515" width="3.94228" height="3.94228" fill="#003DA5"/>
<rect x="67.3384" y="157.515" width="3.94228" height="3.94228" fill="#003DA5"/>
<rect x="89.7844" y="157.515" width="3.94228" height="3.94228" fill="#003DA5"/>
<rect x="112.23" y="157.515" width="3.94228" height="3.94228" fill="#003DA5"/>
<rect x="134.677" y="157.515" width="3.94228" height="3.94228" fill="#003DA5"/>
<rect x="314.245" y="157.515" width="3.94228" height="3.94228" fill="#003DA5"/>
<rect x="157.123" y="157.515" width="3.94228" height="3.94228" fill="#003DA5"/>
<rect x="179.569" y="157.515" width="3.94228" height="3.94228" fill="#003DA5"/>
<rect x="202.015" y="157.515" width="3.94228" height="3.94228" fill="#003DA5"/>
<rect x="224.461" y="157.515" width="3.94228" height="3.94228" fill="#003DA5"/>
<rect x="246.907" y="157.515" width="3.94228" height="3.94228" fill="#003DA5"/>
<rect x="269.353" y="157.515" width="3.94228" height="3.94228" fill="#003DA5"/>
<rect x="291.799" y="157.515" width="3.94228" height="3.94228" fill="#003DA5"/>
<rect x="335.635" y="157.515" width="3.94228" height="3.94228" fill="#003DA5"/>
<rect x="357.025" y="157.515" width="3.94228" height="3.94228" fill="#003DA5"/>
<rect x="378.416" y="157.515" width="3.94228" height="3.94228" fill="#003DA5"/>
<rect x="399.805" y="157.515" width="3.94228" height="3.94228" fill="#003DA5"/>
<rect x="421.195" y="157.515" width="3.94228" height="3.94228" fill="#003DA5"/>
<rect x="442.585" y="157.515" width="3.94228" height="3.94228" fill="#003DA5"/>
<rect x="463.976" y="157.515" width="3.94228" height="3.94228" fill="#003DA5"/>
<rect x="485.365" y="157.515" width="3.94228" height="3.94228" fill="#003DA5"/>
<rect x="506.755" y="157.515" width="3.94228" height="3.94228" fill="#003DA5"/>
<rect x="528.146" y="157.515" width="3.94228" height="3.94228" fill="#003DA5"/>
<rect x="549.536" y="157.515" width="3.94228" height="3.94228" fill="#003DA5"/>
<rect x="570.926" y="157.515" width="3.94228" height="3.94228" fill="#003DA5"/>
<rect x="592.315" y="157.515" width="3.94228" height="3.94228" fill="#003DA5"/>
<rect y="179.961" width="3.94228" height="3.94228" fill="#003DA5"/>
<rect x="22.446" y="179.961" width="3.94228" height="3.94228" fill="#003DA5"/>
<rect x="44.8922" y="179.961" width="3.94228" height="3.94228" fill="#003DA5"/>
<rect x="67.3384" y="179.961" width="3.94228" height="3.94228" fill="#003DA5"/>
<rect x="89.7844" y="179.961" width="3.94228" height="3.94228" fill="#003DA5"/>
<rect x="112.23" y="179.961" width="3.94228" height="3.94228" fill="#003DA5"/>
<rect x="314.245" y="179.961" width="3.94228" height="3.94228" fill="#003DA5"/>
<rect x="134.677" y="179.961" width="3.94228" height="3.94228" fill="#003DA5"/>
<rect x="157.123" y="179.961" width="3.94228" height="3.94228" fill="#003DA5"/>
<rect x="179.569" y="179.961" width="3.94228" height="3.94228" fill="#003DA5"/>
<rect x="202.015" y="179.961" width="3.94228" height="3.94228" fill="#003DA5"/>
<rect x="224.461" y="179.961" width="3.94228" height="3.94228" fill="#003DA5"/>
<rect x="246.907" y="179.961" width="3.94228" height="3.94228" fill="#003DA5"/>
<rect x="269.353" y="179.961" width="3.94228" height="3.94228" fill="#003DA5"/>
<rect x="291.799" y="179.961" width="3.94228" height="3.94228" fill="#003DA5"/>
<rect x="335.635" y="179.961" width="3.94228" height="3.94228" fill="#003DA5"/>
<rect x="357.025" y="179.961" width="3.94228" height="3.94228" fill="#003DA5"/>
<rect x="378.416" y="179.961" width="3.94228" height="3.94228" fill="#003DA5"/>
<rect x="399.805" y="179.961" width="3.94228" height="3.94228" fill="#003DA5"/>
<rect x="421.195" y="179.961" width="3.94228" height="3.94228" fill="#003DA5"/>
<rect x="442.585" y="179.961" width="3.94228" height="3.94228" fill="#003DA5"/>
<rect x="463.976" y="179.961" width="3.94228" height="3.94228" fill="#003DA5"/>
<rect x="485.365" y="179.961" width="3.94228" height="3.94228" fill="#003DA5"/>
<rect x="506.755" y="179.961" width="3.94228" height="3.94228" fill="#003DA5"/>
<rect x="528.146" y="179.961" width="3.94228" height="3.94228" fill="#003DA5"/>
<rect x="549.536" y="179.961" width="3.94228" height="3.94228" fill="#003DA5"/>
<rect x="570.926" y="179.961" width="3.94228" height="3.94228" fill="#003DA5"/>
<rect x="592.315" y="179.961" width="3.94228" height="3.94228" fill="#003DA5"/>
<rect y="202.407" width="3.94228" height="3.94228" fill="#003DA5"/>
<rect x="22.446" y="202.407" width="3.94228" height="3.94228" fill="#003DA5"/>
<rect x="44.8922" y="202.407" width="3.94228" height="3.94228" fill="#003DA5"/>
<rect x="67.3384" y="202.407" width="3.94228" height="3.94228" fill="#003DA5"/>
<rect x="89.7844" y="202.407" width="3.94228" height="3.94228" fill="#003DA5"/>
<rect x="314.245" y="202.407" width="3.94228" height="3.94228" fill="#003DA5"/>
<rect x="112.23" y="202.407" width="3.94228" height="3.94228" fill="#003DA5"/>
<rect x="134.677" y="202.407" width="3.94228" height="3.94228" fill="#003DA5"/>
<rect x="202.015" y="202.407" width="3.94228" height="3.94228" fill="#003DA5"/>
<rect x="224.461" y="202.407" width="3.94228" height="3.94228" fill="#003DA5"/>
<rect x="246.907" y="202.407" width="3.94228" height="3.94228" fill="#003DA5"/>
<rect x="269.353" y="202.407" width="3.94228" height="3.94228" fill="#003DA5"/>
<rect x="291.799" y="202.407" width="3.94228" height="3.94228" fill="#003DA5"/>
<rect x="335.635" y="202.407" width="3.94228" height="3.94228" fill="#003DA5"/>
<rect x="357.025" y="202.407" width="3.94228" height="3.94228" fill="#003DA5"/>
<rect x="378.416" y="202.407" width="3.94228" height="3.94228" fill="#003DA5"/>
<rect x="399.805" y="202.407" width="3.94228" height="3.94228" fill="#003DA5"/>
<rect x="421.195" y="202.407" width="3.94228" height="3.94228" fill="#003DA5"/>
<rect x="442.585" y="202.407" width="3.94228" height="3.94228" fill="#003DA5"/>
<rect x="463.976" y="202.407" width="3.94228" height="3.94228" fill="#003DA5"/>
<rect x="485.365" y="202.407" width="3.94228" height="3.94228" fill="#003DA5"/>
<rect x="506.755" y="202.407" width="3.94228" height="3.94228" fill="#003DA5"/>
<rect x="528.146" y="202.407" width="3.94228" height="3.94228" fill="#003DA5"/>
<rect x="549.536" y="202.407" width="3.94228" height="3.94228" fill="#003DA5"/>
<rect x="570.926" y="202.407" width="3.94228" height="3.94228" fill="#003DA5"/>
<rect x="592.315" y="202.407" width="3.94228" height="3.94228" fill="#003DA5"/>
<rect y="224.853" width="3.94228" height="3.94228" fill="#003DA5"/>
<rect x="22.446" y="224.853" width="3.94228" height="3.94228" fill="#003DA5"/>
<rect x="44.8922" y="224.853" width="3.94228" height="3.94228" fill="#003DA5"/>
<rect x="67.3384" y="224.853" width="3.94228" height="3.94228" fill="#003DA5"/>
<rect x="314.245" y="224.853" width="3.94228" height="3.94228" fill="#003DA5"/>
<rect x="89.7844" y="224.853" width="3.94228" height="3.94228" fill="#003DA5"/>
<rect x="112.23" y="224.853" width="3.94228" height="3.94228" fill="#003DA5"/>
<rect x="134.677" y="224.853" width="3.94228" height="3.94228" fill="#003DA5"/>
<rect x="202.015" y="224.853" width="3.94228" height="3.94228" fill="#003DA5"/>
<rect x="224.461" y="224.853" width="3.94228" height="3.94228" fill="#003DA5"/>
<rect x="246.907" y="224.853" width="3.94228" height="3.94228" fill="#003DA5"/>
<rect x="269.353" y="224.853" width="3.94228" height="3.94228" fill="#003DA5"/>
<rect x="291.799" y="224.853" width="3.94228" height="3.94228" fill="#003DA5"/>
<rect x="335.635" y="224.853" width="3.94228" height="3.94228" fill="#003DA5"/>
<rect x="357.025" y="224.853" width="3.94228" height="3.94228" fill="#003DA5"/>
<rect x="378.416" y="224.853" width="3.94228" height="3.94228" fill="#003DA5"/>
<rect x="399.805" y="224.853" width="3.94228" height="3.94228" fill="#003DA5"/>
<rect x="421.195" y="224.853" width="3.94228" height="3.94228" fill="#003DA5"/>
<rect x="442.585" y="224.853" width="3.94228" height="3.94228" fill="#003DA5"/>
<rect x="463.976" y="224.853" width="3.94228" height="3.94228" fill="#003DA5"/>
<rect x="485.365" y="224.853" width="3.94228" height="3.94228" fill="#003DA5"/>
<rect x="506.755" y="224.853" width="3.94228" height="3.94228" fill="#003DA5"/>
<rect x="528.146" y="224.853" width="3.94228" height="3.94228" fill="#003DA5"/>
<rect x="549.536" y="224.853" width="3.94228" height="3.94228" fill="#003DA5"/>
<rect x="570.926" y="224.853" width="3.94228" height="3.94228" fill="#003DA5"/>
<rect x="592.315" y="224.853" width="3.94228" height="3.94228" fill="#003DA5"/>
<rect y="247.299" width="3.94228" height="3.94228" fill="#003DA5"/>
<rect x="22.446" y="247.299" width="3.94228" height="3.94228" fill="#003DA5"/>
<rect x="44.8922" y="247.299" width="3.94228" height="3.94228" fill="#003DA5"/>
<rect x="314.245" y="247.299" width="3.94228" height="3.94228" fill="#003DA5"/>
<rect x="67.3384" y="247.299" width="3.94228" height="3.94228" fill="#003DA5"/>
<rect x="89.7844" y="247.299" width="3.94228" height="3.94228" fill="#003DA5"/>
<rect x="112.23" y="247.299" width="3.94228" height="3.94228" fill="#003DA5"/>
<rect x="134.677" y="247.299" width="3.94228" height="3.94228" fill="#003DA5"/>
<rect x="157.123" y="247.299" width="3.94228" height="3.94228" fill="#003DA5"/>
<rect x="179.569" y="247.299" width="3.94228" height="3.94228" fill="#003DA5"/>
<rect x="202.015" y="247.299" width="3.94228" height="3.94228" fill="#003DA5"/>
<rect x="224.461" y="247.299" width="3.94228" height="3.94228" fill="#003DA5"/>
<rect x="246.907" y="247.299" width="3.94228" height="3.94228" fill="#003DA5"/>
<rect x="269.353" y="247.299" width="3.94228" height="3.94228" fill="#003DA5"/>
<rect x="291.799" y="247.299" width="3.94228" height="3.94228" fill="#003DA5"/>
<rect x="335.635" y="247.299" width="3.94228" height="3.94228" fill="#003DA5"/>
<rect x="357.025" y="247.299" width="3.94228" height="3.94228" fill="#003DA5"/>
<rect x="378.416" y="247.299" width="3.94228" height="3.94228" fill="#003DA5"/>
<rect x="399.805" y="247.299" width="3.94228" height="3.94228" fill="#003DA5"/>
<rect x="421.195" y="247.299" width="3.94228" height="3.94228" fill="#003DA5"/>
<rect x="442.585" y="247.299" width="3.94228" height="3.94228" fill="#003DA5"/>
<rect x="463.976" y="247.299" width="3.94228" height="3.94228" fill="#003DA5"/>
<rect x="485.365" y="247.299" width="3.94228" height="3.94228" fill="#003DA5"/>
<rect x="506.755" y="247.299" width="3.94228" height="3.94228" fill="#003DA5"/>
<rect x="528.146" y="247.299" width="3.94228" height="3.94228" fill="#003DA5"/>
<rect x="549.536" y="247.299" width="3.94228" height="3.94228" fill="#003DA5"/>
<rect x="570.926" y="247.299" width="3.94228" height="3.94228" fill="#003DA5"/>
<rect x="592.315" y="247.299" width="3.94228" height="3.94228" fill="#003DA5"/>
<rect y="269.745" width="3.94228" height="3.94228" fill="#003DA5"/>
<rect x="22.446" y="269.745" width="3.94228" height="3.94228" fill="#003DA5"/>
<rect x="314.245" y="269.745" width="3.94228" height="3.94228" fill="#003DA5"/>
<rect x="44.8922" y="269.745" width="3.94228" height="3.94228" fill="#003DA5"/>
<rect x="67.3384" y="269.745" width="3.94228" height="3.94228" fill="#003DA5"/>
<rect x="89.7844" y="269.745" width="3.94228" height="3.94228" fill="#003DA5"/>
<rect x="112.23" y="269.745" width="3.94228" height="3.94228" fill="#003DA5"/>
<rect x="134.677" y="269.745" width="3.94228" height="3.94228" fill="#003DA5"/>
<rect x="157.123" y="269.745" width="3.94228" height="3.94228" fill="#003DA5"/>
<rect x="179.569" y="269.745" width="3.94228" height="3.94228" fill="#003DA5"/>
<rect x="202.015" y="269.745" width="3.94228" height="3.94228" fill="#003DA5"/>
<rect x="224.461" y="269.745" width="3.94228" height="3.94228" fill="#003DA5"/>
<rect x="246.907" y="269.745" width="3.94228" height="3.94228" fill="#003DA5"/>
<rect x="269.353" y="269.745" width="3.94228" height="3.94228" fill="#003DA5"/>
<rect x="291.799" y="269.745" width="3.94228" height="3.94228" fill="#003DA5"/>
<rect x="335.635" y="269.745" width="3.94228" height="3.94228" fill="#003DA5"/>
<rect x="357.025" y="269.745" width="3.94228" height="3.94228" fill="#003DA5"/>
<rect x="378.416" y="269.745" width="3.94228" height="3.94228" fill="#003DA5"/>
<rect x="399.805" y="269.745" width="3.94228" height="3.94228" fill="#003DA5"/>
<rect x="421.195" y="269.745" width="3.94228" height="3.94228" fill="#003DA5"/>
<rect x="442.585" y="269.745" width="3.94228" height="3.94228" fill="#003DA5"/>
<rect x="463.976" y="269.745" width="3.94228" height="3.94228" fill="#003DA5"/>
<rect x="485.365" y="269.745" width="3.94228" height="3.94228" fill="#003DA5"/>
<rect x="506.755" y="269.745" width="3.94228" height="3.94228" fill="#003DA5"/>
<rect x="528.146" y="269.745" width="3.94228" height="3.94228" fill="#003DA5"/>
<rect x="549.536" y="269.745" width="3.94228" height="3.94228" fill="#003DA5"/>
<rect x="570.926" y="269.745" width="3.94228" height="3.94228" fill="#003DA5"/>
<rect x="592.315" y="269.745" width="3.94228" height="3.94228" fill="#003DA5"/>
<path d="M514.414 67.5522L511.544 65.4129L516.71 58.8387L508.727 56.1777L509.875 52.8906L517.649 55.656V47.2556H521.093V55.656L528.919 52.8906L530.067 56.1777L522.188 58.8387L527.093 65.4129L524.38 67.5522L519.319 60.7171L514.414 67.5522Z" fill="#003DA5"/>
<path d="M164.765 218.714V215.791H165.69C166.652 215.791 167.355 215.458 167.799 214.792C168.243 214.126 168.366 213.189 168.169 211.98L167.355 206.319C167.084 204.395 167.404 202.89 168.317 201.805C169.254 200.72 170.747 200.177 172.794 200.177H175.532V202.841H173.275C172.264 202.841 171.511 203.125 171.018 203.692C170.549 204.259 170.389 205.024 170.537 205.986L171.277 211.943C171.474 213.448 171.314 214.669 170.796 215.606C170.303 216.519 169.587 217.074 168.65 217.271C169.661 217.468 170.401 218.048 170.87 219.01C171.339 219.972 171.474 221.156 171.277 222.562L170.537 228.482C170.414 229.493 170.586 230.27 171.055 230.813C171.548 231.356 172.288 231.627 173.275 231.627H175.532V234.328H172.72C170.771 234.328 169.304 233.785 168.317 232.7C167.355 231.639 167.034 230.135 167.355 228.186L168.169 222.525C168.366 221.267 168.231 220.317 167.762 219.676C167.318 219.035 166.627 218.714 165.69 218.714H164.765Z" fill="#003DA5"/>
</svg>
