<svg width="65" height="65" viewBox="0 0 65 65" fill="none" xmlns="http://www.w3.org/2000/svg">
<path d="M38.2665 11.5198L32.9331 16.5865M14.5331 21.9198L6.7998 19.7865M16.9331 32.5865L11.8665 37.9198M20.1331 6.45312L22.2665 14.1865M25.0318 26.4265C24.9284 26.1829 24.9001 25.9139 24.9506 25.6542C25.0011 25.3944 25.1281 25.1556 25.3152 24.9685C25.5023 24.7814 25.7411 24.6544 26.0008 24.6039C26.2606 24.5535 26.5295 24.5817 26.7731 24.6851L56.1065 36.6851C56.3675 36.7922 56.5879 36.9794 56.7358 37.2197C56.8838 37.46 56.9517 37.741 56.9297 38.0223C56.9078 38.3037 56.7972 38.5708 56.6138 38.7853C56.4304 38.9997 56.1837 39.1505 55.9091 39.2158L44.3118 41.9918C43.833 42.1061 43.3953 42.3508 43.047 42.6986C42.6987 43.0464 42.4535 43.4839 42.3385 43.9625L39.5651 55.5625C39.5005 55.8379 39.3499 56.0857 39.1352 56.2699C38.9205 56.4541 38.6527 56.5652 38.3706 56.5872C38.0885 56.6091 37.8068 56.5408 37.5661 56.3921C37.3254 56.2433 37.1383 56.0219 37.0318 55.7598L25.0318 26.4265Z" stroke="#003DA5" stroke-width="2" stroke-linecap="square"/>
</svg>
