<svg width="65" height="65" viewBox="0 0 65 65" fill="none" xmlns="http://www.w3.org/2000/svg">
<path d="M27.5998 56.6039V21.9372C27.5998 21.23 27.3188 20.5517 26.8187 20.0516C26.3186 19.5515 25.6403 19.2705 24.9331 19.2705H11.5998C10.8925 19.2705 10.2143 19.5515 9.71415 20.0516C9.21406 20.5517 8.93311 21.23 8.93311 21.9372V53.9372C8.93311 54.6445 9.21406 55.3227 9.71415 55.8228C10.2143 56.3229 10.8925 56.6039 11.5998 56.6039H43.5998C44.307 56.6039 44.9853 56.3229 45.4854 55.8228C45.9855 55.3227 46.2664 54.6445 46.2664 53.9372V40.6039C46.2664 39.8966 45.9855 39.2184 45.4854 38.7183C44.9853 38.2182 44.307 37.9372 43.5998 37.9372H8.93311M40.9331 8.60388H54.2664C55.7392 8.60388 56.9331 9.79779 56.9331 11.2705V24.6039C56.9331 26.0766 55.7392 27.2705 54.2664 27.2705H40.9331C39.4603 27.2705 38.2664 26.0766 38.2664 24.6039V11.2705C38.2664 9.79779 39.4603 8.60388 40.9331 8.60388Z" stroke="#003DA5" stroke-width="2" stroke-linecap="square"/>
</svg>
