<svg width="361" height="387" viewBox="0 0 361 387" fill="none" xmlns="http://www.w3.org/2000/svg">
<rect y="0.669434" width="3.94228" height="3.94228" fill="#003DA5"/>
<rect x="22.4463" y="0.669434" width="3.94228" height="3.94228" fill="#003DA5"/>
<rect x="44.8921" y="0.669434" width="3.94228" height="3.94228" fill="#003DA5"/>
<rect x="67.3384" y="0.669434" width="3.94228" height="3.94228" fill="#003DA5"/>
<rect x="89.7842" y="0.669434" width="3.94228" height="3.94228" fill="#003DA5"/>
<rect x="112.23" y="0.669434" width="3.94228" height="3.94228" fill="#003DA5"/>
<rect x="134.677" y="0.669434" width="3.94228" height="3.94228" fill="#003DA5"/>
<rect x="157.123" y="0.669434" width="3.94228" height="3.94228" fill="#003DA5"/>
<rect x="179.569" y="0.669434" width="3.94228" height="3.94228" fill="#003DA5"/>
<rect x="202.015" y="0.669434" width="3.94228" height="3.94228" fill="#003DA5"/>
<rect x="224.461" y="0.669434" width="3.94228" height="3.94228" fill="#003DA5"/>
<rect x="246.907" y="0.669434" width="3.94228" height="3.94228" fill="#003DA5"/>
<rect x="269.354" y="0.669434" width="3.94228" height="3.94228" fill="#003DA5"/>
<rect x="291.799" y="0.669434" width="3.94228" height="3.94228" fill="#003DA5"/>
<rect x="314.245" y="0.669434" width="3.94228" height="3.94228" fill="#003DA5"/>
<rect x="335.635" y="0.669434" width="3.94228" height="3.94228" fill="#003DA5"/>
<rect x="357.025" y="0.669434" width="3.94228" height="3.94228" fill="#003DA5"/>
<rect y="23.1157" width="3.94228" height="3.94228" fill="#003DA5"/>
<rect x="22.4463" y="23.1157" width="3.94228" height="3.94228" fill="#003DA5"/>
<rect x="44.8921" y="23.1157" width="3.94228" height="3.94228" fill="#003DA5"/>
<rect x="67.3384" y="23.1157" width="3.94228" height="3.94228" fill="#003DA5"/>
<rect x="89.7842" y="23.1157" width="3.94228" height="3.94228" fill="#003DA5"/>
<rect x="112.23" y="23.1157" width="3.94228" height="3.94228" fill="#003DA5"/>
<rect x="134.677" y="23.1157" width="3.94228" height="3.94228" fill="#003DA5"/>
<rect x="157.123" y="23.1157" width="3.94228" height="3.94228" fill="#003DA5"/>
<rect x="179.569" y="23.1157" width="3.94228" height="3.94228" fill="#003DA5"/>
<rect x="202.015" y="23.1157" width="3.94228" height="3.94228" fill="#003DA5"/>
<rect x="224.461" y="23.1157" width="3.94228" height="3.94228" fill="#003DA5"/>
<rect x="246.907" y="23.1157" width="3.94228" height="3.94228" fill="#003DA5"/>
<rect x="269.354" y="23.1157" width="3.94228" height="3.94228" fill="#003DA5"/>
<rect x="314.245" y="23.1157" width="3.94228" height="3.94228" fill="#003DA5"/>
<rect x="291.799" y="23.1157" width="3.94228" height="3.94228" fill="#003DA5"/>
<rect x="335.635" y="23.1157" width="3.94228" height="3.94228" fill="#003DA5"/>
<rect x="357.025" y="23.1157" width="3.94228" height="3.94228" fill="#003DA5"/>
<rect y="45.5615" width="3.94228" height="3.94228" fill="#003DA5"/>
<rect x="22.4463" y="45.5615" width="3.94228" height="3.94228" fill="#003DA5"/>
<rect x="44.8921" y="45.5615" width="3.94228" height="3.94228" fill="#003DA5"/>
<rect x="67.3384" y="45.5615" width="3.94228" height="3.94228" fill="#003DA5"/>
<rect x="89.7842" y="45.5615" width="3.94228" height="3.94228" fill="#003DA5"/>
<rect x="112.23" y="45.5615" width="3.94228" height="3.94228" fill="#003DA5"/>
<rect x="134.677" y="45.5615" width="3.94228" height="3.94228" fill="#003DA5"/>
<rect x="157.123" y="45.5615" width="3.94228" height="3.94228" fill="#003DA5"/>
<rect x="179.569" y="45.5615" width="3.94228" height="3.94228" fill="#003DA5"/>
<rect x="202.015" y="45.5615" width="3.94228" height="3.94228" fill="#003DA5"/>
<rect x="224.461" y="45.5615" width="3.94228" height="3.94228" fill="#003DA5"/>
<rect x="246.907" y="45.5615" width="3.94228" height="3.94228" fill="#003DA5"/>
<rect x="314.245" y="45.5615" width="3.94228" height="3.94228" fill="#003DA5"/>
<rect x="269.354" y="45.5615" width="3.94228" height="3.94228" fill="#003DA5"/>
<rect x="291.799" y="45.5615" width="3.94228" height="3.94228" fill="#003DA5"/>
<rect x="335.635" y="45.5615" width="3.94228" height="3.94228" fill="#003DA5"/>
<rect x="357.025" y="45.5615" width="3.94228" height="3.94228" fill="#003DA5"/>
<rect y="68.0078" width="3.94228" height="3.94228" fill="#003DA5"/>
<rect x="22.4463" y="68.0078" width="3.94228" height="3.94228" fill="#003DA5"/>
<rect x="44.8921" y="68.0078" width="3.94228" height="3.94228" fill="#003DA5"/>
<rect x="67.3384" y="68.0078" width="3.94228" height="3.94228" fill="#003DA5"/>
<rect x="89.7842" y="68.0078" width="3.94228" height="3.94228" fill="#003DA5"/>
<rect x="112.23" y="68.0078" width="3.94228" height="3.94228" fill="#003DA5"/>
<rect x="134.677" y="68.0078" width="3.94228" height="3.94228" fill="#003DA5"/>
<rect x="157.123" y="68.0078" width="3.94228" height="3.94228" fill="#003DA5"/>
<rect x="179.569" y="68.0078" width="3.94228" height="3.94228" fill="#003DA5"/>
<rect x="202.015" y="68.0078" width="3.94228" height="3.94228" fill="#003DA5"/>
<rect x="224.461" y="68.0078" width="3.94228" height="3.94228" fill="#003DA5"/>
<rect x="246.907" y="68.0078" width="3.94228" height="3.94228" fill="#003DA5"/>
<rect x="269.354" y="68.0078" width="3.94228" height="3.94228" fill="#003DA5"/>
<rect x="335.635" y="68.0078" width="3.94228" height="3.94228" fill="#003DA5"/>
<rect x="357.025" y="68.0078" width="3.94228" height="3.94228" fill="#003DA5"/>
<rect y="90.4536" width="3.94228" height="3.94228" fill="#003DA5"/>
<rect x="22.4463" y="90.4536" width="3.94228" height="3.94228" fill="#003DA5"/>
<rect x="44.8921" y="90.4536" width="3.94228" height="3.94228" fill="#003DA5"/>
<rect x="67.3384" y="90.4536" width="3.94228" height="3.94228" fill="#003DA5"/>
<rect x="112.23" y="90.4536" width="3.94228" height="3.94228" fill="#003DA5"/>
<rect x="89.7842" y="90.4536" width="3.94228" height="3.94228" fill="#003DA5"/>
<rect x="134.677" y="90.4536" width="3.94228" height="3.94228" fill="#003DA5"/>
<rect x="157.123" y="90.4536" width="3.94228" height="3.94228" fill="#003DA5"/>
<rect x="179.569" y="90.4536" width="3.94228" height="3.94228" fill="#003DA5"/>
<rect x="202.015" y="90.4536" width="3.94228" height="3.94228" fill="#003DA5"/>
<rect x="224.461" y="90.4536" width="3.94228" height="3.94228" fill="#003DA5"/>
<rect x="246.907" y="90.4536" width="3.94228" height="3.94228" fill="#003DA5"/>
<rect x="269.354" y="90.4536" width="3.94228" height="3.94228" fill="#003DA5"/>
<rect x="335.635" y="90.4536" width="3.94228" height="3.94228" fill="#003DA5"/>
<rect x="357.025" y="90.4536" width="3.94228" height="3.94228" fill="#003DA5"/>
<rect y="112.9" width="3.94228" height="3.94228" fill="#003DA5"/>
<rect x="22.4463" y="112.9" width="3.94228" height="3.94228" fill="#003DA5"/>
<rect x="44.8921" y="112.9" width="3.94228" height="3.94228" fill="#003DA5"/>
<rect x="67.3384" y="112.9" width="3.94228" height="3.94228" fill="#003DA5"/>
<rect x="89.7842" y="112.9" width="3.94228" height="3.94228" fill="#003DA5"/>
<rect x="112.23" y="112.9" width="3.94228" height="3.94228" fill="#003DA5"/>
<rect x="134.677" y="112.9" width="3.94228" height="3.94228" fill="#003DA5"/>
<rect x="157.123" y="112.9" width="3.94228" height="3.94228" fill="#003DA5"/>
<rect x="179.569" y="112.9" width="3.94228" height="3.94228" fill="#003DA5"/>
<rect x="314.245" y="112.9" width="3.94228" height="3.94228" fill="#003DA5"/>
<rect x="202.015" y="112.9" width="3.94228" height="3.94228" fill="#003DA5"/>
<rect x="224.461" y="112.9" width="3.94228" height="3.94228" fill="#003DA5"/>
<rect x="246.907" y="112.9" width="3.94228" height="3.94228" fill="#003DA5"/>
<rect x="269.354" y="112.9" width="3.94228" height="3.94228" fill="#003DA5"/>
<rect x="291.799" y="112.9" width="3.94228" height="3.94228" fill="#003DA5"/>
<rect x="335.635" y="112.9" width="3.94228" height="3.94228" fill="#003DA5"/>
<rect x="357.025" y="112.9" width="3.94228" height="3.94228" fill="#003DA5"/>
<rect y="135.346" width="3.94228" height="3.94228" fill="#003DA5"/>
<rect x="22.4463" y="135.346" width="3.94228" height="3.94228" fill="#003DA5"/>
<rect x="44.8921" y="135.346" width="3.94228" height="3.94228" fill="#003DA5"/>
<rect x="67.3384" y="135.346" width="3.94228" height="3.94228" fill="#003DA5"/>
<rect x="89.7842" y="135.346" width="3.94228" height="3.94228" fill="#003DA5"/>
<rect x="112.23" y="135.346" width="3.94228" height="3.94228" fill="#003DA5"/>
<rect x="134.677" y="135.346" width="3.94228" height="3.94228" fill="#003DA5"/>
<rect x="157.123" y="135.346" width="3.94228" height="3.94228" fill="#003DA5"/>
<rect x="314.245" y="135.346" width="3.94228" height="3.94228" fill="#003DA5"/>
<rect x="179.569" y="135.346" width="3.94228" height="3.94228" fill="#003DA5"/>
<rect x="202.015" y="135.346" width="3.94228" height="3.94228" fill="#003DA5"/>
<rect x="224.461" y="135.346" width="3.94228" height="3.94228" fill="#003DA5"/>
<rect x="246.907" y="135.346" width="3.94228" height="3.94228" fill="#003DA5"/>
<rect x="269.354" y="135.346" width="3.94228" height="3.94228" fill="#003DA5"/>
<rect x="291.799" y="135.346" width="3.94228" height="3.94228" fill="#003DA5"/>
<rect x="335.635" y="135.346" width="3.94228" height="3.94228" fill="#003DA5"/>
<rect x="357.025" y="135.346" width="3.94228" height="3.94228" fill="#003DA5"/>
<rect y="157.792" width="3.94228" height="3.94228" fill="#003DA5"/>
<rect x="22.4463" y="157.792" width="3.94228" height="3.94228" fill="#003DA5"/>
<rect x="44.8921" y="157.792" width="3.94228" height="3.94228" fill="#003DA5"/>
<rect x="67.3384" y="157.792" width="3.94228" height="3.94228" fill="#003DA5"/>
<rect x="89.7842" y="157.792" width="3.94228" height="3.94228" fill="#003DA5"/>
<rect x="112.23" y="157.792" width="3.94228" height="3.94228" fill="#003DA5"/>
<rect x="134.677" y="157.792" width="3.94228" height="3.94228" fill="#003DA5"/>
<rect x="314.245" y="157.792" width="3.94228" height="3.94228" fill="#003DA5"/>
<rect x="157.123" y="157.792" width="3.94228" height="3.94228" fill="#003DA5"/>
<rect x="179.569" y="157.792" width="3.94228" height="3.94228" fill="#003DA5"/>
<rect x="202.015" y="157.792" width="3.94228" height="3.94228" fill="#003DA5"/>
<rect x="224.461" y="157.792" width="3.94228" height="3.94228" fill="#003DA5"/>
<rect x="246.907" y="157.792" width="3.94228" height="3.94228" fill="#003DA5"/>
<rect x="269.354" y="157.792" width="3.94228" height="3.94228" fill="#003DA5"/>
<rect x="291.799" y="157.792" width="3.94228" height="3.94228" fill="#003DA5"/>
<rect x="335.635" y="157.792" width="3.94228" height="3.94228" fill="#003DA5"/>
<rect x="357.025" y="157.792" width="3.94228" height="3.94228" fill="#003DA5"/>
<rect y="180.238" width="3.94228" height="3.94228" fill="#003DA5"/>
<rect x="22.4463" y="180.238" width="3.94228" height="3.94228" fill="#003DA5"/>
<rect x="44.8921" y="180.238" width="3.94228" height="3.94228" fill="#003DA5"/>
<rect x="67.3384" y="180.238" width="3.94228" height="3.94228" fill="#003DA5"/>
<rect x="89.7842" y="180.238" width="3.94228" height="3.94228" fill="#003DA5"/>
<rect x="112.23" y="180.238" width="3.94228" height="3.94228" fill="#003DA5"/>
<rect x="314.245" y="180.238" width="3.94228" height="3.94228" fill="#003DA5"/>
<rect x="134.677" y="180.238" width="3.94228" height="3.94228" fill="#003DA5"/>
<rect x="157.123" y="180.238" width="3.94228" height="3.94228" fill="#003DA5"/>
<rect x="179.569" y="180.238" width="3.94228" height="3.94228" fill="#003DA5"/>
<rect x="202.015" y="180.238" width="3.94228" height="3.94228" fill="#003DA5"/>
<rect x="224.461" y="180.238" width="3.94228" height="3.94228" fill="#003DA5"/>
<rect x="246.907" y="180.238" width="3.94228" height="3.94228" fill="#003DA5"/>
<rect x="269.354" y="180.238" width="3.94228" height="3.94228" fill="#003DA5"/>
<rect x="291.799" y="180.238" width="3.94228" height="3.94228" fill="#003DA5"/>
<rect x="335.635" y="180.238" width="3.94228" height="3.94228" fill="#003DA5"/>
<rect x="357.025" y="180.238" width="3.94228" height="3.94228" fill="#003DA5"/>
<rect y="202.685" width="3.94228" height="3.94228" fill="#003DA5"/>
<rect x="22.4463" y="202.685" width="3.94228" height="3.94228" fill="#003DA5"/>
<rect x="44.8921" y="202.685" width="3.94228" height="3.94228" fill="#003DA5"/>
<rect x="67.3384" y="202.685" width="3.94228" height="3.94228" fill="#003DA5"/>
<rect x="89.7842" y="202.685" width="3.94228" height="3.94228" fill="#003DA5"/>
<rect x="112.23" y="202.685" width="3.94228" height="3.94228" fill="#003DA5"/>
<rect x="134.677" y="202.685" width="3.94228" height="3.94228" fill="#003DA5"/>
<rect x="157.123" y="202.685" width="3.94228" height="3.94228" fill="#003DA5"/>
<rect x="179.569" y="202.685" width="3.94228" height="3.94228" fill="#003DA5"/>
<rect x="202.015" y="202.685" width="3.94228" height="3.94228" fill="#003DA5"/>
<rect x="224.461" y="202.685" width="3.94228" height="3.94228" fill="#003DA5"/>
<rect x="246.907" y="202.685" width="3.94228" height="3.94228" fill="#003DA5"/>
<rect x="269.354" y="202.685" width="3.94228" height="3.94228" fill="#003DA5"/>
<rect x="291.799" y="202.685" width="3.94228" height="3.94228" fill="#003DA5"/>
<rect x="314.245" y="202.685" width="3.94228" height="3.94228" fill="#003DA5"/>
<rect x="335.635" y="202.685" width="3.94228" height="3.94228" fill="#003DA5"/>
<rect x="357.025" y="202.685" width="3.94228" height="3.94228" fill="#003DA5"/>
<rect y="225.131" width="3.94228" height="3.94228" fill="#003DA5"/>
<rect x="22.4463" y="225.131" width="3.94228" height="3.94228" fill="#003DA5"/>
<rect x="44.8921" y="225.131" width="3.94228" height="3.94228" fill="#003DA5"/>
<rect x="67.3384" y="225.131" width="3.94228" height="3.94228" fill="#003DA5"/>
<rect x="89.7842" y="225.131" width="3.94228" height="3.94228" fill="#003DA5"/>
<rect x="112.23" y="225.131" width="3.94228" height="3.94228" fill="#003DA5"/>
<rect x="134.677" y="225.131" width="3.94228" height="3.94228" fill="#003DA5"/>
<rect x="157.123" y="225.131" width="3.94228" height="3.94228" fill="#003DA5"/>
<rect x="179.569" y="225.131" width="3.94228" height="3.94228" fill="#003DA5"/>
<rect x="202.015" y="225.131" width="3.94228" height="3.94228" fill="#003DA5"/>
<rect x="224.461" y="225.131" width="3.94228" height="3.94228" fill="#003DA5"/>
<rect x="246.907" y="225.131" width="3.94228" height="3.94228" fill="#003DA5"/>
<rect x="269.354" y="225.131" width="3.94228" height="3.94228" fill="#003DA5"/>
<rect x="314.245" y="225.131" width="3.94228" height="3.94228" fill="#003DA5"/>
<rect x="291.799" y="225.131" width="3.94228" height="3.94228" fill="#003DA5"/>
<rect x="335.635" y="225.131" width="3.94228" height="3.94228" fill="#003DA5"/>
<rect x="357.025" y="225.131" width="3.94228" height="3.94228" fill="#003DA5"/>
<rect y="247.577" width="3.94228" height="3.94228" fill="#003DA5"/>
<rect x="22.4463" y="247.577" width="3.94228" height="3.94228" fill="#003DA5"/>
<rect x="44.8921" y="247.577" width="3.94228" height="3.94228" fill="#003DA5"/>
<rect x="67.3384" y="247.577" width="3.94228" height="3.94228" fill="#003DA5"/>
<rect x="89.7842" y="247.577" width="3.94228" height="3.94228" fill="#003DA5"/>
<rect x="112.23" y="247.577" width="3.94228" height="3.94228" fill="#003DA5"/>
<rect x="134.677" y="247.577" width="3.94228" height="3.94228" fill="#003DA5"/>
<rect x="157.123" y="247.577" width="3.94228" height="3.94228" fill="#003DA5"/>
<rect x="179.569" y="247.577" width="3.94228" height="3.94228" fill="#003DA5"/>
<rect x="202.015" y="247.577" width="3.94228" height="3.94228" fill="#003DA5"/>
<rect x="224.461" y="247.577" width="3.94228" height="3.94228" fill="#003DA5"/>
<rect x="246.907" y="247.577" width="3.94228" height="3.94228" fill="#003DA5"/>
<rect x="314.245" y="247.577" width="3.94228" height="3.94228" fill="#003DA5"/>
<rect x="269.354" y="247.577" width="3.94228" height="3.94228" fill="#003DA5"/>
<rect x="291.799" y="247.577" width="3.94228" height="3.94228" fill="#003DA5"/>
<rect x="335.635" y="247.577" width="3.94228" height="3.94228" fill="#003DA5"/>
<rect x="357.025" y="247.577" width="3.94228" height="3.94228" fill="#003DA5"/>
<rect y="270.023" width="3.94228" height="3.94228" fill="#003DA5"/>
<rect x="22.4463" y="270.023" width="3.94228" height="3.94228" fill="#003DA5"/>
<rect x="44.8921" y="270.023" width="3.94228" height="3.94228" fill="#003DA5"/>
<rect x="67.3384" y="270.023" width="3.94228" height="3.94228" fill="#003DA5"/>
<rect x="89.7842" y="270.023" width="3.94228" height="3.94228" fill="#003DA5"/>
<rect x="112.23" y="270.023" width="3.94228" height="3.94228" fill="#003DA5"/>
<rect x="134.677" y="270.023" width="3.94228" height="3.94228" fill="#003DA5"/>
<rect x="157.123" y="270.023" width="3.94228" height="3.94228" fill="#003DA5"/>
<rect x="179.569" y="270.023" width="3.94228" height="3.94228" fill="#003DA5"/>
<rect x="202.015" y="270.023" width="3.94228" height="3.94228" fill="#003DA5"/>
<rect x="224.461" y="270.023" width="3.94228" height="3.94228" fill="#003DA5"/>
<rect x="314.245" y="270.023" width="3.94228" height="3.94228" fill="#003DA5"/>
<rect x="246.907" y="270.023" width="3.94228" height="3.94228" fill="#003DA5"/>
<rect x="269.354" y="270.023" width="3.94228" height="3.94228" fill="#003DA5"/>
<rect x="291.799" y="270.023" width="3.94228" height="3.94228" fill="#003DA5"/>
<rect x="335.635" y="270.023" width="3.94228" height="3.94228" fill="#003DA5"/>
<rect x="357.025" y="270.023" width="3.94228" height="3.94228" fill="#003DA5"/>
<rect y="292.469" width="3.94228" height="3.94228" fill="#003DA5"/>
<rect x="22.4463" y="292.469" width="3.94228" height="3.94228" fill="#003DA5"/>
<rect x="44.8921" y="292.469" width="3.94228" height="3.94228" fill="#003DA5"/>
<rect x="67.3384" y="292.469" width="3.94228" height="3.94228" fill="#003DA5"/>
<rect x="112.23" y="292.469" width="3.94228" height="3.94228" fill="#003DA5"/>
<rect x="89.7842" y="292.469" width="3.94228" height="3.94228" fill="#003DA5"/>
<rect x="134.677" y="292.469" width="3.94228" height="3.94228" fill="#003DA5"/>
<rect x="157.123" y="292.469" width="3.94228" height="3.94228" fill="#003DA5"/>
<rect x="179.569" y="292.469" width="3.94228" height="3.94228" fill="#003DA5"/>
<rect x="202.015" y="292.469" width="3.94228" height="3.94228" fill="#003DA5"/>
<rect x="314.245" y="292.469" width="3.94228" height="3.94228" fill="#003DA5"/>
<rect x="224.461" y="292.469" width="3.94228" height="3.94228" fill="#003DA5"/>
<rect x="246.907" y="292.469" width="3.94228" height="3.94228" fill="#003DA5"/>
<rect x="269.354" y="292.469" width="3.94228" height="3.94228" fill="#003DA5"/>
<rect x="291.799" y="292.469" width="3.94228" height="3.94228" fill="#003DA5"/>
<rect x="335.635" y="292.469" width="3.94228" height="3.94228" fill="#003DA5"/>
<rect x="357.025" y="292.469" width="3.94228" height="3.94228" fill="#003DA5"/>
<rect y="314.915" width="3.94228" height="3.94228" fill="#003DA5"/>
<rect x="22.4463" y="314.915" width="3.94228" height="3.94228" fill="#003DA5"/>
<rect x="44.8921" y="314.915" width="3.94228" height="3.94228" fill="#003DA5"/>
<rect x="112.23" y="314.915" width="3.94228" height="3.94228" fill="#003DA5"/>
<rect x="134.677" y="314.915" width="3.94228" height="3.94228" fill="#003DA5"/>
<rect x="157.123" y="314.915" width="3.94228" height="3.94228" fill="#003DA5"/>
<rect x="179.569" y="314.915" width="3.94228" height="3.94228" fill="#003DA5"/>
<rect x="314.245" y="314.915" width="3.94228" height="3.94228" fill="#003DA5"/>
<rect x="202.015" y="314.915" width="3.94228" height="3.94228" fill="#003DA5"/>
<rect x="224.461" y="314.915" width="3.94228" height="3.94228" fill="#003DA5"/>
<rect x="246.907" y="314.915" width="3.94228" height="3.94228" fill="#003DA5"/>
<rect x="269.354" y="314.915" width="3.94228" height="3.94228" fill="#003DA5"/>
<rect x="291.799" y="314.915" width="3.94228" height="3.94228" fill="#003DA5"/>
<rect x="335.635" y="314.915" width="3.94228" height="3.94228" fill="#003DA5"/>
<rect x="357.025" y="314.915" width="3.94228" height="3.94228" fill="#003DA5"/>
<rect y="337.361" width="3.94228" height="3.94228" fill="#003DA5"/>
<rect x="22.4463" y="337.361" width="3.94228" height="3.94228" fill="#003DA5"/>
<rect x="44.8921" y="337.361" width="3.94228" height="3.94228" fill="#003DA5"/>
<rect x="112.23" y="337.361" width="3.94228" height="3.94228" fill="#003DA5"/>
<rect x="134.677" y="337.361" width="3.94228" height="3.94228" fill="#003DA5"/>
<rect x="157.123" y="337.361" width="3.94228" height="3.94228" fill="#003DA5"/>
<rect x="314.245" y="337.361" width="3.94228" height="3.94228" fill="#003DA5"/>
<rect x="179.569" y="337.361" width="3.94228" height="3.94228" fill="#003DA5"/>
<rect x="202.015" y="337.361" width="3.94228" height="3.94228" fill="#003DA5"/>
<rect x="224.461" y="337.361" width="3.94228" height="3.94228" fill="#003DA5"/>
<rect x="246.907" y="337.361" width="3.94228" height="3.94228" fill="#003DA5"/>
<rect x="269.354" y="337.361" width="3.94228" height="3.94228" fill="#003DA5"/>
<rect x="291.799" y="337.361" width="3.94228" height="3.94228" fill="#003DA5"/>
<rect x="335.635" y="337.361" width="3.94228" height="3.94228" fill="#003DA5"/>
<rect x="357.025" y="337.361" width="3.94228" height="3.94228" fill="#003DA5"/>
<rect y="359.807" width="3.94228" height="3.94228" fill="#003DA5"/>
<rect x="22.4463" y="359.807" width="3.94228" height="3.94228" fill="#003DA5"/>
<rect x="44.8921" y="359.807" width="3.94228" height="3.94228" fill="#003DA5"/>
<rect x="67.3384" y="359.807" width="3.94228" height="3.94228" fill="#003DA5"/>
<rect x="89.7842" y="359.807" width="3.94228" height="3.94228" fill="#003DA5"/>
<rect x="112.23" y="359.807" width="3.94228" height="3.94228" fill="#003DA5"/>
<rect x="134.677" y="359.807" width="3.94228" height="3.94228" fill="#003DA5"/>
<rect x="314.245" y="359.807" width="3.94228" height="3.94228" fill="#003DA5"/>
<rect x="157.123" y="359.807" width="3.94228" height="3.94228" fill="#003DA5"/>
<rect x="179.569" y="359.807" width="3.94228" height="3.94228" fill="#003DA5"/>
<rect x="202.015" y="359.807" width="3.94228" height="3.94228" fill="#003DA5"/>
<rect x="224.461" y="359.807" width="3.94228" height="3.94228" fill="#003DA5"/>
<rect x="246.907" y="359.807" width="3.94228" height="3.94228" fill="#003DA5"/>
<rect x="269.354" y="359.807" width="3.94228" height="3.94228" fill="#003DA5"/>
<rect x="291.799" y="359.807" width="3.94228" height="3.94228" fill="#003DA5"/>
<rect x="335.635" y="359.807" width="3.94228" height="3.94228" fill="#003DA5"/>
<rect x="357.025" y="359.807" width="3.94228" height="3.94228" fill="#003DA5"/>
<rect y="382.253" width="3.94228" height="3.94228" fill="#003DA5"/>
<rect x="22.4463" y="382.253" width="3.94228" height="3.94228" fill="#003DA5"/>
<rect x="44.8921" y="382.253" width="3.94228" height="3.94228" fill="#003DA5"/>
<rect x="67.3384" y="382.253" width="3.94228" height="3.94228" fill="#003DA5"/>
<rect x="89.7842" y="382.253" width="3.94228" height="3.94228" fill="#003DA5"/>
<rect x="112.23" y="382.253" width="3.94228" height="3.94228" fill="#003DA5"/>
<rect x="314.245" y="382.253" width="3.94228" height="3.94228" fill="#003DA5"/>
<rect x="134.677" y="382.253" width="3.94228" height="3.94228" fill="#003DA5"/>
<rect x="157.123" y="382.253" width="3.94228" height="3.94228" fill="#003DA5"/>
<rect x="179.569" y="382.253" width="3.94228" height="3.94228" fill="#003DA5"/>
<rect x="202.015" y="382.253" width="3.94228" height="3.94228" fill="#003DA5"/>
<rect x="224.461" y="382.253" width="3.94228" height="3.94228" fill="#003DA5"/>
<rect x="246.907" y="382.253" width="3.94228" height="3.94228" fill="#003DA5"/>
<rect x="269.354" y="382.253" width="3.94228" height="3.94228" fill="#003DA5"/>
<rect x="291.799" y="382.253" width="3.94228" height="3.94228" fill="#003DA5"/>
<rect x="335.635" y="382.253" width="3.94228" height="3.94228" fill="#003DA5"/>
<rect x="357.025" y="382.253" width="3.94228" height="3.94228" fill="#003DA5"/>
</svg>
