<svg width="533" height="185" viewBox="0 0 533 185" fill="none" xmlns="http://www.w3.org/2000/svg">
<rect x="0.760742" y="0.551514" width="3.94228" height="3.94228" fill="#003DA5"/>
<rect x="23.207" y="0.551514" width="3.94228" height="3.94228" fill="#003DA5"/>
<rect x="45.6523" y="0.551514" width="3.94228" height="3.94228" fill="#003DA5"/>
<rect x="68.0996" y="0.551514" width="3.94228" height="3.94228" fill="#003DA5"/>
<rect x="90.5449" y="0.551514" width="3.94228" height="3.94228" fill="#003DA5"/>
<rect x="112.991" y="0.551514" width="3.94228" height="3.94228" fill="#003DA5"/>
<rect x="135.438" y="0.551514" width="3.94228" height="3.94228" fill="#003DA5"/>
<rect x="157.883" y="0.551514" width="3.94228" height="3.94228" fill="#003DA5"/>
<rect x="180.33" y="0.551514" width="3.94228" height="3.94228" fill="#003DA5"/>
<rect x="202.775" y="0.551514" width="3.94228" height="3.94228" fill="#003DA5"/>
<rect x="225.222" y="0.551514" width="3.94228" height="3.94228" fill="#003DA5"/>
<rect x="247.668" y="0.551514" width="3.94228" height="3.94228" fill="#003DA5"/>
<rect x="270.114" y="0.551514" width="3.94228" height="3.94228" fill="#003DA5"/>
<rect x="292.561" y="0.551514" width="3.94228" height="3.94228" fill="#003DA5"/>
<rect x="315.006" y="0.551514" width="3.94228" height="3.94228" fill="#003DA5"/>
<rect x="336.396" y="0.551514" width="3.94228" height="3.94228" fill="#003DA5"/>
<rect x="357.786" y="0.551514" width="3.94228" height="3.94228" fill="#003DA5"/>
<rect x="379.177" y="0.551514" width="3.94228" height="3.94228" fill="#003DA5"/>
<rect x="400.566" y="0.551514" width="3.94228" height="3.94228" fill="#003DA5"/>
<rect x="421.956" y="0.551514" width="3.94228" height="3.94228" fill="#003DA5"/>
<rect x="443.347" y="0.551514" width="3.94228" height="3.94228" fill="#003DA5"/>
<rect x="464.736" y="0.551514" width="3.94228" height="3.94228" fill="#003DA5"/>
<rect x="486.126" y="0.551514" width="3.94228" height="3.94228" fill="#003DA5"/>
<rect x="507.517" y="0.551514" width="3.94228" height="3.94228" fill="#003DA5"/>
<rect x="528.906" y="0.551514" width="3.94228" height="3.94228" fill="#003DA5"/>
<rect x="0.760742" y="22.9976" width="3.94228" height="3.94228" fill="#003DA5"/>
<rect x="23.207" y="22.9976" width="3.94228" height="3.94228" fill="#003DA5"/>
<rect x="45.6523" y="22.9976" width="3.94228" height="3.94228" fill="#003DA5"/>
<rect x="68.0996" y="22.9976" width="3.94228" height="3.94228" fill="#003DA5"/>
<rect x="90.5449" y="22.9976" width="3.94228" height="3.94228" fill="#003DA5"/>
<rect x="112.991" y="22.9976" width="3.94228" height="3.94228" fill="#003DA5"/>
<rect x="135.438" y="22.9976" width="3.94228" height="3.94228" fill="#003DA5"/>
<rect x="157.883" y="22.9976" width="3.94228" height="3.94228" fill="#003DA5"/>
<rect x="180.33" y="22.9976" width="3.94228" height="3.94228" fill="#003DA5"/>
<rect x="202.775" y="22.9976" width="3.94228" height="3.94228" fill="#003DA5"/>
<rect x="225.222" y="22.9976" width="3.94228" height="3.94228" fill="#003DA5"/>
<rect x="247.668" y="22.9976" width="3.94228" height="3.94228" fill="#003DA5"/>
<rect x="270.114" y="22.9976" width="3.94228" height="3.94228" fill="#003DA5"/>
<rect x="315.006" y="22.9976" width="3.94228" height="3.94228" fill="#003DA5"/>
<rect x="292.561" y="22.9976" width="3.94228" height="3.94228" fill="#003DA5"/>
<rect x="336.396" y="22.9976" width="3.94228" height="3.94228" fill="#003DA5"/>
<rect x="357.786" y="22.9976" width="3.94228" height="3.94228" fill="#003DA5"/>
<rect x="379.177" y="22.9976" width="3.94228" height="3.94228" fill="#003DA5"/>
<rect x="400.566" y="22.9976" width="3.94228" height="3.94228" fill="#003DA5"/>
<rect x="421.956" y="22.9976" width="3.94228" height="3.94228" fill="#003DA5"/>
<rect x="443.347" y="22.9976" width="3.94228" height="3.94228" fill="#003DA5"/>
<rect x="464.736" y="22.9976" width="3.94228" height="3.94228" fill="#003DA5"/>
<rect x="486.126" y="22.9976" width="3.94228" height="3.94228" fill="#003DA5"/>
<rect x="507.517" y="22.9976" width="3.94228" height="3.94228" fill="#003DA5"/>
<rect x="528.906" y="22.9976" width="3.94228" height="3.94228" fill="#003DA5"/>
<rect x="0.760742" y="45.4438" width="3.94228" height="3.94228" fill="#003DA5"/>
<rect x="23.207" y="45.4438" width="3.94228" height="3.94228" fill="#003DA5"/>
<rect x="45.6523" y="45.4438" width="3.94228" height="3.94228" fill="#003DA5"/>
<rect x="68.0996" y="45.4438" width="3.94228" height="3.94228" fill="#003DA5"/>
<rect x="90.5449" y="45.4438" width="3.94228" height="3.94228" fill="#003DA5"/>
<rect x="112.991" y="45.4438" width="3.94228" height="3.94228" fill="#003DA5"/>
<rect x="135.438" y="45.4438" width="3.94228" height="3.94228" fill="#003DA5"/>
<rect x="157.883" y="45.4438" width="3.94228" height="3.94228" fill="#003DA5"/>
<rect x="180.33" y="45.4438" width="3.94228" height="3.94228" fill="#003DA5"/>
<rect x="202.775" y="45.4438" width="3.94228" height="3.94228" fill="#003DA5"/>
<rect x="225.222" y="45.4438" width="3.94228" height="3.94228" fill="#003DA5"/>
<rect x="247.668" y="45.4438" width="3.94228" height="3.94228" fill="#003DA5"/>
<rect x="315.006" y="45.4438" width="3.94228" height="3.94228" fill="#003DA5"/>
<rect x="270.114" y="45.4438" width="3.94228" height="3.94228" fill="#003DA5"/>
<rect x="292.561" y="45.4438" width="3.94228" height="3.94228" fill="#003DA5"/>
<rect x="336.396" y="45.4438" width="3.94228" height="3.94228" fill="#003DA5"/>
<rect x="357.786" y="45.4438" width="3.94228" height="3.94228" fill="#003DA5"/>
<rect x="379.177" y="45.4438" width="3.94228" height="3.94228" fill="#003DA5"/>
<rect x="400.566" y="45.4438" width="3.94228" height="3.94228" fill="#003DA5"/>
<rect x="421.956" y="45.4438" width="3.94228" height="3.94228" fill="#003DA5"/>
<rect x="443.347" y="45.4438" width="3.94228" height="3.94228" fill="#003DA5"/>
<rect x="464.736" y="45.4438" width="3.94228" height="3.94228" fill="#003DA5"/>
<rect x="486.126" y="45.4438" width="3.94228" height="3.94228" fill="#003DA5"/>
<rect x="507.517" y="45.4438" width="3.94228" height="3.94228" fill="#003DA5"/>
<rect x="528.906" y="45.4438" width="3.94228" height="3.94228" fill="#003DA5"/>
<rect x="0.760742" y="67.8896" width="3.94228" height="3.94228" fill="#003DA5"/>
<rect x="23.207" y="67.8896" width="3.94228" height="3.94228" fill="#003DA5"/>
<rect x="45.6523" y="67.8896" width="3.94228" height="3.94228" fill="#003DA5"/>
<rect x="68.0996" y="67.8896" width="3.94228" height="3.94228" fill="#003DA5"/>
<rect x="90.5449" y="67.8896" width="3.94228" height="3.94228" fill="#003DA5"/>
<rect x="112.991" y="67.8896" width="3.94228" height="3.94228" fill="#003DA5"/>
<rect x="180.33" y="67.8896" width="3.94228" height="3.94228" fill="#003DA5"/>
<rect x="202.775" y="67.8896" width="3.94228" height="3.94228" fill="#003DA5"/>
<rect x="225.222" y="67.8896" width="3.94228" height="3.94228" fill="#003DA5"/>
<rect x="315.006" y="67.8896" width="3.94228" height="3.94228" fill="#003DA5"/>
<rect x="247.668" y="67.8896" width="3.94228" height="3.94228" fill="#003DA5"/>
<rect x="270.114" y="67.8896" width="3.94228" height="3.94228" fill="#003DA5"/>
<rect x="292.561" y="67.8896" width="3.94228" height="3.94228" fill="#003DA5"/>
<rect x="336.396" y="67.8896" width="3.94228" height="3.94228" fill="#003DA5"/>
<rect x="357.786" y="67.8896" width="3.94228" height="3.94228" fill="#003DA5"/>
<rect x="379.177" y="67.8896" width="3.94228" height="3.94228" fill="#003DA5"/>
<rect x="400.566" y="67.8896" width="3.94228" height="3.94228" fill="#003DA5"/>
<rect x="421.956" y="67.8896" width="3.94228" height="3.94228" fill="#003DA5"/>
<rect x="443.347" y="67.8896" width="3.94228" height="3.94228" fill="#003DA5"/>
<rect x="486.126" y="67.8896" width="3.94228" height="3.94228" fill="#003DA5"/>
<rect x="464.736" y="67.8896" width="3.94228" height="3.94228" fill="#003DA5"/>
<rect x="507.517" y="67.8896" width="3.94228" height="3.94228" fill="#003DA5"/>
<rect x="528.906" y="67.8896" width="3.94228" height="3.94228" fill="#003DA5"/>
<rect x="0.760742" y="90.3359" width="3.94228" height="3.94228" fill="#003DA5"/>
<rect x="23.207" y="90.3359" width="3.94228" height="3.94228" fill="#003DA5"/>
<rect x="45.6523" y="90.3359" width="3.94228" height="3.94228" fill="#003DA5"/>
<rect x="68.0996" y="90.3359" width="3.94228" height="3.94228" fill="#003DA5"/>
<rect x="90.5449" y="90.3359" width="3.94228" height="3.94228" fill="#003DA5"/>
<rect x="112.991" y="90.3359" width="3.94228" height="3.94228" fill="#003DA5"/>
<rect x="180.33" y="90.3359" width="3.94228" height="3.94228" fill="#003DA5"/>
<rect x="202.775" y="90.3359" width="3.94228" height="3.94228" fill="#003DA5"/>
<rect x="315.006" y="90.3359" width="3.94228" height="3.94228" fill="#003DA5"/>
<rect x="225.222" y="90.3359" width="3.94228" height="3.94228" fill="#003DA5"/>
<rect x="247.668" y="90.3359" width="3.94228" height="3.94228" fill="#003DA5"/>
<rect x="270.114" y="90.3359" width="3.94228" height="3.94228" fill="#003DA5"/>
<rect x="292.561" y="90.3359" width="3.94228" height="3.94228" fill="#003DA5"/>
<rect x="336.396" y="90.3359" width="3.94228" height="3.94228" fill="#003DA5"/>
<rect x="357.786" y="90.3359" width="3.94228" height="3.94228" fill="#003DA5"/>
<rect x="379.177" y="90.3359" width="3.94228" height="3.94228" fill="#003DA5"/>
<rect x="400.566" y="90.3359" width="3.94228" height="3.94228" fill="#003DA5"/>
<rect x="421.956" y="90.3359" width="3.94228" height="3.94228" fill="#003DA5"/>
<rect x="443.347" y="90.3359" width="3.94228" height="3.94228" fill="#003DA5"/>
<rect x="464.736" y="90.3359" width="3.94228" height="3.94228" fill="#003DA5"/>
<rect x="486.126" y="90.3359" width="3.94228" height="3.94228" fill="#003DA5"/>
<rect x="507.517" y="90.3359" width="3.94228" height="3.94228" fill="#003DA5"/>
<rect x="528.906" y="90.3359" width="3.94228" height="3.94228" fill="#003DA5"/>
<rect x="0.760742" y="112.782" width="3.94228" height="3.94228" fill="#003DA5"/>
<rect x="23.207" y="112.782" width="3.94228" height="3.94228" fill="#003DA5"/>
<rect x="45.6523" y="112.782" width="3.94228" height="3.94228" fill="#003DA5"/>
<rect x="68.0996" y="112.782" width="3.94228" height="3.94228" fill="#003DA5"/>
<rect x="90.5449" y="112.782" width="3.94228" height="3.94228" fill="#003DA5"/>
<rect x="112.991" y="112.782" width="3.94228" height="3.94228" fill="#003DA5"/>
<rect x="135.438" y="112.782" width="3.94228" height="3.94228" fill="#003DA5"/>
<rect x="157.883" y="112.782" width="3.94228" height="3.94228" fill="#003DA5"/>
<rect x="180.33" y="112.782" width="3.94228" height="3.94228" fill="#003DA5"/>
<rect x="315.006" y="112.782" width="3.94228" height="3.94228" fill="#003DA5"/>
<rect x="202.775" y="112.782" width="3.94228" height="3.94228" fill="#003DA5"/>
<rect x="225.222" y="112.782" width="3.94228" height="3.94228" fill="#003DA5"/>
<rect x="247.668" y="112.782" width="3.94228" height="3.94228" fill="#003DA5"/>
<rect x="270.114" y="112.782" width="3.94228" height="3.94228" fill="#003DA5"/>
<rect x="292.561" y="112.782" width="3.94228" height="3.94228" fill="#003DA5"/>
<rect x="336.396" y="112.782" width="3.94228" height="3.94228" fill="#003DA5"/>
<rect x="357.786" y="112.782" width="3.94228" height="3.94228" fill="#003DA5"/>
<rect x="379.177" y="112.782" width="3.94228" height="3.94228" fill="#003DA5"/>
<rect x="400.566" y="112.782" width="3.94228" height="3.94228" fill="#003DA5"/>
<rect x="421.956" y="112.782" width="3.94228" height="3.94228" fill="#003DA5"/>
<rect x="443.347" y="112.782" width="3.94228" height="3.94228" fill="#003DA5"/>
<rect x="464.736" y="112.782" width="3.94228" height="3.94228" fill="#003DA5"/>
<rect x="486.126" y="112.782" width="3.94228" height="3.94228" fill="#003DA5"/>
<rect x="507.517" y="112.782" width="3.94228" height="3.94228" fill="#003DA5"/>
<rect x="528.906" y="112.782" width="3.94228" height="3.94228" fill="#003DA5"/>
<rect x="0.760742" y="135.228" width="3.94228" height="3.94228" fill="#003DA5"/>
<rect x="23.207" y="135.228" width="3.94228" height="3.94228" fill="#003DA5"/>
<rect x="45.6523" y="135.228" width="3.94228" height="3.94228" fill="#003DA5"/>
<rect x="68.0996" y="135.228" width="3.94228" height="3.94228" fill="#003DA5"/>
<rect x="90.5449" y="135.228" width="3.94228" height="3.94228" fill="#003DA5"/>
<rect x="112.991" y="135.228" width="3.94228" height="3.94228" fill="#003DA5"/>
<rect x="135.438" y="135.228" width="3.94228" height="3.94228" fill="#003DA5"/>
<rect x="157.883" y="135.228" width="3.94228" height="3.94228" fill="#003DA5"/>
<rect x="315.006" y="135.228" width="3.94228" height="3.94228" fill="#003DA5"/>
<rect x="180.33" y="135.228" width="3.94228" height="3.94228" fill="#003DA5"/>
<rect x="202.775" y="135.228" width="3.94228" height="3.94228" fill="#003DA5"/>
<rect x="225.222" y="135.228" width="3.94228" height="3.94228" fill="#003DA5"/>
<rect x="247.668" y="135.228" width="3.94228" height="3.94228" fill="#003DA5"/>
<rect x="270.114" y="135.228" width="3.94228" height="3.94228" fill="#003DA5"/>
<rect x="292.561" y="135.228" width="3.94228" height="3.94228" fill="#003DA5"/>
<rect x="336.396" y="135.228" width="3.94228" height="3.94228" fill="#003DA5"/>
<rect x="357.786" y="135.228" width="3.94228" height="3.94228" fill="#003DA5"/>
<rect x="379.177" y="135.228" width="3.94228" height="3.94228" fill="#003DA5"/>
<rect x="400.566" y="135.228" width="3.94228" height="3.94228" fill="#003DA5"/>
<rect x="421.956" y="135.228" width="3.94228" height="3.94228" fill="#003DA5"/>
<rect x="443.347" y="135.228" width="3.94228" height="3.94228" fill="#003DA5"/>
<rect x="464.736" y="135.228" width="3.94228" height="3.94228" fill="#003DA5"/>
<rect x="528.906" y="135.228" width="3.94228" height="3.94228" fill="#003DA5"/>
<rect x="0.760742" y="157.674" width="3.94228" height="3.94228" fill="#003DA5"/>
<rect x="23.207" y="157.674" width="3.94228" height="3.94228" fill="#003DA5"/>
<rect x="45.6523" y="157.674" width="3.94228" height="3.94228" fill="#003DA5"/>
<rect x="68.0996" y="157.674" width="3.94228" height="3.94228" fill="#003DA5"/>
<rect x="90.5449" y="157.674" width="3.94228" height="3.94228" fill="#003DA5"/>
<rect x="112.991" y="157.674" width="3.94228" height="3.94228" fill="#003DA5"/>
<rect x="135.438" y="157.674" width="3.94228" height="3.94228" fill="#003DA5"/>
<rect x="315.006" y="157.674" width="3.94228" height="3.94228" fill="#003DA5"/>
<rect x="157.883" y="157.674" width="3.94228" height="3.94228" fill="#003DA5"/>
<rect x="180.33" y="157.674" width="3.94228" height="3.94228" fill="#003DA5"/>
<rect x="202.775" y="157.674" width="3.94228" height="3.94228" fill="#003DA5"/>
<rect x="225.222" y="157.674" width="3.94228" height="3.94228" fill="#003DA5"/>
<rect x="247.668" y="157.674" width="3.94228" height="3.94228" fill="#003DA5"/>
<rect x="270.114" y="157.674" width="3.94228" height="3.94228" fill="#003DA5"/>
<rect x="292.561" y="157.674" width="3.94228" height="3.94228" fill="#003DA5"/>
<rect x="336.396" y="157.674" width="3.94228" height="3.94228" fill="#003DA5"/>
<rect x="357.786" y="157.674" width="3.94228" height="3.94228" fill="#003DA5"/>
<rect x="379.177" y="157.674" width="3.94228" height="3.94228" fill="#003DA5"/>
<rect x="400.566" y="157.674" width="3.94228" height="3.94228" fill="#003DA5"/>
<rect x="421.956" y="157.674" width="3.94228" height="3.94228" fill="#003DA5"/>
<rect x="443.347" y="157.674" width="3.94228" height="3.94228" fill="#003DA5"/>
<rect x="464.736" y="157.674" width="3.94228" height="3.94228" fill="#003DA5"/>
<rect x="528.906" y="157.674" width="3.94228" height="3.94228" fill="#003DA5"/>
<rect x="0.760742" y="180.12" width="3.94228" height="3.94228" fill="#003DA5"/>
<rect x="23.207" y="180.12" width="3.94228" height="3.94228" fill="#003DA5"/>
<rect x="45.6523" y="180.12" width="3.94228" height="3.94228" fill="#003DA5"/>
<rect x="68.0996" y="180.12" width="3.94228" height="3.94228" fill="#003DA5"/>
<rect x="90.5449" y="180.12" width="3.94228" height="3.94228" fill="#003DA5"/>
<rect x="112.991" y="180.12" width="3.94228" height="3.94228" fill="#003DA5"/>
<rect x="315.006" y="180.12" width="3.94228" height="3.94228" fill="#003DA5"/>
<rect x="135.438" y="180.12" width="3.94228" height="3.94228" fill="#003DA5"/>
<rect x="157.883" y="180.12" width="3.94228" height="3.94228" fill="#003DA5"/>
<rect x="180.33" y="180.12" width="3.94228" height="3.94228" fill="#003DA5"/>
<rect x="202.775" y="180.12" width="3.94228" height="3.94228" fill="#003DA5"/>
<rect x="225.222" y="180.12" width="3.94228" height="3.94228" fill="#003DA5"/>
<rect x="247.668" y="180.12" width="3.94228" height="3.94228" fill="#003DA5"/>
<rect x="270.114" y="180.12" width="3.94228" height="3.94228" fill="#003DA5"/>
<rect x="292.561" y="180.12" width="3.94228" height="3.94228" fill="#003DA5"/>
<rect x="336.396" y="180.12" width="3.94228" height="3.94228" fill="#003DA5"/>
<rect x="357.786" y="180.12" width="3.94228" height="3.94228" fill="#003DA5"/>
<rect x="379.177" y="180.12" width="3.94228" height="3.94228" fill="#003DA5"/>
<rect x="400.566" y="180.12" width="3.94228" height="3.94228" fill="#003DA5"/>
<rect x="421.956" y="180.12" width="3.94228" height="3.94228" fill="#003DA5"/>
<rect x="443.347" y="180.12" width="3.94228" height="3.94228" fill="#003DA5"/>
<rect x="464.736" y="180.12" width="3.94228" height="3.94228" fill="#003DA5"/>
<rect x="486.126" y="180.12" width="3.94228" height="3.94228" fill="#003DA5"/>
<rect x="507.517" y="180.12" width="3.94228" height="3.94228" fill="#003DA5"/>
<rect x="528.906" y="180.12" width="3.94228" height="3.94228" fill="#003DA5"/>
<path d="M140.49 94.8896L150.813 67.9166H154.513L144.227 94.8896H140.49Z" fill="#003DA5"/>
<path d="M506.588 157.805L488.199 150.405V147.297L506.588 139.86V143.301L492.38 148.666V148.962L506.588 154.29V157.805Z" fill="#003DA5"/>
</svg>
