<svg width="534" height="185" viewBox="0 0 534 185" fill="none" xmlns="http://www.w3.org/2000/svg">
<rect x="0.931152" y="0.594208" width="3.94228" height="3.94228" fill="#B9E7FF"/>
<rect x="23.3774" y="0.594208" width="3.94228" height="3.94228" fill="#B9E7FF"/>
<rect x="45.8232" y="0.594208" width="3.94228" height="3.94228" fill="#B9E7FF"/>
<rect x="68.2695" y="0.594208" width="3.94228" height="3.94228" fill="#B9E7FF"/>
<rect x="90.7153" y="0.594208" width="3.94228" height="3.94228" fill="#B9E7FF"/>
<rect x="113.162" y="0.594208" width="3.94228" height="3.94228" fill="#B9E7FF"/>
<rect x="135.608" y="0.594208" width="3.94228" height="3.94228" fill="#B9E7FF"/>
<rect x="158.054" y="0.594208" width="3.94228" height="3.94228" fill="#B9E7FF"/>
<rect x="180.5" y="0.594208" width="3.94228" height="3.94228" fill="#B9E7FF"/>
<rect x="202.946" y="0.594208" width="3.94228" height="3.94228" fill="#B9E7FF"/>
<rect x="225.392" y="0.594208" width="3.94228" height="3.94228" fill="#B9E7FF"/>
<rect x="247.838" y="0.594208" width="3.94228" height="3.94228" fill="#B9E7FF"/>
<rect x="270.285" y="0.594208" width="3.94228" height="3.94228" fill="#B9E7FF"/>
<rect x="292.73" y="0.594208" width="3.94228" height="3.94228" fill="#B9E7FF"/>
<rect x="315.176" y="0.594208" width="3.94228" height="3.94228" fill="#B9E7FF"/>
<rect x="336.566" y="0.594208" width="3.94228" height="3.94228" fill="#B9E7FF"/>
<rect x="357.957" y="0.594208" width="3.94228" height="3.94228" fill="#B9E7FF"/>
<rect x="379.347" y="0.594208" width="3.94228" height="3.94228" fill="#B9E7FF"/>
<rect x="400.737" y="0.594208" width="3.94228" height="3.94228" fill="#B9E7FF"/>
<rect x="422.126" y="0.594208" width="3.94228" height="3.94228" fill="#B9E7FF"/>
<rect x="443.517" y="0.594208" width="3.94228" height="3.94228" fill="#B9E7FF"/>
<rect x="464.907" y="0.594208" width="3.94228" height="3.94228" fill="#B9E7FF"/>
<rect x="486.296" y="0.594208" width="3.94228" height="3.94228" fill="#B9E7FF"/>
<rect x="507.687" y="0.594208" width="3.94228" height="3.94228" fill="#B9E7FF"/>
<rect x="529.077" y="0.594208" width="3.94228" height="3.94228" fill="#B9E7FF"/>
<rect x="0.931152" y="23.0403" width="3.94228" height="3.94228" fill="#B9E7FF"/>
<rect x="23.3774" y="23.0403" width="3.94228" height="3.94228" fill="#B9E7FF"/>
<rect x="45.8232" y="23.0403" width="3.94228" height="3.94228" fill="#B9E7FF"/>
<rect x="68.2695" y="23.0403" width="3.94228" height="3.94228" fill="#B9E7FF"/>
<rect x="90.7153" y="23.0403" width="3.94228" height="3.94228" fill="#B9E7FF"/>
<rect x="113.162" y="23.0403" width="3.94228" height="3.94228" fill="#B9E7FF"/>
<rect x="135.608" y="23.0403" width="3.94228" height="3.94228" fill="#B9E7FF"/>
<rect x="158.054" y="23.0403" width="3.94228" height="3.94228" fill="#B9E7FF"/>
<rect x="180.5" y="23.0403" width="3.94228" height="3.94228" fill="#B9E7FF"/>
<rect x="202.946" y="23.0403" width="3.94228" height="3.94228" fill="#B9E7FF"/>
<rect x="225.392" y="23.0403" width="3.94228" height="3.94228" fill="#B9E7FF"/>
<rect x="247.838" y="23.0403" width="3.94228" height="3.94228" fill="#B9E7FF"/>
<rect x="270.285" y="23.0403" width="3.94228" height="3.94228" fill="#B9E7FF"/>
<rect x="315.176" y="23.0403" width="3.94228" height="3.94228" fill="#B9E7FF"/>
<rect x="292.73" y="23.0403" width="3.94228" height="3.94228" fill="#B9E7FF"/>
<rect x="336.566" y="23.0403" width="3.94228" height="3.94228" fill="#B9E7FF"/>
<rect x="357.957" y="23.0403" width="3.94228" height="3.94228" fill="#B9E7FF"/>
<rect x="379.347" y="23.0403" width="3.94228" height="3.94228" fill="#B9E7FF"/>
<rect x="400.737" y="23.0403" width="3.94228" height="3.94228" fill="#B9E7FF"/>
<rect x="422.126" y="23.0403" width="3.94228" height="3.94228" fill="#B9E7FF"/>
<rect x="443.517" y="23.0403" width="3.94228" height="3.94228" fill="#B9E7FF"/>
<rect x="464.907" y="23.0403" width="3.94228" height="3.94228" fill="#B9E7FF"/>
<rect x="486.296" y="23.0403" width="3.94228" height="3.94228" fill="#B9E7FF"/>
<rect x="507.687" y="23.0403" width="3.94228" height="3.94228" fill="#B9E7FF"/>
<rect x="529.077" y="23.0403" width="3.94228" height="3.94228" fill="#B9E7FF"/>
<rect x="0.931152" y="45.4864" width="3.94228" height="3.94228" fill="#B9E7FF"/>
<rect x="23.3774" y="45.4864" width="3.94228" height="3.94228" fill="#B9E7FF"/>
<rect x="45.8232" y="45.4864" width="3.94228" height="3.94228" fill="#B9E7FF"/>
<rect x="68.2695" y="45.4864" width="3.94228" height="3.94228" fill="#B9E7FF"/>
<rect x="90.7153" y="45.4864" width="3.94228" height="3.94228" fill="#B9E7FF"/>
<rect x="113.162" y="45.4864" width="3.94228" height="3.94228" fill="#B9E7FF"/>
<rect x="135.608" y="45.4864" width="3.94228" height="3.94228" fill="#B9E7FF"/>
<rect x="158.054" y="45.4864" width="3.94228" height="3.94228" fill="#B9E7FF"/>
<rect x="180.5" y="45.4864" width="3.94228" height="3.94228" fill="#B9E7FF"/>
<rect x="202.946" y="45.4864" width="3.94228" height="3.94228" fill="#B9E7FF"/>
<rect x="225.392" y="45.4864" width="3.94228" height="3.94228" fill="#B9E7FF"/>
<rect x="247.838" y="45.4864" width="3.94228" height="3.94228" fill="#B9E7FF"/>
<rect x="315.176" y="45.4864" width="3.94228" height="3.94228" fill="#B9E7FF"/>
<rect x="270.285" y="45.4864" width="3.94228" height="3.94228" fill="#B9E7FF"/>
<rect x="292.73" y="45.4864" width="3.94228" height="3.94228" fill="#B9E7FF"/>
<rect x="336.566" y="45.4864" width="3.94228" height="3.94228" fill="#B9E7FF"/>
<rect x="357.957" y="45.4864" width="3.94228" height="3.94228" fill="#B9E7FF"/>
<rect x="379.347" y="45.4864" width="3.94228" height="3.94228" fill="#B9E7FF"/>
<rect x="400.737" y="45.4864" width="3.94228" height="3.94228" fill="#B9E7FF"/>
<rect x="422.126" y="45.4864" width="3.94228" height="3.94228" fill="#B9E7FF"/>
<rect x="443.517" y="45.4864" width="3.94228" height="3.94228" fill="#B9E7FF"/>
<rect x="464.907" y="45.4864" width="3.94228" height="3.94228" fill="#B9E7FF"/>
<rect x="486.296" y="45.4864" width="3.94228" height="3.94228" fill="#B9E7FF"/>
<rect x="507.687" y="45.4864" width="3.94228" height="3.94228" fill="#B9E7FF"/>
<rect x="529.077" y="45.4864" width="3.94228" height="3.94228" fill="#B9E7FF"/>
<rect x="0.931152" y="67.9325" width="3.94228" height="3.94228" fill="#B9E7FF"/>
<rect x="23.3774" y="67.9325" width="3.94228" height="3.94228" fill="#B9E7FF"/>
<rect x="45.8232" y="67.9325" width="3.94228" height="3.94228" fill="#B9E7FF"/>
<rect x="68.2695" y="67.9325" width="3.94228" height="3.94228" fill="#B9E7FF"/>
<rect x="90.7153" y="67.9325" width="3.94228" height="3.94228" fill="#B9E7FF"/>
<rect x="113.162" y="67.9325" width="3.94228" height="3.94228" fill="#B9E7FF"/>
<rect x="180.5" y="67.9325" width="3.94228" height="3.94228" fill="#B9E7FF"/>
<rect x="202.946" y="67.9325" width="3.94228" height="3.94228" fill="#B9E7FF"/>
<rect x="225.392" y="67.9325" width="3.94228" height="3.94228" fill="#B9E7FF"/>
<rect x="315.176" y="67.9325" width="3.94228" height="3.94228" fill="#B9E7FF"/>
<rect x="247.838" y="67.9325" width="3.94228" height="3.94228" fill="#B9E7FF"/>
<rect x="270.285" y="67.9325" width="3.94228" height="3.94228" fill="#B9E7FF"/>
<rect x="292.73" y="67.9325" width="3.94228" height="3.94228" fill="#B9E7FF"/>
<rect x="336.566" y="67.9325" width="3.94228" height="3.94228" fill="#B9E7FF"/>
<rect x="357.957" y="67.9325" width="3.94228" height="3.94228" fill="#B9E7FF"/>
<rect x="379.347" y="67.9325" width="3.94228" height="3.94228" fill="#B9E7FF"/>
<rect x="400.737" y="67.9325" width="3.94228" height="3.94228" fill="#B9E7FF"/>
<rect x="422.126" y="67.9325" width="3.94228" height="3.94228" fill="#B9E7FF"/>
<rect x="443.517" y="67.9325" width="3.94228" height="3.94228" fill="#B9E7FF"/>
<rect x="486.296" y="67.9325" width="3.94228" height="3.94228" fill="#B9E7FF"/>
<rect x="464.907" y="67.9325" width="3.94228" height="3.94228" fill="#B9E7FF"/>
<rect x="507.687" y="67.9325" width="3.94228" height="3.94228" fill="#B9E7FF"/>
<rect x="529.077" y="67.9325" width="3.94228" height="3.94228" fill="#B9E7FF"/>
<rect x="0.931152" y="90.3786" width="3.94228" height="3.94228" fill="#B9E7FF"/>
<rect x="23.3774" y="90.3786" width="3.94228" height="3.94228" fill="#B9E7FF"/>
<rect x="45.8232" y="90.3786" width="3.94228" height="3.94228" fill="#B9E7FF"/>
<rect x="68.2695" y="90.3786" width="3.94228" height="3.94228" fill="#B9E7FF"/>
<rect x="90.7153" y="90.3786" width="3.94228" height="3.94228" fill="#B9E7FF"/>
<rect x="113.162" y="90.3786" width="3.94228" height="3.94228" fill="#B9E7FF"/>
<rect x="180.5" y="90.3786" width="3.94228" height="3.94228" fill="#B9E7FF"/>
<rect x="202.946" y="90.3786" width="3.94228" height="3.94228" fill="#B9E7FF"/>
<rect x="315.176" y="90.3786" width="3.94228" height="3.94228" fill="#B9E7FF"/>
<rect x="225.392" y="90.3786" width="3.94228" height="3.94228" fill="#B9E7FF"/>
<rect x="247.838" y="90.3786" width="3.94228" height="3.94228" fill="#B9E7FF"/>
<rect x="270.285" y="90.3786" width="3.94228" height="3.94228" fill="#B9E7FF"/>
<rect x="292.73" y="90.3786" width="3.94228" height="3.94228" fill="#B9E7FF"/>
<rect x="336.566" y="90.3786" width="3.94228" height="3.94228" fill="#B9E7FF"/>
<rect x="357.957" y="90.3786" width="3.94228" height="3.94228" fill="#B9E7FF"/>
<rect x="379.347" y="90.3786" width="3.94228" height="3.94228" fill="#B9E7FF"/>
<rect x="400.737" y="90.3786" width="3.94228" height="3.94228" fill="#B9E7FF"/>
<rect x="422.126" y="90.3786" width="3.94228" height="3.94228" fill="#B9E7FF"/>
<rect x="443.517" y="90.3786" width="3.94228" height="3.94228" fill="#B9E7FF"/>
<rect x="464.907" y="90.3786" width="3.94228" height="3.94228" fill="#B9E7FF"/>
<rect x="486.296" y="90.3786" width="3.94228" height="3.94228" fill="#B9E7FF"/>
<rect x="507.687" y="90.3786" width="3.94228" height="3.94228" fill="#B9E7FF"/>
<rect x="529.077" y="90.3786" width="3.94228" height="3.94228" fill="#B9E7FF"/>
<rect x="0.931152" y="112.825" width="3.94228" height="3.94228" fill="#B9E7FF"/>
<rect x="23.3774" y="112.825" width="3.94228" height="3.94228" fill="#B9E7FF"/>
<rect x="45.8232" y="112.825" width="3.94228" height="3.94228" fill="#B9E7FF"/>
<rect x="68.2695" y="112.825" width="3.94228" height="3.94228" fill="#B9E7FF"/>
<rect x="90.7153" y="112.825" width="3.94228" height="3.94228" fill="#B9E7FF"/>
<rect x="113.162" y="112.825" width="3.94228" height="3.94228" fill="#B9E7FF"/>
<rect x="135.608" y="112.825" width="3.94228" height="3.94228" fill="#B9E7FF"/>
<rect x="158.054" y="112.825" width="3.94228" height="3.94228" fill="#B9E7FF"/>
<rect x="180.5" y="112.825" width="3.94228" height="3.94228" fill="#B9E7FF"/>
<rect x="315.176" y="112.825" width="3.94228" height="3.94228" fill="#B9E7FF"/>
<rect x="202.946" y="112.825" width="3.94228" height="3.94228" fill="#B9E7FF"/>
<rect x="225.392" y="112.825" width="3.94228" height="3.94228" fill="#B9E7FF"/>
<rect x="247.838" y="112.825" width="3.94228" height="3.94228" fill="#B9E7FF"/>
<rect x="270.285" y="112.825" width="3.94228" height="3.94228" fill="#B9E7FF"/>
<rect x="292.73" y="112.825" width="3.94228" height="3.94228" fill="#B9E7FF"/>
<rect x="336.566" y="112.825" width="3.94228" height="3.94228" fill="#B9E7FF"/>
<rect x="357.957" y="112.825" width="3.94228" height="3.94228" fill="#B9E7FF"/>
<rect x="379.347" y="112.825" width="3.94228" height="3.94228" fill="#B9E7FF"/>
<rect x="400.737" y="112.825" width="3.94228" height="3.94228" fill="#B9E7FF"/>
<rect x="422.126" y="112.825" width="3.94228" height="3.94228" fill="#B9E7FF"/>
<rect x="443.517" y="112.825" width="3.94228" height="3.94228" fill="#B9E7FF"/>
<rect x="464.907" y="112.825" width="3.94228" height="3.94228" fill="#B9E7FF"/>
<rect x="486.296" y="112.825" width="3.94228" height="3.94228" fill="#B9E7FF"/>
<rect x="507.687" y="112.825" width="3.94228" height="3.94228" fill="#B9E7FF"/>
<rect x="529.077" y="112.825" width="3.94228" height="3.94228" fill="#B9E7FF"/>
<rect x="0.931152" y="135.271" width="3.94228" height="3.94228" fill="#B9E7FF"/>
<rect x="23.3774" y="135.271" width="3.94228" height="3.94228" fill="#B9E7FF"/>
<rect x="45.8232" y="135.271" width="3.94228" height="3.94228" fill="#B9E7FF"/>
<rect x="68.2695" y="135.271" width="3.94228" height="3.94228" fill="#B9E7FF"/>
<rect x="90.7153" y="135.271" width="3.94228" height="3.94228" fill="#B9E7FF"/>
<rect x="113.162" y="135.271" width="3.94228" height="3.94228" fill="#B9E7FF"/>
<rect x="135.608" y="135.271" width="3.94228" height="3.94228" fill="#B9E7FF"/>
<rect x="158.054" y="135.271" width="3.94228" height="3.94228" fill="#B9E7FF"/>
<rect x="315.176" y="135.271" width="3.94228" height="3.94228" fill="#B9E7FF"/>
<rect x="180.5" y="135.271" width="3.94228" height="3.94228" fill="#B9E7FF"/>
<rect x="202.946" y="135.271" width="3.94228" height="3.94228" fill="#B9E7FF"/>
<rect x="225.392" y="135.271" width="3.94228" height="3.94228" fill="#B9E7FF"/>
<rect x="247.838" y="135.271" width="3.94228" height="3.94228" fill="#B9E7FF"/>
<rect x="270.285" y="135.271" width="3.94228" height="3.94228" fill="#B9E7FF"/>
<rect x="292.73" y="135.271" width="3.94228" height="3.94228" fill="#B9E7FF"/>
<rect x="336.566" y="135.271" width="3.94228" height="3.94228" fill="#B9E7FF"/>
<rect x="357.957" y="135.271" width="3.94228" height="3.94228" fill="#B9E7FF"/>
<rect x="379.347" y="135.271" width="3.94228" height="3.94228" fill="#B9E7FF"/>
<rect x="400.737" y="135.271" width="3.94228" height="3.94228" fill="#B9E7FF"/>
<rect x="422.126" y="135.271" width="3.94228" height="3.94228" fill="#B9E7FF"/>
<rect x="443.517" y="135.271" width="3.94228" height="3.94228" fill="#B9E7FF"/>
<rect x="464.907" y="135.271" width="3.94228" height="3.94228" fill="#B9E7FF"/>
<rect x="529.077" y="135.271" width="3.94228" height="3.94228" fill="#B9E7FF"/>
<rect x="0.931152" y="157.717" width="3.94228" height="3.94228" fill="#B9E7FF"/>
<rect x="23.3774" y="157.717" width="3.94228" height="3.94228" fill="#B9E7FF"/>
<rect x="45.8232" y="157.717" width="3.94228" height="3.94228" fill="#B9E7FF"/>
<rect x="68.2695" y="157.717" width="3.94228" height="3.94228" fill="#B9E7FF"/>
<rect x="90.7153" y="157.717" width="3.94228" height="3.94228" fill="#B9E7FF"/>
<rect x="113.162" y="157.717" width="3.94228" height="3.94228" fill="#B9E7FF"/>
<rect x="135.608" y="157.717" width="3.94228" height="3.94228" fill="#B9E7FF"/>
<rect x="315.176" y="157.717" width="3.94228" height="3.94228" fill="#B9E7FF"/>
<rect x="158.054" y="157.717" width="3.94228" height="3.94228" fill="#B9E7FF"/>
<rect x="180.5" y="157.717" width="3.94228" height="3.94228" fill="#B9E7FF"/>
<rect x="202.946" y="157.717" width="3.94228" height="3.94228" fill="#B9E7FF"/>
<rect x="225.392" y="157.717" width="3.94228" height="3.94228" fill="#B9E7FF"/>
<rect x="247.838" y="157.717" width="3.94228" height="3.94228" fill="#B9E7FF"/>
<rect x="270.285" y="157.717" width="3.94228" height="3.94228" fill="#B9E7FF"/>
<rect x="292.73" y="157.717" width="3.94228" height="3.94228" fill="#B9E7FF"/>
<rect x="336.566" y="157.717" width="3.94228" height="3.94228" fill="#B9E7FF"/>
<rect x="357.957" y="157.717" width="3.94228" height="3.94228" fill="#B9E7FF"/>
<rect x="379.347" y="157.717" width="3.94228" height="3.94228" fill="#B9E7FF"/>
<rect x="400.737" y="157.717" width="3.94228" height="3.94228" fill="#B9E7FF"/>
<rect x="422.126" y="157.717" width="3.94228" height="3.94228" fill="#B9E7FF"/>
<rect x="443.517" y="157.717" width="3.94228" height="3.94228" fill="#B9E7FF"/>
<rect x="464.907" y="157.717" width="3.94228" height="3.94228" fill="#B9E7FF"/>
<rect x="529.077" y="157.717" width="3.94228" height="3.94228" fill="#B9E7FF"/>
<rect x="0.931152" y="180.163" width="3.94228" height="3.94228" fill="#B9E7FF"/>
<rect x="23.3774" y="180.163" width="3.94228" height="3.94228" fill="#B9E7FF"/>
<rect x="45.8232" y="180.163" width="3.94228" height="3.94228" fill="#B9E7FF"/>
<rect x="68.2695" y="180.163" width="3.94228" height="3.94228" fill="#B9E7FF"/>
<rect x="90.7153" y="180.163" width="3.94228" height="3.94228" fill="#B9E7FF"/>
<rect x="113.162" y="180.163" width="3.94228" height="3.94228" fill="#B9E7FF"/>
<rect x="315.176" y="180.163" width="3.94228" height="3.94228" fill="#B9E7FF"/>
<rect x="135.608" y="180.163" width="3.94228" height="3.94228" fill="#B9E7FF"/>
<rect x="158.054" y="180.163" width="3.94228" height="3.94228" fill="#B9E7FF"/>
<rect x="180.5" y="180.163" width="3.94228" height="3.94228" fill="#B9E7FF"/>
<rect x="202.946" y="180.163" width="3.94228" height="3.94228" fill="#B9E7FF"/>
<rect x="225.392" y="180.163" width="3.94228" height="3.94228" fill="#B9E7FF"/>
<rect x="247.838" y="180.163" width="3.94228" height="3.94228" fill="#B9E7FF"/>
<rect x="270.285" y="180.163" width="3.94228" height="3.94228" fill="#B9E7FF"/>
<rect x="292.73" y="180.163" width="3.94228" height="3.94228" fill="#B9E7FF"/>
<rect x="336.566" y="180.163" width="3.94228" height="3.94228" fill="#B9E7FF"/>
<rect x="357.957" y="180.163" width="3.94228" height="3.94228" fill="#B9E7FF"/>
<rect x="379.347" y="180.163" width="3.94228" height="3.94228" fill="#B9E7FF"/>
<rect x="400.737" y="180.163" width="3.94228" height="3.94228" fill="#B9E7FF"/>
<rect x="422.126" y="180.163" width="3.94228" height="3.94228" fill="#B9E7FF"/>
<rect x="443.517" y="180.163" width="3.94228" height="3.94228" fill="#B9E7FF"/>
<rect x="464.907" y="180.163" width="3.94228" height="3.94228" fill="#B9E7FF"/>
<rect x="486.296" y="180.163" width="3.94228" height="3.94228" fill="#B9E7FF"/>
<rect x="507.687" y="180.163" width="3.94228" height="3.94228" fill="#B9E7FF"/>
<rect x="529.077" y="180.163" width="3.94228" height="3.94228" fill="#B9E7FF"/>
<path d="M140.66 94.9325L150.983 67.9595H154.683L144.397 94.9325H140.66Z" fill="#B9E7FF"/>
<path d="M506.758 157.848L488.369 150.448V147.34L506.758 139.903V143.344L492.55 148.709V149.005L506.758 154.333V157.848Z" fill="#B9E7FF"/>
</svg>
