<svg width="318.19048" height="273.29787999999996" viewBox="0 0 318.19048 273.29787999999996" xmlns="http://www.w3.org/2000/svg">
  <rect x="0.0" y="0.0" width="3.94228" height="3.94228" fill="#003DA5"/>
  <rect x="22.4463" y="0.0" width="3.94228" height="3.94228" fill="#003DA5"/>
  <rect x="44.8926" y="0.0" width="3.94228" height="3.94228" fill="#003DA5"/>
  <rect x="67.3389" y="0.0" width="3.94228" height="3.94228" fill="#003DA5"/>
  <rect x="89.7852" y="0.0" width="3.94228" height="3.94228" fill="#003DA5"/>
  <rect x="112.23150000000001" y="0.0" width="3.94228" height="3.94228" fill="#003DA5"/>
  <rect x="134.6778" y="0.0" width="3.94228" height="3.94228" fill="#003DA5"/>
  <rect x="157.1241" y="0.0" width="3.94228" height="3.94228" fill="#003DA5"/>
  <rect x="179.5704" y="0.0" width="3.94228" height="3.94228" fill="#003DA5"/>
  <rect x="202.01670000000001" y="0.0" width="3.94228" height="3.94228" fill="#003DA5"/>
  <rect x="224.46300000000002" y="0.0" width="3.94228" height="3.94228" fill="#003DA5"/>
  <rect x="246.9093" y="0.0" width="3.94228" height="3.94228" fill="#003DA5"/>
  <rect x="269.3556" y="0.0" width="3.94228" height="3.94228" fill="#003DA5"/>
  <rect x="291.8019" y="0.0" width="3.94228" height="3.94228" fill="#003DA5"/>
  <rect x="314.2482" y="0.0" width="3.94228" height="3.94228" fill="#003DA5"/>
  <rect x="0.0" y="22.4463" width="3.94228" height="3.94228" fill="#003DA5"/>
  <rect x="22.4463" y="22.4463" width="3.94228" height="3.94228" fill="#003DA5"/>
  <rect x="44.8926" y="22.4463" width="3.94228" height="3.94228" fill="#003DA5"/>
  <rect x="67.3389" y="22.4463" width="3.94228" height="3.94228" fill="#003DA5"/>
  <rect x="89.7852" y="22.4463" width="3.94228" height="3.94228" fill="#003DA5"/>
  <rect x="112.23150000000001" y="22.4463" width="3.94228" height="3.94228" fill="#003DA5"/>
  <rect x="134.6778" y="22.4463" width="3.94228" height="3.94228" fill="#003DA5"/>
  <rect x="157.1241" y="22.4463" width="3.94228" height="3.94228" fill="#003DA5"/>
  <rect x="179.5704" y="22.4463" width="3.94228" height="3.94228" fill="#003DA5"/>
  <rect x="202.01670000000001" y="22.4463" width="3.94228" height="3.94228" fill="#003DA5"/>
  <rect x="224.46300000000002" y="22.4463" width="3.94228" height="3.94228" fill="#003DA5"/>
  <rect x="246.9093" y="22.4463" width="3.94228" height="3.94228" fill="#003DA5"/>
  <rect x="269.3556" y="22.4463" width="3.94228" height="3.94228" fill="#003DA5"/>
  <rect x="291.8019" y="22.4463" width="3.94228" height="3.94228" fill="#003DA5"/>
  <rect x="314.2482" y="22.4463" width="3.94228" height="3.94228" fill="#003DA5"/>
  <rect x="0.0" y="44.8926" width="3.94228" height="3.94228" fill="#003DA5"/>
  <rect x="22.4463" y="44.8926" width="3.94228" height="3.94228" fill="#003DA5"/>
  <rect x="44.8926" y="44.8926" width="3.94228" height="3.94228" fill="#003DA5"/>
  <rect x="67.3389" y="44.8926" width="3.94228" height="3.94228" fill="#003DA5"/>
  <rect x="89.7852" y="44.8926" width="3.94228" height="3.94228" fill="#003DA5"/>
  <rect x="112.23150000000001" y="44.8926" width="3.94228" height="3.94228" fill="#003DA5"/>
  <rect x="134.6778" y="44.8926" width="3.94228" height="3.94228" fill="#003DA5"/>
  <rect x="157.1241" y="44.8926" width="3.94228" height="3.94228" fill="#003DA5"/>
  <rect x="179.5704" y="44.8926" width="3.94228" height="3.94228" fill="#003DA5"/>
  <rect x="202.01670000000001" y="44.8926" width="3.94228" height="3.94228" fill="#003DA5"/>
  <rect x="224.46300000000002" y="44.8926" width="3.94228" height="3.94228" fill="#003DA5"/>
  <rect x="246.9093" y="44.8926" width="3.94228" height="3.94228" fill="#003DA5"/>
  <rect x="269.3556" y="44.8926" width="3.94228" height="3.94228" fill="#003DA5"/>
  <rect x="291.8019" y="44.8926" width="3.94228" height="3.94228" fill="#003DA5"/>
  <rect x="314.2482" y="44.8926" width="3.94228" height="3.94228" fill="#003DA5"/>
  <rect x="0.0" y="67.3389" width="3.94228" height="3.94228" fill="#003DA5"/>
  <rect x="22.4463" y="67.3389" width="3.94228" height="3.94228" fill="#003DA5"/>
  <rect x="44.8926" y="67.3389" width="3.94228" height="3.94228" fill="#003DA5"/>
  <rect x="67.3389" y="67.3389" width="3.94228" height="3.94228" fill="#003DA5"/>
  <rect x="89.7852" y="67.3389" width="3.94228" height="3.94228" fill="#003DA5"/>
  <rect x="112.23150000000001" y="67.3389" width="3.94228" height="3.94228" fill="#003DA5"/>
  <rect x="134.6778" y="67.3389" width="3.94228" height="3.94228" fill="#003DA5"/>
  <rect x="157.1241" y="67.3389" width="3.94228" height="3.94228" fill="#003DA5"/>
  <rect x="179.5704" y="67.3389" width="3.94228" height="3.94228" fill="#003DA5"/>
  <rect x="202.01670000000001" y="67.3389" width="3.94228" height="3.94228" fill="#003DA5"/>
  <rect x="224.46300000000002" y="67.3389" width="3.94228" height="3.94228" fill="#003DA5"/>
  <rect x="246.9093" y="67.3389" width="3.94228" height="3.94228" fill="#003DA5"/>
  <rect x="269.3556" y="67.3389" width="3.94228" height="3.94228" fill="#003DA5"/>
  <rect x="291.8019" y="67.3389" width="3.94228" height="3.94228" fill="#003DA5"/>
  <rect x="314.2482" y="67.3389" width="3.94228" height="3.94228" fill="#003DA5"/>
  <rect x="0.0" y="89.7852" width="3.94228" height="3.94228" fill="#003DA5"/>
  <rect x="22.4463" y="89.7852" width="3.94228" height="3.94228" fill="#003DA5"/>
  <rect x="44.8926" y="89.7852" width="3.94228" height="3.94228" fill="#003DA5"/>
  <rect x="67.3389" y="89.7852" width="3.94228" height="3.94228" fill="#003DA5"/>
  <rect x="89.7852" y="89.7852" width="3.94228" height="3.94228" fill="#003DA5"/>
  <rect x="112.23150000000001" y="89.7852" width="3.94228" height="3.94228" fill="#003DA5"/>
  <rect x="134.6778" y="89.7852" width="3.94228" height="3.94228" fill="#003DA5"/>
  <rect x="157.1241" y="89.7852" width="3.94228" height="3.94228" fill="#003DA5"/>
  <rect x="179.5704" y="89.7852" width="3.94228" height="3.94228" fill="#003DA5"/>
  <rect x="202.01670000000001" y="89.7852" width="3.94228" height="3.94228" fill="#003DA5"/>
  <rect x="224.46300000000002" y="89.7852" width="3.94228" height="3.94228" fill="#003DA5"/>
  <rect x="246.9093" y="89.7852" width="3.94228" height="3.94228" fill="#003DA5"/>
  <rect x="269.3556" y="89.7852" width="3.94228" height="3.94228" fill="#003DA5"/>
  <rect x="291.8019" y="89.7852" width="3.94228" height="3.94228" fill="#003DA5"/>
  <rect x="314.2482" y="89.7852" width="3.94228" height="3.94228" fill="#003DA5"/>
  <rect x="0.0" y="112.23150000000001" width="3.94228" height="3.94228" fill="#003DA5"/>
  <rect x="22.4463" y="112.23150000000001" width="3.94228" height="3.94228" fill="#003DA5"/>
  <rect x="44.8926" y="112.23150000000001" width="3.94228" height="3.94228" fill="#003DA5"/>
  <rect x="67.3389" y="112.23150000000001" width="3.94228" height="3.94228" fill="#003DA5"/>
  <rect x="89.7852" y="112.23150000000001" width="3.94228" height="3.94228" fill="#003DA5"/>
  <rect x="112.23150000000001" y="112.23150000000001" width="3.94228" height="3.94228" fill="#003DA5"/>
  <rect x="134.6778" y="112.23150000000001" width="3.94228" height="3.94228" fill="#003DA5"/>
  <rect x="157.1241" y="112.23150000000001" width="3.94228" height="3.94228" fill="#003DA5"/>
  <rect x="179.5704" y="112.23150000000001" width="3.94228" height="3.94228" fill="#003DA5"/>
  <rect x="202.01670000000001" y="112.23150000000001" width="3.94228" height="3.94228" fill="#003DA5"/>
  <rect x="224.46300000000002" y="112.23150000000001" width="3.94228" height="3.94228" fill="#003DA5"/>
  <rect x="246.9093" y="112.23150000000001" width="3.94228" height="3.94228" fill="#003DA5"/>
  <rect x="269.3556" y="112.23150000000001" width="3.94228" height="3.94228" fill="#003DA5"/>
  <rect x="291.8019" y="112.23150000000001" width="3.94228" height="3.94228" fill="#003DA5"/>
  <rect x="314.2482" y="112.23150000000001" width="3.94228" height="3.94228" fill="#003DA5"/>
  <rect x="0.0" y="134.6778" width="3.94228" height="3.94228" fill="#003DA5"/>
  <rect x="22.4463" y="134.6778" width="3.94228" height="3.94228" fill="#003DA5"/>
  <rect x="44.8926" y="134.6778" width="3.94228" height="3.94228" fill="#003DA5"/>
  <rect x="67.3389" y="134.6778" width="3.94228" height="3.94228" fill="#003DA5"/>
  <rect x="89.7852" y="134.6778" width="3.94228" height="3.94228" fill="#003DA5"/>
  <rect x="112.23150000000001" y="134.6778" width="3.94228" height="3.94228" fill="#003DA5"/>
  <rect x="134.6778" y="134.6778" width="3.94228" height="3.94228" fill="#003DA5"/>
  <rect x="157.1241" y="134.6778" width="3.94228" height="3.94228" fill="#003DA5"/>
  <rect x="179.5704" y="134.6778" width="3.94228" height="3.94228" fill="#003DA5"/>
  <rect x="202.01670000000001" y="134.6778" width="3.94228" height="3.94228" fill="#003DA5"/>
  <rect x="224.46300000000002" y="134.6778" width="3.94228" height="3.94228" fill="#003DA5"/>
  <rect x="246.9093" y="134.6778" width="3.94228" height="3.94228" fill="#003DA5"/>
  <rect x="269.3556" y="134.6778" width="3.94228" height="3.94228" fill="#003DA5"/>
  <rect x="291.8019" y="134.6778" width="3.94228" height="3.94228" fill="#003DA5"/>
  <rect x="314.2482" y="134.6778" width="3.94228" height="3.94228" fill="#003DA5"/>
  <rect x="0.0" y="157.1241" width="3.94228" height="3.94228" fill="#003DA5"/>
  <rect x="22.4463" y="157.1241" width="3.94228" height="3.94228" fill="#003DA5"/>
  <rect x="44.8926" y="157.1241" width="3.94228" height="3.94228" fill="#003DA5"/>
  <rect x="67.3389" y="157.1241" width="3.94228" height="3.94228" fill="#003DA5"/>
  <rect x="89.7852" y="157.1241" width="3.94228" height="3.94228" fill="#003DA5"/>
  <rect x="112.23150000000001" y="157.1241" width="3.94228" height="3.94228" fill="#003DA5"/>
  <rect x="134.6778" y="157.1241" width="3.94228" height="3.94228" fill="#003DA5"/>
  <rect x="157.1241" y="157.1241" width="3.94228" height="3.94228" fill="#003DA5"/>
  <rect x="179.5704" y="157.1241" width="3.94228" height="3.94228" fill="#003DA5"/>
  <rect x="202.01670000000001" y="157.1241" width="3.94228" height="3.94228" fill="#003DA5"/>
  <rect x="224.46300000000002" y="157.1241" width="3.94228" height="3.94228" fill="#003DA5"/>
  <rect x="246.9093" y="157.1241" width="3.94228" height="3.94228" fill="#003DA5"/>
  <rect x="269.3556" y="157.1241" width="3.94228" height="3.94228" fill="#003DA5"/>
  <rect x="291.8019" y="157.1241" width="3.94228" height="3.94228" fill="#003DA5"/>
  <rect x="314.2482" y="157.1241" width="3.94228" height="3.94228" fill="#003DA5"/>
  <rect x="0.0" y="179.5704" width="3.94228" height="3.94228" fill="#003DA5"/>
  <rect x="22.4463" y="179.5704" width="3.94228" height="3.94228" fill="#003DA5"/>
  <rect x="44.8926" y="179.5704" width="3.94228" height="3.94228" fill="#003DA5"/>
  <rect x="67.3389" y="179.5704" width="3.94228" height="3.94228" fill="#003DA5"/>
  <rect x="89.7852" y="179.5704" width="3.94228" height="3.94228" fill="#003DA5"/>
  <rect x="112.23150000000001" y="179.5704" width="3.94228" height="3.94228" fill="#003DA5"/>
  <rect x="134.6778" y="179.5704" width="3.94228" height="3.94228" fill="#003DA5"/>
  <rect x="157.1241" y="179.5704" width="3.94228" height="3.94228" fill="#003DA5"/>
  <rect x="179.5704" y="179.5704" width="3.94228" height="3.94228" fill="#003DA5"/>
  <rect x="202.01670000000001" y="179.5704" width="3.94228" height="3.94228" fill="#003DA5"/>
  <rect x="224.46300000000002" y="179.5704" width="3.94228" height="3.94228" fill="#003DA5"/>
  <rect x="246.9093" y="179.5704" width="3.94228" height="3.94228" fill="#003DA5"/>
  <rect x="269.3556" y="179.5704" width="3.94228" height="3.94228" fill="#003DA5"/>
  <rect x="291.8019" y="179.5704" width="3.94228" height="3.94228" fill="#003DA5"/>
  <rect x="314.2482" y="179.5704" width="3.94228" height="3.94228" fill="#003DA5"/>
  <rect x="0.0" y="202.01670000000001" width="3.94228" height="3.94228" fill="#003DA5"/>
  <rect x="22.4463" y="202.01670000000001" width="3.94228" height="3.94228" fill="#003DA5"/>
  <rect x="44.8926" y="202.01670000000001" width="3.94228" height="3.94228" fill="#003DA5"/>
  <rect x="67.3389" y="202.01670000000001" width="3.94228" height="3.94228" fill="#003DA5"/>
  <rect x="89.7852" y="202.01670000000001" width="3.94228" height="3.94228" fill="#003DA5"/>
  <rect x="112.23150000000001" y="202.01670000000001" width="3.94228" height="3.94228" fill="#003DA5"/>
  <rect x="134.6778" y="202.01670000000001" width="3.94228" height="3.94228" fill="#003DA5"/>
  <rect x="157.1241" y="202.01670000000001" width="3.94228" height="3.94228" fill="#003DA5"/>
  <rect x="179.5704" y="202.01670000000001" width="3.94228" height="3.94228" fill="#003DA5"/>
  <rect x="202.01670000000001" y="202.01670000000001" width="3.94228" height="3.94228" fill="#003DA5"/>
  <rect x="224.46300000000002" y="202.01670000000001" width="3.94228" height="3.94228" fill="#003DA5"/>
  <rect x="246.9093" y="202.01670000000001" width="3.94228" height="3.94228" fill="#003DA5"/>
  <rect x="269.3556" y="202.01670000000001" width="3.94228" height="3.94228" fill="#003DA5"/>
  <rect x="291.8019" y="202.01670000000001" width="3.94228" height="3.94228" fill="#003DA5"/>
  <rect x="314.2482" y="202.01670000000001" width="3.94228" height="3.94228" fill="#003DA5"/>
  <rect x="0.0" y="224.46300000000002" width="3.94228" height="3.94228" fill="#003DA5"/>
  <rect x="22.4463" y="224.46300000000002" width="3.94228" height="3.94228" fill="#003DA5"/>
  <rect x="44.8926" y="224.46300000000002" width="3.94228" height="3.94228" fill="#003DA5"/>
  <rect x="67.3389" y="224.46300000000002" width="3.94228" height="3.94228" fill="#003DA5"/>
  <rect x="89.7852" y="224.46300000000002" width="3.94228" height="3.94228" fill="#003DA5"/>
  <rect x="112.23150000000001" y="224.46300000000002" width="3.94228" height="3.94228" fill="#003DA5"/>
  <rect x="134.6778" y="224.46300000000002" width="3.94228" height="3.94228" fill="#003DA5"/>
  <rect x="157.1241" y="224.46300000000002" width="3.94228" height="3.94228" fill="#003DA5"/>
  <rect x="179.5704" y="224.46300000000002" width="3.94228" height="3.94228" fill="#003DA5"/>
  <rect x="202.01670000000001" y="224.46300000000002" width="3.94228" height="3.94228" fill="#003DA5"/>
  <rect x="224.46300000000002" y="224.46300000000002" width="3.94228" height="3.94228" fill="#003DA5"/>
  <rect x="246.9093" y="224.46300000000002" width="3.94228" height="3.94228" fill="#003DA5"/>
  <rect x="269.3556" y="224.46300000000002" width="3.94228" height="3.94228" fill="#003DA5"/>
  <rect x="291.8019" y="224.46300000000002" width="3.94228" height="3.94228" fill="#003DA5"/>
  <rect x="314.2482" y="224.46300000000002" width="3.94228" height="3.94228" fill="#003DA5"/>
  <rect x="0.0" y="246.9093" width="3.94228" height="3.94228" fill="#003DA5"/>
  <rect x="22.4463" y="246.9093" width="3.94228" height="3.94228" fill="#003DA5"/>
  <rect x="44.8926" y="246.9093" width="3.94228" height="3.94228" fill="#003DA5"/>
  <rect x="67.3389" y="246.9093" width="3.94228" height="3.94228" fill="#003DA5"/>
  <rect x="89.7852" y="246.9093" width="3.94228" height="3.94228" fill="#003DA5"/>
  <rect x="112.23150000000001" y="246.9093" width="3.94228" height="3.94228" fill="#003DA5"/>
  <rect x="134.6778" y="246.9093" width="3.94228" height="3.94228" fill="#003DA5"/>
  <rect x="157.1241" y="246.9093" width="3.94228" height="3.94228" fill="#003DA5"/>
  <rect x="179.5704" y="246.9093" width="3.94228" height="3.94228" fill="#003DA5"/>
  <rect x="202.01670000000001" y="246.9093" width="3.94228" height="3.94228" fill="#003DA5"/>
  <rect x="224.46300000000002" y="246.9093" width="3.94228" height="3.94228" fill="#003DA5"/>
  <rect x="246.9093" y="246.9093" width="3.94228" height="3.94228" fill="#003DA5"/>
  <rect x="269.3556" y="246.9093" width="3.94228" height="3.94228" fill="#003DA5"/>
  <rect x="291.8019" y="246.9093" width="3.94228" height="3.94228" fill="#003DA5"/>
  <rect x="314.2482" y="246.9093" width="3.94228" height="3.94228" fill="#003DA5"/>
  <rect x="0.0" y="269.3556" width="3.94228" height="3.94228" fill="#003DA5"/>
  <rect x="22.4463" y="269.3556" width="3.94228" height="3.94228" fill="#003DA5"/>
  <rect x="44.8926" y="269.3556" width="3.94228" height="3.94228" fill="#003DA5"/>
  <rect x="67.3389" y="269.3556" width="3.94228" height="3.94228" fill="#003DA5"/>
  <rect x="89.7852" y="269.3556" width="3.94228" height="3.94228" fill="#003DA5"/>
  <rect x="112.23150000000001" y="269.3556" width="3.94228" height="3.94228" fill="#003DA5"/>
  <rect x="134.6778" y="269.3556" width="3.94228" height="3.94228" fill="#003DA5"/>
  <rect x="157.1241" y="269.3556" width="3.94228" height="3.94228" fill="#003DA5"/>
  <rect x="179.5704" y="269.3556" width="3.94228" height="3.94228" fill="#003DA5"/>
  <rect x="202.01670000000001" y="269.3556" width="3.94228" height="3.94228" fill="#003DA5"/>
  <rect x="224.46300000000002" y="269.3556" width="3.94228" height="3.94228" fill="#003DA5"/>
  <rect x="246.9093" y="269.3556" width="3.94228" height="3.94228" fill="#003DA5"/>
  <rect x="269.3556" y="269.3556" width="3.94228" height="3.94228" fill="#003DA5"/>
  <rect x="291.8019" y="269.3556" width="3.94228" height="3.94228" fill="#003DA5"/>
  <rect x="314.2482" y="269.3556" width="3.94228" height="3.94228" fill="#003DA5"/>
</svg>