<svg width="361" height="387" viewBox="0 0 361 387" fill="none" xmlns="http://www.w3.org/2000/svg">
<rect y="0.669434" width="3.94228" height="3.94228" fill="#003DA5"/>
<rect x="22.4463" y="0.669434" width="3.94228" height="3.94228" fill="#003DA5"/>
<rect x="44.8921" y="0.669434" width="3.94228" height="3.94228" fill="#003DA5"/>
<rect x="67.3384" y="0.669434" width="3.94228" height="3.94228" fill="#003DA5"/>
<rect x="89.7842" y="0.669434" width="3.94228" height="3.94228" fill="#003DA5"/>
<rect x="112.23" y="0.669434" width="3.94228" height="3.94228" fill="#003DA5"/>
<rect x="134.677" y="0.669434" width="3.94228" height="3.94228" fill="#003DA5"/>
<rect x="157.123" y="0.669434" width="3.94228" height="3.94228" fill="#003DA5"/>
<rect x="179.569" y="0.669434" width="3.94228" height="3.94228" fill="#003DA5"/>
<rect x="202.015" y="0.669434" width="3.94228" height="3.94228" fill="#003DA5"/>
<rect x="224.461" y="0.669434" width="3.94228" height="3.94228" fill="#003DA5"/>
<rect x="246.907" y="0.669434" width="3.94228" height="3.94228" fill="#003DA5"/>
<rect x="269.354" y="0.669434" width="3.94228" height="3.94228" fill="#003DA5"/>
<rect x="291.799" y="0.669434" width="3.94228" height="3.94228" fill="#003DA5"/>
<rect x="314.245" y="0.669434" width="3.94228" height="3.94228" fill="#003DA5"/>
<rect x="335.635" y="0.669434" width="3.94228" height="3.94228" fill="#003DA5"/>
<rect x="357.025" y="0.669434" width="3.94228" height="3.94228" fill="#003DA5"/>
<rect y="23.1157" width="3.94228" height="3.94228" fill="#003DA5"/>
<rect x="22.4463" y="23.1157" width="3.94228" height="3.94228" fill="#003DA5"/>
<rect x="44.8921" y="23.1157" width="3.94228" height="3.94228" fill="#003DA5"/>
<rect x="67.3384" y="23.1157" width="3.94228" height="3.94228" fill="#003DA5"/>
<rect x="89.7842" y="23.1157" width="3.94228" height="3.94228" fill="#003DA5"/>
<rect x="112.23" y="23.1157" width="3.94228" height="3.94228" fill="#003DA5"/>
<rect x="134.677" y="23.1157" width="3.94228" height="3.94228" fill="#003DA5"/>
<rect x="157.123" y="23.1157" width="3.94228" height="3.94228" fill="#003DA5"/>
<rect x="179.569" y="23.1157" width="3.94228" height="3.94228" fill="#003DA5"/>
<rect x="202.015" y="23.1157" width="3.94228" height="3.94228" fill="#003DA5"/>
<rect x="224.461" y="23.1157" width="3.94228" height="3.94228" fill="#003DA5"/>
<rect x="246.907" y="23.1157" width="3.94228" height="3.94228" fill="#003DA5"/>
<rect x="269.354" y="23.1157" width="3.94228" height="3.94228" fill="#003DA5"/>
<rect x="314.245" y="23.1157" width="3.94228" height="3.94228" fill="#003DA5"/>
<rect x="291.799" y="23.1157" width="3.94228" height="3.94228" fill="#003DA5"/>
<rect x="335.635" y="23.1157" width="3.94228" height="3.94228" fill="#003DA5"/>
<rect x="357.025" y="23.1157" width="3.94228" height="3.94228" fill="#003DA5"/>
<rect y="45.5615" width="3.94228" height="3.94228" fill="#003DA5"/>
<rect x="22.4463" y="45.5615" width="3.94228" height="3.94228" fill="#003DA5"/>
<rect x="44.8921" y="45.5615" width="3.94228" height="3.94228" fill="#003DA5"/>
<rect x="67.3384" y="45.5615" width="3.94228" height="3.94228" fill="#003DA5"/>
<rect x="89.7842" y="45.5615" width="3.94228" height="3.94228" fill="#003DA5"/>
<rect x="112.23" y="45.5615" width="3.94228" height="3.94228" fill="#003DA5"/>
<rect x="134.677" y="45.5615" width="3.94228" height="3.94228" fill="#003DA5"/>
<rect x="157.123" y="45.5615" width="3.94228" height="3.94228" fill="#003DA5"/>
<rect x="179.569" y="45.5615" width="3.94228" height="3.94228" fill="#003DA5"/>
<rect x="202.015" y="45.5615" width="3.94228" height="3.94228" fill="#003DA5"/>
<rect x="224.461" y="45.5615" width="3.94228" height="3.94228" fill="#003DA5"/>
<rect x="246.907" y="45.5615" width="3.94228" height="3.94228" fill="#003DA5"/>
<rect x="314.245" y="45.5615" width="3.94228" height="3.94228" fill="#003DA5"/>
<rect x="269.354" y="45.5615" width="3.94228" height="3.94228" fill="#003DA5"/>
<rect x="291.799" y="45.5615" width="3.94228" height="3.94228" fill="#003DA5"/>
<rect x="335.635" y="45.5615" width="3.94228" height="3.94228" fill="#003DA5"/>
<rect x="357.025" y="45.5615" width="3.94228" height="3.94228" fill="#003DA5"/>
<rect y="68.0078" width="3.94228" height="3.94228" fill="#003DA5"/>
<rect x="22.4463" y="68.0078" width="3.94228" height="3.94228" fill="#003DA5"/>
<rect x="44.8921" y="68.0078" width="3.94228" height="3.94228" fill="#003DA5"/>
<rect x="67.3384" y="68.0078" width="3.94228" height="3.94228" fill="#003DA5"/>
<rect x="89.7842" y="68.0078" width="3.94228" height="3.94228" fill="#003DA5"/>
<rect x="112.23" y="68.0078" width="3.94228" height="3.94228" fill="#003DA5"/>
<rect x="134.677" y="68.0078" width="3.94228" height="3.94228" fill="#003DA5"/>
<rect x="157.123" y="68.0078" width="3.94228" height="3.94228" fill="#003DA5"/>
<rect x="179.569" y="68.0078" width="3.94228" height="3.94228" fill="#003DA5"/>
<rect x="202.015" y="68.0078" width="3.94228" height="3.94228" fill="#003DA5"/>
<rect x="224.461" y="68.0078" width="3.94228" height="3.94228" fill="#003DA5"/>
<rect x="246.907" y="68.0078" width="3.94228" height="3.94228" fill="#003DA5"/>
<rect x="269.354" y="68.0078" width="3.94228" height="3.94228" fill="#003DA5"/>
<rect x="335.635" y="68.0078" width="3.94228" height="3.94228" fill="#003DA5"/>
<rect x="357.025" y="68.0078" width="3.94228" height="3.94228" fill="#003DA5"/>
<rect y="90.4536" width="3.94228" height="3.94228" fill="#003DA5"/>
<rect x="22.4463" y="90.4536" width="3.94228" height="3.94228" fill="#003DA5"/>
<rect x="44.8921" y="90.4536" width="3.94228" height="3.94228" fill="#003DA5"/>
<rect x="67.3384" y="90.4536" width="3.94228" height="3.94228" fill="#003DA5"/>
<rect x="112.23" y="90.4536" width="3.94228" height="3.94228" fill="#003DA5"/>
<rect x="89.7842" y="90.4536" width="3.94228" height="3.94228" fill="#003DA5"/>
<rect x="134.677" y="90.4536" width="3.94228" height="3.94228" fill="#003DA5"/>
<rect x="157.123" y="90.4536" width="3.94228" height="3.94228" fill="#003DA5"/>
<rect x="179.569" y="90.4536" width="3.94228" height="3.94228" fill="#003DA5"/>
<rect x="202.015" y="90.4536" width="3.94228" height="3.94228" fill="#003DA5"/>
<rect x="224.461" y="90.4536" width="3.94228" height="3.94228" fill="#003DA5"/>
<rect x="246.907" y="90.4536" width="3.94228" height="3.94228" fill="#003DA5"/>
<rect x="269.354" y="90.4536" width="3.94228" height="3.94228" fill="#003DA5"/>
<rect x="335.635" y="90.4536" width="3.94228" height="3.94228" fill="#003DA5"/>
<rect x="357.025" y="90.4536" width="3.94228" height="3.94228" fill="#003DA5"/>
<rect y="112.9" width="3.94228" height="3.94228" fill="#003DA5"/>
<rect x="22.4463" y="112.9" width="3.94228" height="3.94228" fill="#003DA5"/>
<rect x="44.8921" y="112.9" width="3.94228" height="3.94228" fill="#003DA5"/>
<rect x="67.3384" y="112.9" width="3.94228" height="3.94228" fill="#003DA5"/>
<rect x="89.7842" y="112.9" width="3.94228" height="3.94228" fill="#003DA5"/>
<rect x="112.23" y="112.9" width="3.94228" height="3.94228" fill="#003DA5"/>
<rect x="134.677" y="112.9" width="3.94228" height="3.94228" fill="#003DA5"/>
<rect x="157.123" y="112.9" width="3.94228" height="3.94228" fill="#003DA5"/>
<rect x="179.569" y="112.9" width="3.94228" height="3.94228" fill="#003DA5"/>
<rect x="314.245" y="112.9" width="3.94228" height="3.94228" fill="#003DA5"/>
<rect x="202.015" y="112.9" width="3.94228" height="3.94228" fill="#003DA5"/>
<rect x="224.461" y="112.9" width="3.94228" height="3.94228" fill="#003DA5"/>
<rect x="246.907" y="112.9" width="3.94228" height="3.94228" fill="#003DA5"/>
<rect x="269.354" y="112.9" width="3.94228" height="3.94228" fill="#003DA5"/>
<rect x="291.799" y="112.9" width="3.94228" height="3.94228" fill="#003DA5"/>
<rect x="335.635" y="112.9" width="3.94228" height="3.94228" fill="#003DA5"/>
<rect x="357.025" y="112.9" width="3.94228" height="3.94228" fill="#003DA5"/>
<rect y="135.346" width="3.94228" height="3.94228" fill="#003DA5"/>
<rect x="22.4463" y="135.346" width="3.94228" height="3.94228" fill="#003DA5"/>
<rect x="44.8921" y="135.346" width="3.94228" height="3.94228" fill="#003DA5"/>
<rect x="67.3384" y="135.346" width="3.94228" height="3.94228" fill="#003DA5"/>
<rect x="89.7842" y="135.346" width="3.94228" height="3.94228" fill="#003DA5"/>
<rect x="112.23" y="135.346" width="3.94228" height="3.94228" fill="#003DA5"/>
<rect x="134.677" y="135.346" width="3.94228" height="3.94228" fill="#003DA5"/>
<rect x="157.123" y="135.346" width="3.94228" height="3.94228" fill="#003DA5"/>
<rect x="314.245" y="135.346" width="3.94228" height="3.94228" fill="#003DA5"/>
<rect x="179.569" y="135.346" width="3.94228" height="3.94228" fill="#003DA5"/>
<rect x="202.015" y="135.346" width="3.94228" height="3.94228" fill="#003DA5"/>
<rect x="224.461" y="135.346" width="3.94228" height="3.94228" fill="#003DA5"/>
<rect x="246.907" y="135.346" width="3.94228" height="3.94228" fill="#003DA5"/>
<rect x="269.354" y="135.346" width="3.94228" height="3.94228" fill="#003DA5"/>
<rect x="291.799" y="135.346" width="3.94228" height="3.94228" fill="#003DA5"/>
<rect x="335.635" y="135.346" width="3.94228" height="3.94228" fill="#003DA5"/>
<rect x="357.025" y="135.346" width="3.94228" height="3.94228" fill="#003DA5"/>
<rect y="157.792" width="3.94228" height="3.94228" fill="#003DA5"/>
<rect x="22.4463" y="157.792" width="3.94228" height="3.94228" fill="#003DA5"/>
<rect x="44.8921" y="157.792" width="3.94228" height="3.94228" fill="#003DA5"/>
<rect x="67.3384" y="157.792" width="3.94228" height="3.94228" fill="#003DA5"/>
<rect x="89.7842" y="157.792" width="3.94228" height="3.94228" fill="#003DA5"/>
<rect x="112.23" y="157.792" width="3.94228" height="3.94228" fill="#003DA5"/>
<rect x="134.677" y="157.792" width="3.94228" height="3.94228" fill="#003DA5"/>
<rect x="314.245" y="157.792" width="3.94228" height="3.94228" fill="#003DA5"/>
<rect x="157.123" y="157.792" width="3.94228" height="3.94228" fill="#003DA5"/>
<rect x="179.569" y="157.792" width="3.94228" height="3.94228" fill="#003DA5"/>
<rect x="202.015" y="157.792" width="3.94228" height="3.94228" fill="#003DA5"/>
<rect x="224.461" y="157.792" width="3.94228" height="3.94228" fill="#003DA5"/>
<rect x="246.907" y="157.792" width="3.94228" height="3.94228" fill="#003DA5"/>
<rect x="269.354" y="157.792" width="3.94228" height="3.94228" fill="#003DA5"/>
<rect x="291.799" y="157.792" width="3.94228" height="3.94228" fill="#003DA5"/>
<rect x="335.635" y="157.792" width="3.94228" height="3.94228" fill="#003DA5"/>
<rect x="357.025" y="157.792" width="3.94228" height="3.94228" fill="#003DA5"/>
<rect y="180.238" width="3.94228" height="3.94228" fill="#003DA5"/>
<rect x="22.4463" y="180.238" width="3.94228" height="3.94228" fill="#003DA5"/>
<rect x="44.8921" y="180.238" width="3.94228" height="3.94228" fill="#003DA5"/>
<rect x="67.3384" y="180.238" width="3.94228" height="3.94228" fill="#003DA5"/>
<rect x="89.7842" y="180.238" width="3.94228" height="3.94228" fill="#003DA5"/>
<rect x="112.23" y="180.238" width="3.94228" height="3.94228" fill="#003DA5"/>
<rect x="314.245" y="180.238" width="3.94228" height="3.94228" fill="#003DA5"/>
<rect x="134.677" y="180.238" width="3.94228" height="3.94228" fill="#003DA5"/>
<rect x="157.123" y="180.238" width="3.94228" height="3.94228" fill="#003DA5"/>
<rect x="179.569" y="180.238" width="3.94228" height="3.94228" fill="#003DA5"/>
<rect x="202.015" y="180.238" width="3.94228" height="3.94228" fill="#003DA5"/>
<rect x="224.461" y="180.238" width="3.94228" height="3.94228" fill="#003DA5"/>
<rect x="246.907" y="180.238" width="3.94228" height="3.94228" fill="#003DA5"/>
<rect x="269.354" y="180.238" width="3.94228" height="3.94228" fill="#003DA5"/>
<rect x="291.799" y="180.238" width="3.94228" height="3.94228" fill="#003DA5"/>
<rect x="335.635" y="180.238" width="3.94228" height="3.94228" fill="#003DA5"/>
<rect x="357.025" y="180.238" width="3.94228" height="3.94228" fill="#003DA5"/>
<path d="M300.959 86.3702L298.924 84.8532L302.587 80.1912L296.926 78.3042L297.74 75.9732L303.253 77.9342V71.9772H305.695V77.9342L311.245 75.9732L312.059 78.3042L306.472 80.1912L309.95 84.8532L308.026 86.3702L304.437 81.5232L300.959 86.3702Z" fill="#003DA5"/>
<path d="M73.0096 328.64V325.717H73.9346C74.8966 325.717 75.5996 325.384 76.0436 324.718C76.4876 324.052 76.6109 323.114 76.4136 321.906L75.5996 316.245C75.3282 314.321 75.6489 312.816 76.5616 311.731C77.4989 310.645 78.9912 310.103 81.0386 310.103H83.7766V312.767H81.5196C80.5082 312.767 79.7559 313.05 79.2626 313.618C78.7939 314.185 78.6336 314.95 78.7816 315.912L79.5216 321.869C79.7189 323.373 79.5586 324.594 79.0406 325.532C78.5472 326.444 77.8319 326.999 76.8946 327.197C77.9059 327.394 78.6459 327.974 79.1146 328.936C79.5832 329.898 79.7189 331.082 79.5216 332.488L78.7816 338.408C78.6582 339.419 78.8309 340.196 79.2996 340.739C79.7929 341.281 80.5329 341.553 81.5196 341.553H83.7766V344.254H80.9646C79.0159 344.254 77.5482 343.711 76.5616 342.626C75.5996 341.565 75.2789 340.06 75.5996 338.112L76.4136 332.451C76.6109 331.193 76.4752 330.243 76.0066 329.602C75.5626 328.96 74.8719 328.64 73.9346 328.64H73.0096Z" fill="#003DA5"/>
<rect y="202.685" width="3.94228" height="3.94228" fill="#003DA5"/>
<rect x="22.4463" y="202.685" width="3.94228" height="3.94228" fill="#003DA5"/>
<rect x="44.8921" y="202.685" width="3.94228" height="3.94228" fill="#003DA5"/>
<rect x="67.3384" y="202.685" width="3.94228" height="3.94228" fill="#003DA5"/>
<rect x="89.7842" y="202.685" width="3.94228" height="3.94228" fill="#003DA5"/>
<rect x="112.23" y="202.685" width="3.94228" height="3.94228" fill="#003DA5"/>
<rect x="134.677" y="202.685" width="3.94228" height="3.94228" fill="#003DA5"/>
<rect x="157.123" y="202.685" width="3.94228" height="3.94228" fill="#003DA5"/>
<rect x="179.569" y="202.685" width="3.94228" height="3.94228" fill="#003DA5"/>
<rect x="202.015" y="202.685" width="3.94228" height="3.94228" fill="#003DA5"/>
<rect x="224.461" y="202.685" width="3.94228" height="3.94228" fill="#003DA5"/>
<rect x="246.907" y="202.685" width="3.94228" height="3.94228" fill="#003DA5"/>
<rect x="269.354" y="202.685" width="3.94228" height="3.94228" fill="#003DA5"/>
<rect x="291.799" y="202.685" width="3.94228" height="3.94228" fill="#003DA5"/>
<rect x="314.245" y="202.685" width="3.94228" height="3.94228" fill="#003DA5"/>
<rect x="335.635" y="202.685" width="3.94228" height="3.94228" fill="#003DA5"/>
<rect x="357.025" y="202.685" width="3.94228" height="3.94228" fill="#003DA5"/>
<rect y="225.131" width="3.94228" height="3.94228" fill="#003DA5"/>
<rect x="22.4463" y="225.131" width="3.94228" height="3.94228" fill="#003DA5"/>
<rect x="44.8921" y="225.131" width="3.94228" height="3.94228" fill="#003DA5"/>
<rect x="67.3384" y="225.131" width="3.94228" height="3.94228" fill="#003DA5"/>
<rect x="89.7842" y="225.131" width="3.94228" height="3.94228" fill="#003DA5"/>
<rect x="112.23" y="225.131" width="3.94228" height="3.94228" fill="#003DA5"/>
<rect x="134.677" y="225.131" width="3.94228" height="3.94228" fill="#003DA5"/>
<rect x="157.123" y="225.131" width="3.94228" height="3.94228" fill="#003DA5"/>
<rect x="179.569" y="225.131" width="3.94228" height="3.94228" fill="#003DA5"/>
<rect x="202.015" y="225.131" width="3.94228" height="3.94228" fill="#003DA5"/>
<rect x="224.461" y="225.131" width="3.94228" height="3.94228" fill="#003DA5"/>
<rect x="246.907" y="225.131" width="3.94228" height="3.94228" fill="#003DA5"/>
<rect x="269.354" y="225.131" width="3.94228" height="3.94228" fill="#003DA5"/>
<rect x="314.245" y="225.131" width="3.94228" height="3.94228" fill="#003DA5"/>
<rect x="291.799" y="225.131" width="3.94228" height="3.94228" fill="#003DA5"/>
<rect x="335.635" y="225.131" width="3.94228" height="3.94228" fill="#003DA5"/>
<rect x="357.025" y="225.131" width="3.94228" height="3.94228" fill="#003DA5"/>
<rect y="247.577" width="3.94228" height="3.94228" fill="#003DA5"/>
<rect x="22.4463" y="247.577" width="3.94228" height="3.94228" fill="#003DA5"/>
<rect x="44.8921" y="247.577" width="3.94228" height="3.94228" fill="#003DA5"/>
<rect x="67.3384" y="247.577" width="3.94228" height="3.94228" fill="#003DA5"/>
<rect x="89.7842" y="247.577" width="3.94228" height="3.94228" fill="#003DA5"/>
<rect x="112.23" y="247.577" width="3.94228" height="3.94228" fill="#003DA5"/>
<rect x="134.677" y="247.577" width="3.94228" height="3.94228" fill="#003DA5"/>
<rect x="157.123" y="247.577" width="3.94228" height="3.94228" fill="#003DA5"/>
<rect x="179.569" y="247.577" width="3.94228" height="3.94228" fill="#003DA5"/>
<rect x="202.015" y="247.577" width="3.94228" height="3.94228" fill="#003DA5"/>
<rect x="224.461" y="247.577" width="3.94228" height="3.94228" fill="#003DA5"/>
<rect x="246.907" y="247.577" width="3.94228" height="3.94228" fill="#003DA5"/>
<rect x="314.245" y="247.577" width="3.94228" height="3.94228" fill="#003DA5"/>
<rect x="269.354" y="247.577" width="3.94228" height="3.94228" fill="#003DA5"/>
<rect x="291.799" y="247.577" width="3.94228" height="3.94228" fill="#003DA5"/>
<rect x="335.635" y="247.577" width="3.94228" height="3.94228" fill="#003DA5"/>
<rect x="357.025" y="247.577" width="3.94228" height="3.94228" fill="#003DA5"/>
<rect y="270.023" width="3.94228" height="3.94228" fill="#003DA5"/>
<rect x="22.4463" y="270.023" width="3.94228" height="3.94228" fill="#003DA5"/>
<rect x="44.8921" y="270.023" width="3.94228" height="3.94228" fill="#003DA5"/>
<rect x="67.3384" y="270.023" width="3.94228" height="3.94228" fill="#003DA5"/>
<rect x="89.7842" y="270.023" width="3.94228" height="3.94228" fill="#003DA5"/>
<rect x="112.23" y="270.023" width="3.94228" height="3.94228" fill="#003DA5"/>
<rect x="134.677" y="270.023" width="3.94228" height="3.94228" fill="#003DA5"/>
<rect x="157.123" y="270.023" width="3.94228" height="3.94228" fill="#003DA5"/>
<rect x="179.569" y="270.023" width="3.94228" height="3.94228" fill="#003DA5"/>
<rect x="202.015" y="270.023" width="3.94228" height="3.94228" fill="#003DA5"/>
<rect x="224.461" y="270.023" width="3.94228" height="3.94228" fill="#003DA5"/>
<rect x="314.245" y="270.023" width="3.94228" height="3.94228" fill="#003DA5"/>
<rect x="246.907" y="270.023" width="3.94228" height="3.94228" fill="#003DA5"/>
<rect x="269.354" y="270.023" width="3.94228" height="3.94228" fill="#003DA5"/>
<rect x="291.799" y="270.023" width="3.94228" height="3.94228" fill="#003DA5"/>
<rect x="335.635" y="270.023" width="3.94228" height="3.94228" fill="#003DA5"/>
<rect x="357.025" y="270.023" width="3.94228" height="3.94228" fill="#003DA5"/>
<rect y="292.469" width="3.94228" height="3.94228" fill="#003DA5"/>
<rect x="22.4463" y="292.469" width="3.94228" height="3.94228" fill="#003DA5"/>
<rect x="44.8921" y="292.469" width="3.94228" height="3.94228" fill="#003DA5"/>
<rect x="67.3384" y="292.469" width="3.94228" height="3.94228" fill="#003DA5"/>
<rect x="112.23" y="292.469" width="3.94228" height="3.94228" fill="#003DA5"/>
<rect x="89.7842" y="292.469" width="3.94228" height="3.94228" fill="#003DA5"/>
<rect x="134.677" y="292.469" width="3.94228" height="3.94228" fill="#003DA5"/>
<rect x="157.123" y="292.469" width="3.94228" height="3.94228" fill="#003DA5"/>
<rect x="179.569" y="292.469" width="3.94228" height="3.94228" fill="#003DA5"/>
<rect x="202.015" y="292.469" width="3.94228" height="3.94228" fill="#003DA5"/>
<rect x="314.245" y="292.469" width="3.94228" height="3.94228" fill="#003DA5"/>
<rect x="224.461" y="292.469" width="3.94228" height="3.94228" fill="#003DA5"/>
<rect x="246.907" y="292.469" width="3.94228" height="3.94228" fill="#003DA5"/>
<rect x="269.354" y="292.469" width="3.94228" height="3.94228" fill="#003DA5"/>
<rect x="291.799" y="292.469" width="3.94228" height="3.94228" fill="#003DA5"/>
<rect x="335.635" y="292.469" width="3.94228" height="3.94228" fill="#003DA5"/>
<rect x="357.025" y="292.469" width="3.94228" height="3.94228" fill="#003DA5"/>
<rect y="314.915" width="3.94228" height="3.94228" fill="#003DA5"/>
<rect x="22.4463" y="314.915" width="3.94228" height="3.94228" fill="#003DA5"/>
<rect x="44.8921" y="314.915" width="3.94228" height="3.94228" fill="#003DA5"/>
<rect x="112.23" y="314.915" width="3.94228" height="3.94228" fill="#003DA5"/>
<rect x="134.677" y="314.915" width="3.94228" height="3.94228" fill="#003DA5"/>
<rect x="157.123" y="314.915" width="3.94228" height="3.94228" fill="#003DA5"/>
<rect x="179.569" y="314.915" width="3.94228" height="3.94228" fill="#003DA5"/>
<rect x="314.245" y="314.915" width="3.94228" height="3.94228" fill="#003DA5"/>
<rect x="202.015" y="314.915" width="3.94228" height="3.94228" fill="#003DA5"/>
<rect x="224.461" y="314.915" width="3.94228" height="3.94228" fill="#003DA5"/>
<rect x="246.907" y="314.915" width="3.94228" height="3.94228" fill="#003DA5"/>
<rect x="269.354" y="314.915" width="3.94228" height="3.94228" fill="#003DA5"/>
<rect x="291.799" y="314.915" width="3.94228" height="3.94228" fill="#003DA5"/>
<rect x="335.635" y="314.915" width="3.94228" height="3.94228" fill="#003DA5"/>
<rect x="357.025" y="314.915" width="3.94228" height="3.94228" fill="#003DA5"/>
<rect y="337.361" width="3.94228" height="3.94228" fill="#003DA5"/>
<rect x="22.4463" y="337.361" width="3.94228" height="3.94228" fill="#003DA5"/>
<rect x="44.8921" y="337.361" width="3.94228" height="3.94228" fill="#003DA5"/>
<rect x="112.23" y="337.361" width="3.94228" height="3.94228" fill="#003DA5"/>
<rect x="134.677" y="337.361" width="3.94228" height="3.94228" fill="#003DA5"/>
<rect x="157.123" y="337.361" width="3.94228" height="3.94228" fill="#003DA5"/>
<rect x="314.245" y="337.361" width="3.94228" height="3.94228" fill="#003DA5"/>
<rect x="179.569" y="337.361" width="3.94228" height="3.94228" fill="#003DA5"/>
<rect x="202.015" y="337.361" width="3.94228" height="3.94228" fill="#003DA5"/>
<rect x="224.461" y="337.361" width="3.94228" height="3.94228" fill="#003DA5"/>
<rect x="246.907" y="337.361" width="3.94228" height="3.94228" fill="#003DA5"/>
<rect x="269.354" y="337.361" width="3.94228" height="3.94228" fill="#003DA5"/>
<rect x="291.799" y="337.361" width="3.94228" height="3.94228" fill="#003DA5"/>
<rect x="335.635" y="337.361" width="3.94228" height="3.94228" fill="#003DA5"/>
<rect x="357.025" y="337.361" width="3.94228" height="3.94228" fill="#003DA5"/>
<rect y="359.807" width="3.94228" height="3.94228" fill="#003DA5"/>
<rect x="22.4463" y="359.807" width="3.94228" height="3.94228" fill="#003DA5"/>
<rect x="44.8921" y="359.807" width="3.94228" height="3.94228" fill="#003DA5"/>
<rect x="67.3384" y="359.807" width="3.94228" height="3.94228" fill="#003DA5"/>
<rect x="89.7842" y="359.807" width="3.94228" height="3.94228" fill="#003DA5"/>
<rect x="112.23" y="359.807" width="3.94228" height="3.94228" fill="#003DA5"/>
<rect x="134.677" y="359.807" width="3.94228" height="3.94228" fill="#003DA5"/>
<rect x="314.245" y="359.807" width="3.94228" height="3.94228" fill="#003DA5"/>
<rect x="157.123" y="359.807" width="3.94228" height="3.94228" fill="#003DA5"/>
<rect x="179.569" y="359.807" width="3.94228" height="3.94228" fill="#003DA5"/>
<rect x="202.015" y="359.807" width="3.94228" height="3.94228" fill="#003DA5"/>
<rect x="224.461" y="359.807" width="3.94228" height="3.94228" fill="#003DA5"/>
<rect x="246.907" y="359.807" width="3.94228" height="3.94228" fill="#003DA5"/>
<rect x="269.354" y="359.807" width="3.94228" height="3.94228" fill="#003DA5"/>
<rect x="291.799" y="359.807" width="3.94228" height="3.94228" fill="#003DA5"/>
<rect x="335.635" y="359.807" width="3.94228" height="3.94228" fill="#003DA5"/>
<rect x="357.025" y="359.807" width="3.94228" height="3.94228" fill="#003DA5"/>
<rect y="382.253" width="3.94228" height="3.94228" fill="#003DA5"/>
<rect x="22.4463" y="382.253" width="3.94228" height="3.94228" fill="#003DA5"/>
<rect x="44.8921" y="382.253" width="3.94228" height="3.94228" fill="#003DA5"/>
<rect x="67.3384" y="382.253" width="3.94228" height="3.94228" fill="#003DA5"/>
<rect x="89.7842" y="382.253" width="3.94228" height="3.94228" fill="#003DA5"/>
<rect x="112.23" y="382.253" width="3.94228" height="3.94228" fill="#003DA5"/>
<rect x="314.245" y="382.253" width="3.94228" height="3.94228" fill="#003DA5"/>
<rect x="134.677" y="382.253" width="3.94228" height="3.94228" fill="#003DA5"/>
<rect x="157.123" y="382.253" width="3.94228" height="3.94228" fill="#003DA5"/>
<rect x="179.569" y="382.253" width="3.94228" height="3.94228" fill="#003DA5"/>
<rect x="202.015" y="382.253" width="3.94228" height="3.94228" fill="#003DA5"/>
<rect x="224.461" y="382.253" width="3.94228" height="3.94228" fill="#003DA5"/>
<rect x="246.907" y="382.253" width="3.94228" height="3.94228" fill="#003DA5"/>
<rect x="269.354" y="382.253" width="3.94228" height="3.94228" fill="#003DA5"/>
<rect x="291.799" y="382.253" width="3.94228" height="3.94228" fill="#003DA5"/>
<rect x="335.635" y="382.253" width="3.94228" height="3.94228" fill="#003DA5"/>
<rect x="357.025" y="382.253" width="3.94228" height="3.94228" fill="#003DA5"/>
</svg>
