<svg width="533" height="139" viewBox="0 0 533 139" fill="none" xmlns="http://www.w3.org/2000/svg">
<rect width="3.94228" height="3.94228" transform="matrix(-1 0 0 1 532.088 0)" fill="#003DA5"/>
<rect width="3.94228" height="3.94228" transform="matrix(-1 0 0 1 509.642 0)" fill="#003DA5"/>
<rect width="3.94228" height="3.94228" transform="matrix(-1 0 0 1 487.195 0)" fill="#003DA5"/>
<rect width="3.94228" height="3.94228" transform="matrix(-1 0 0 1 464.749 0)" fill="#003DA5"/>
<rect width="3.94228" height="3.94228" transform="matrix(-1 0 0 1 442.304 0)" fill="#003DA5"/>
<rect width="3.94228" height="3.94228" transform="matrix(-1 0 0 1 419.857 0)" fill="#003DA5"/>
<rect width="3.94228" height="3.94228" transform="matrix(-1 0 0 1 397.411 0)" fill="#003DA5"/>
<rect width="3.94228" height="3.94228" transform="matrix(-1 0 0 1 374.965 0)" fill="#003DA5"/>
<rect width="3.94228" height="3.94228" transform="matrix(-1 0 0 1 352.519 0)" fill="#003DA5"/>
<rect width="3.94228" height="3.94228" transform="matrix(-1 0 0 1 330.073 0)" fill="#003DA5"/>
<rect width="3.94228" height="3.94228" transform="matrix(-1 0 0 1 307.627 0)" fill="#003DA5"/>
<rect width="3.94228" height="3.94228" transform="matrix(-1 0 0 1 285.181 0)" fill="#003DA5"/>
<rect width="3.94228" height="3.94228" transform="matrix(-1 0 0 1 217.843 0)" fill="#003DA5"/>
<rect width="3.94228" height="3.94228" transform="matrix(-1 0 0 1 262.734 0)" fill="#003DA5"/>
<rect width="3.94228" height="3.94228" transform="matrix(-1 0 0 1 240.288 0)" fill="#003DA5"/>
<rect width="3.94228" height="3.94228" transform="matrix(-1 0 0 1 196.452 0)" fill="#003DA5"/>
<rect width="3.94228" height="3.94228" transform="matrix(-1 0 0 1 175.062 0)" fill="#003DA5"/>
<rect width="3.94228" height="3.94228" transform="matrix(-1 0 0 1 153.672 0)" fill="#003DA5"/>
<rect width="3.94228" height="3.94228" transform="matrix(-1 0 0 1 132.282 0)" fill="#003DA5"/>
<rect width="3.94228" height="3.94228" transform="matrix(-1 0 0 1 110.893 0)" fill="#003DA5"/>
<rect width="3.94228" height="3.94228" transform="matrix(-1 0 0 1 89.502 0)" fill="#003DA5"/>
<rect width="3.94228" height="3.94228" transform="matrix(-1 0 0 1 68.1123 0)" fill="#003DA5"/>
<rect width="3.94228" height="3.94228" transform="matrix(-1 0 0 1 46.7227 0)" fill="#003DA5"/>
<rect width="3.94228" height="3.94228" transform="matrix(-1 0 0 1 25.332 0)" fill="#003DA5"/>
<rect width="3.94228" height="3.94228" transform="matrix(-1 0 0 1 3.94238 0)" fill="#003DA5"/>
<rect width="3.94228" height="3.94228" transform="matrix(-1 0 0 1 532.088 22.446)" fill="#003DA5"/>
<rect width="3.94228" height="3.94228" transform="matrix(-1 0 0 1 464.749 22.446)" fill="#003DA5"/>
<rect width="3.94228" height="3.94228" transform="matrix(-1 0 0 1 442.304 22.446)" fill="#003DA5"/>
<rect width="3.94228" height="3.94228" transform="matrix(-1 0 0 1 419.857 22.446)" fill="#003DA5"/>
<rect width="3.94228" height="3.94228" transform="matrix(-1 0 0 1 397.411 22.446)" fill="#003DA5"/>
<rect width="3.94228" height="3.94228" transform="matrix(-1 0 0 1 374.965 22.446)" fill="#003DA5"/>
<rect width="3.94228" height="3.94228" transform="matrix(-1 0 0 1 352.519 22.446)" fill="#003DA5"/>
<rect width="3.94228" height="3.94228" transform="matrix(-1 0 0 1 330.073 22.446)" fill="#003DA5"/>
<rect width="3.94228" height="3.94228" transform="matrix(-1 0 0 1 307.627 22.446)" fill="#003DA5"/>
<rect width="3.94228" height="3.94228" transform="matrix(-1 0 0 1 217.843 22.446)" fill="#003DA5"/>
<rect width="3.94228" height="3.94228" transform="matrix(-1 0 0 1 285.181 22.446)" fill="#003DA5"/>
<rect width="3.94228" height="3.94228" transform="matrix(-1 0 0 1 262.734 22.446)" fill="#003DA5"/>
<rect width="3.94228" height="3.94228" transform="matrix(-1 0 0 1 240.288 22.446)" fill="#003DA5"/>
<rect width="3.94228" height="3.94228" transform="matrix(-1 0 0 1 196.452 22.446)" fill="#003DA5"/>
<rect width="3.94228" height="3.94228" transform="matrix(-1 0 0 1 175.062 22.446)" fill="#003DA5"/>
<rect width="3.94228" height="3.94228" transform="matrix(-1 0 0 1 153.672 22.446)" fill="#003DA5"/>
<rect width="3.94228" height="3.94228" transform="matrix(-1 0 0 1 132.282 22.446)" fill="#003DA5"/>
<rect width="3.94228" height="3.94228" transform="matrix(-1 0 0 1 110.893 22.446)" fill="#003DA5"/>
<rect width="3.94228" height="3.94228" transform="matrix(-1 0 0 1 89.502 22.446)" fill="#003DA5"/>
<rect width="3.94228" height="3.94228" transform="matrix(-1 0 0 1 46.7227 22.446)" fill="#003DA5"/>
<rect width="3.94228" height="3.94228" transform="matrix(-1 0 0 1 68.1123 22.446)" fill="#003DA5"/>
<rect width="3.94228" height="3.94228" transform="matrix(-1 0 0 1 25.332 22.446)" fill="#003DA5"/>
<rect width="3.94228" height="3.94228" transform="matrix(-1 0 0 1 3.94238 22.446)" fill="#003DA5"/>
<rect width="3.94228" height="3.94228" transform="matrix(-1 0 0 1 532.088 44.8922)" fill="#003DA5"/>
<rect width="3.94228" height="3.94228" transform="matrix(-1 0 0 1 464.749 44.8922)" fill="#003DA5"/>
<rect width="3.94228" height="3.94228" transform="matrix(-1 0 0 1 442.304 44.8922)" fill="#003DA5"/>
<rect width="3.94228" height="3.94228" transform="matrix(-1 0 0 1 419.857 44.8922)" fill="#003DA5"/>
<rect width="3.94228" height="3.94228" transform="matrix(-1 0 0 1 397.411 44.8922)" fill="#003DA5"/>
<rect width="3.94228" height="3.94228" transform="matrix(-1 0 0 1 374.965 44.8922)" fill="#003DA5"/>
<rect width="3.94228" height="3.94228" transform="matrix(-1 0 0 1 352.519 44.8922)" fill="#003DA5"/>
<rect width="3.94228" height="3.94228" transform="matrix(-1 0 0 1 330.073 44.8922)" fill="#003DA5"/>
<rect width="3.94228" height="3.94228" transform="matrix(-1 0 0 1 217.843 44.8922)" fill="#003DA5"/>
<rect width="3.94228" height="3.94228" transform="matrix(-1 0 0 1 307.627 44.8922)" fill="#003DA5"/>
<rect width="3.94228" height="3.94228" transform="matrix(-1 0 0 1 285.181 44.8922)" fill="#003DA5"/>
<rect width="3.94228" height="3.94228" transform="matrix(-1 0 0 1 262.734 44.8922)" fill="#003DA5"/>
<rect width="3.94228" height="3.94228" transform="matrix(-1 0 0 1 240.288 44.8922)" fill="#003DA5"/>
<rect width="3.94228" height="3.94228" transform="matrix(-1 0 0 1 196.452 44.8922)" fill="#003DA5"/>
<rect width="3.94228" height="3.94228" transform="matrix(-1 0 0 1 175.062 44.8922)" fill="#003DA5"/>
<rect width="3.94228" height="3.94228" transform="matrix(-1 0 0 1 153.672 44.8922)" fill="#003DA5"/>
<rect width="3.94228" height="3.94228" transform="matrix(-1 0 0 1 132.282 44.8922)" fill="#003DA5"/>
<rect width="3.94228" height="3.94228" transform="matrix(-1 0 0 1 110.893 44.8922)" fill="#003DA5"/>
<rect width="3.94228" height="3.94228" transform="matrix(-1 0 0 1 89.502 44.8922)" fill="#003DA5"/>
<rect width="3.94228" height="3.94228" transform="matrix(-1 0 0 1 68.1123 44.8922)" fill="#003DA5"/>
<rect width="3.94228" height="3.94228" transform="matrix(-1 0 0 1 46.7227 44.8922)" fill="#003DA5"/>
<rect width="3.94228" height="3.94228" transform="matrix(-1 0 0 1 25.332 44.8922)" fill="#003DA5"/>
<rect width="3.94228" height="3.94228" transform="matrix(-1 0 0 1 3.94238 44.8922)" fill="#003DA5"/>
<rect width="3.94228" height="3.94228" transform="matrix(-1 0 0 1 532.088 67.3383)" fill="#003DA5"/>
<rect width="3.94228" height="3.94228" transform="matrix(-1 0 0 1 509.642 67.3383)" fill="#003DA5"/>
<rect width="3.94228" height="3.94228" transform="matrix(-1 0 0 1 487.195 67.3383)" fill="#003DA5"/>
<rect width="3.94228" height="3.94228" transform="matrix(-1 0 0 1 464.749 67.3383)" fill="#003DA5"/>
<rect width="3.94228" height="3.94228" transform="matrix(-1 0 0 1 442.304 67.3383)" fill="#003DA5"/>
<rect width="3.94228" height="3.94228" transform="matrix(-1 0 0 1 419.857 67.3383)" fill="#003DA5"/>
<rect width="3.94228" height="3.94228" transform="matrix(-1 0 0 1 397.411 67.3383)" fill="#003DA5"/>
<rect width="3.94228" height="3.94228" transform="matrix(-1 0 0 1 374.965 67.3383)" fill="#003DA5"/>
<rect width="3.94228" height="3.94228" transform="matrix(-1 0 0 1 352.519 67.3383)" fill="#003DA5"/>
<rect width="3.94228" height="3.94228" transform="matrix(-1 0 0 1 217.843 67.3383)" fill="#003DA5"/>
<rect width="3.94228" height="3.94228" transform="matrix(-1 0 0 1 330.073 67.3383)" fill="#003DA5"/>
<rect width="3.94228" height="3.94228" transform="matrix(-1 0 0 1 307.627 67.3383)" fill="#003DA5"/>
<rect width="3.94228" height="3.94228" transform="matrix(-1 0 0 1 285.181 67.3383)" fill="#003DA5"/>
<rect width="3.94228" height="3.94228" transform="matrix(-1 0 0 1 262.734 67.3383)" fill="#003DA5"/>
<rect width="3.94228" height="3.94228" transform="matrix(-1 0 0 1 240.288 67.3383)" fill="#003DA5"/>
<rect width="3.94228" height="3.94228" transform="matrix(-1 0 0 1 196.452 67.3383)" fill="#003DA5"/>
<rect width="3.94228" height="3.94228" transform="matrix(-1 0 0 1 175.062 67.3383)" fill="#003DA5"/>
<rect width="3.94228" height="3.94228" transform="matrix(-1 0 0 1 153.672 67.3383)" fill="#003DA5"/>
<rect width="3.94228" height="3.94228" transform="matrix(-1 0 0 1 132.282 67.3383)" fill="#003DA5"/>
<rect width="3.94228" height="3.94228" transform="matrix(-1 0 0 1 110.893 67.3383)" fill="#003DA5"/>
<rect width="3.94228" height="3.94228" transform="matrix(-1 0 0 1 89.502 67.3383)" fill="#003DA5"/>
<rect width="3.94228" height="3.94228" transform="matrix(-1 0 0 1 68.1123 67.3383)" fill="#003DA5"/>
<rect width="3.94228" height="3.94228" transform="matrix(-1 0 0 1 46.7227 67.3383)" fill="#003DA5"/>
<rect width="3.94228" height="3.94228" transform="matrix(-1 0 0 1 25.332 67.3383)" fill="#003DA5"/>
<rect width="3.94228" height="3.94228" transform="matrix(-1 0 0 1 3.94238 67.3383)" fill="#003DA5"/>
<rect width="3.94228" height="3.94228" transform="matrix(-1 0 0 1 532.088 89.7843)" fill="#003DA5"/>
<rect width="3.94228" height="3.94228" transform="matrix(-1 0 0 1 509.642 89.7843)" fill="#003DA5"/>
<rect width="3.94228" height="3.94228" transform="matrix(-1 0 0 1 487.195 89.7843)" fill="#003DA5"/>
<rect width="3.94228" height="3.94228" transform="matrix(-1 0 0 1 464.749 89.7843)" fill="#003DA5"/>
<rect width="3.94228" height="3.94228" transform="matrix(-1 0 0 1 442.304 89.7843)" fill="#003DA5"/>
<rect width="3.94228" height="3.94228" transform="matrix(-1 0 0 1 419.857 89.7843)" fill="#003DA5"/>
<rect width="3.94228" height="3.94228" transform="matrix(-1 0 0 1 397.411 89.7843)" fill="#003DA5"/>
<rect width="3.94228" height="3.94228" transform="matrix(-1 0 0 1 374.965 89.7843)" fill="#003DA5"/>
<rect width="3.94228" height="3.94228" transform="matrix(-1 0 0 1 217.843 89.7843)" fill="#003DA5"/>
<rect width="3.94228" height="3.94228" transform="matrix(-1 0 0 1 352.519 89.7843)" fill="#003DA5"/>
<rect width="3.94228" height="3.94228" transform="matrix(-1 0 0 1 330.073 89.7843)" fill="#003DA5"/>
<rect width="3.94228" height="3.94228" transform="matrix(-1 0 0 1 307.627 89.7843)" fill="#003DA5"/>
<rect width="3.94228" height="3.94228" transform="matrix(-1 0 0 1 285.181 89.7843)" fill="#003DA5"/>
<rect width="3.94228" height="3.94228" transform="matrix(-1 0 0 1 262.734 89.7843)" fill="#003DA5"/>
<rect width="3.94228" height="3.94228" transform="matrix(-1 0 0 1 240.288 89.7843)" fill="#003DA5"/>
<rect width="3.94228" height="3.94228" transform="matrix(-1 0 0 1 196.452 89.7843)" fill="#003DA5"/>
<rect width="3.94228" height="3.94228" transform="matrix(-1 0 0 1 175.062 89.7843)" fill="#003DA5"/>
<rect width="3.94228" height="3.94228" transform="matrix(-1 0 0 1 153.672 89.7843)" fill="#003DA5"/>
<rect width="3.94228" height="3.94228" transform="matrix(-1 0 0 1 132.282 89.7843)" fill="#003DA5"/>
<rect width="3.94228" height="3.94228" transform="matrix(-1 0 0 1 110.893 89.7843)" fill="#003DA5"/>
<rect width="3.94228" height="3.94228" transform="matrix(-1 0 0 1 89.502 89.7843)" fill="#003DA5"/>
<rect width="3.94228" height="3.94228" transform="matrix(-1 0 0 1 68.1123 89.7843)" fill="#003DA5"/>
<rect width="3.94228" height="3.94228" transform="matrix(-1 0 0 1 3.94238 89.7843)" fill="#003DA5"/>
<rect width="3.94228" height="3.94228" transform="matrix(-1 0 0 1 532.088 112.23)" fill="#003DA5"/>
<rect width="3.94228" height="3.94228" transform="matrix(-1 0 0 1 509.642 112.23)" fill="#003DA5"/>
<rect width="3.94228" height="3.94228" transform="matrix(-1 0 0 1 487.195 112.23)" fill="#003DA5"/>
<rect width="3.94228" height="3.94228" transform="matrix(-1 0 0 1 464.749 112.23)" fill="#003DA5"/>
<rect width="3.94228" height="3.94228" transform="matrix(-1 0 0 1 442.304 112.23)" fill="#003DA5"/>
<rect width="3.94228" height="3.94228" transform="matrix(-1 0 0 1 419.857 112.23)" fill="#003DA5"/>
<rect width="3.94228" height="3.94228" transform="matrix(-1 0 0 1 397.411 112.23)" fill="#003DA5"/>
<rect width="3.94228" height="3.94228" transform="matrix(-1 0 0 1 217.843 112.23)" fill="#003DA5"/>
<rect width="3.94228" height="3.94228" transform="matrix(-1 0 0 1 374.965 112.23)" fill="#003DA5"/>
<rect width="3.94228" height="3.94228" transform="matrix(-1 0 0 1 352.519 112.23)" fill="#003DA5"/>
<rect width="3.94228" height="3.94228" transform="matrix(-1 0 0 1 330.073 112.23)" fill="#003DA5"/>
<rect width="3.94228" height="3.94228" transform="matrix(-1 0 0 1 307.627 112.23)" fill="#003DA5"/>
<rect width="3.94228" height="3.94228" transform="matrix(-1 0 0 1 285.181 112.23)" fill="#003DA5"/>
<rect width="3.94228" height="3.94228" transform="matrix(-1 0 0 1 262.734 112.23)" fill="#003DA5"/>
<rect width="3.94228" height="3.94228" transform="matrix(-1 0 0 1 240.288 112.23)" fill="#003DA5"/>
<rect width="3.94228" height="3.94228" transform="matrix(-1 0 0 1 196.452 112.23)" fill="#003DA5"/>
<rect width="3.94228" height="3.94228" transform="matrix(-1 0 0 1 175.062 112.23)" fill="#003DA5"/>
<rect width="3.94228" height="3.94228" transform="matrix(-1 0 0 1 153.672 112.23)" fill="#003DA5"/>
<rect width="3.94228" height="3.94228" transform="matrix(-1 0 0 1 132.282 112.23)" fill="#003DA5"/>
<rect width="3.94228" height="3.94228" transform="matrix(-1 0 0 1 110.893 112.23)" fill="#003DA5"/>
<rect width="3.94228" height="3.94228" transform="matrix(-1 0 0 1 89.502 112.23)" fill="#003DA5"/>
<rect width="3.94228" height="3.94228" transform="matrix(-1 0 0 1 68.1123 112.23)" fill="#003DA5"/>
<rect width="3.94228" height="3.94228" transform="matrix(-1 0 0 1 3.94238 112.23)" fill="#003DA5"/>
<rect width="3.94228" height="3.94228" transform="matrix(-1 0 0 1 532.088 134.677)" fill="#003DA5"/>
<rect width="3.94228" height="3.94228" transform="matrix(-1 0 0 1 509.642 134.677)" fill="#003DA5"/>
<rect width="3.94228" height="3.94228" transform="matrix(-1 0 0 1 487.195 134.677)" fill="#003DA5"/>
<rect width="3.94228" height="3.94228" transform="matrix(-1 0 0 1 464.749 134.677)" fill="#003DA5"/>
<rect width="3.94228" height="3.94228" transform="matrix(-1 0 0 1 442.304 134.677)" fill="#003DA5"/>
<rect width="3.94228" height="3.94228" transform="matrix(-1 0 0 1 419.857 134.677)" fill="#003DA5"/>
<rect width="3.94228" height="3.94228" transform="matrix(-1 0 0 1 217.843 134.677)" fill="#003DA5"/>
<rect width="3.94228" height="3.94228" transform="matrix(-1 0 0 1 397.411 134.677)" fill="#003DA5"/>
<rect width="3.94228" height="3.94228" transform="matrix(-1 0 0 1 374.965 134.677)" fill="#003DA5"/>
<rect width="3.94228" height="3.94228" transform="matrix(-1 0 0 1 352.519 134.677)" fill="#003DA5"/>
<rect width="3.94228" height="3.94228" transform="matrix(-1 0 0 1 330.073 134.677)" fill="#003DA5"/>
<rect width="3.94228" height="3.94228" transform="matrix(-1 0 0 1 307.627 134.677)" fill="#003DA5"/>
<rect width="3.94228" height="3.94228" transform="matrix(-1 0 0 1 285.181 134.677)" fill="#003DA5"/>
<rect width="3.94228" height="3.94228" transform="matrix(-1 0 0 1 262.734 134.677)" fill="#003DA5"/>
<rect width="3.94228" height="3.94228" transform="matrix(-1 0 0 1 240.288 134.677)" fill="#003DA5"/>
<rect width="3.94228" height="3.94228" transform="matrix(-1 0 0 1 196.452 134.677)" fill="#003DA5"/>
<rect width="3.94228" height="3.94228" transform="matrix(-1 0 0 1 175.062 134.677)" fill="#003DA5"/>
<rect width="3.94228" height="3.94228" transform="matrix(-1 0 0 1 153.672 134.677)" fill="#003DA5"/>
<rect width="3.94228" height="3.94228" transform="matrix(-1 0 0 1 132.282 134.677)" fill="#003DA5"/>
<rect width="3.94228" height="3.94228" transform="matrix(-1 0 0 1 110.893 134.677)" fill="#003DA5"/>
<rect width="3.94228" height="3.94228" transform="matrix(-1 0 0 1 89.502 134.677)" fill="#003DA5"/>
<rect width="3.94228" height="3.94228" transform="matrix(-1 0 0 1 68.1123 134.677)" fill="#003DA5"/>
<rect width="3.94228" height="3.94228" transform="matrix(-1 0 0 1 46.7227 134.677)" fill="#003DA5"/>
<rect width="3.94228" height="3.94228" transform="matrix(-1 0 0 1 25.332 134.677)" fill="#003DA5"/>
<rect width="3.94228" height="3.94228" transform="matrix(-1 0 0 1 3.94238 134.677)" fill="#003DA5"/>
<path d="M25.0896 105.48V102.557H26.0146C26.9766 102.557 27.6796 102.224 28.1236 101.558C28.5676 100.892 28.691 99.9544 28.4936 98.7457L27.6796 93.0847C27.4083 91.1607 27.729 89.6561 28.6416 88.5707C29.579 87.4854 31.0713 86.9427 33.1186 86.9427H35.8566V89.6067H33.5996C32.5883 89.6067 31.836 89.8904 31.3426 90.4577C30.874 91.0251 30.7136 91.7897 30.8616 92.7517L31.6016 98.7087C31.799 100.213 31.6386 101.434 31.1206 102.372C30.6273 103.284 29.912 103.839 28.9746 104.037C29.986 104.234 30.726 104.814 31.1946 105.776C31.6633 106.738 31.799 107.922 31.6016 109.328L30.8616 115.248C30.7383 116.259 30.911 117.036 31.3796 117.579C31.873 118.121 32.613 118.393 33.5996 118.393H35.8566V121.094H33.0446C31.096 121.094 29.6283 120.551 28.6416 119.466C27.6796 118.405 27.359 116.9 27.6796 114.952L28.4936 109.291C28.691 108.033 28.5553 107.083 28.0866 106.442C27.6426 105.8 26.952 105.48 26.0146 105.48H25.0896Z" fill="#003DA5"/>
<path d="M500.482 42.4576L502.517 40.9406L498.854 36.2786L504.515 34.3916L503.701 32.0606L498.188 34.0216V28.0646H495.746V34.0216L490.196 32.0606L489.382 34.3916L494.969 36.2786L491.491 40.9406L493.415 42.4576L497.004 37.6106L500.482 42.4576Z" fill="#003DA5"/>
</svg>
