<svg width="426" height="416" viewBox="0 0 426 416" fill="none" xmlns="http://www.w3.org/2000/svg">
<rect y="0.334717" width="3.94228" height="3.94228" fill="#003DA5"/>
<rect x="22.4453" y="0.334717" width="3.94228" height="3.94228" fill="#003DA5"/>
<rect x="44.8906" y="0.334717" width="3.94228" height="3.94228" fill="#003DA5"/>
<rect x="67.3359" y="0.334717" width="3.94228" height="3.94228" fill="#003DA5"/>
<rect x="89.7852" y="0.334717" width="3.94228" height="3.94228" fill="#003DA5"/>
<rect x="112.23" y="0.334717" width="3.94228" height="3.94228" fill="#003DA5"/>
<rect x="134.676" y="0.334717" width="3.94228" height="3.94228" fill="#003DA5"/>
<rect x="157.125" y="0.334717" width="3.94228" height="3.94228" fill="#003DA5"/>
<rect x="179.57" y="0.334717" width="3.94228" height="3.94228" fill="#003DA5"/>
<rect x="202.016" y="0.334717" width="3.94228" height="3.94228" fill="#003DA5"/>
<rect x="224.461" y="0.334717" width="3.94228" height="3.94228" fill="#003DA5"/>
<rect x="246.906" y="0.334717" width="3.94228" height="3.94228" fill="#003DA5"/>
<rect x="269.352" y="0.334717" width="3.94228" height="3.94228" fill="#003DA5"/>
<rect x="291.797" y="0.334717" width="3.94228" height="3.94228" fill="#003DA5"/>
<rect x="314.246" y="0.334717" width="3.94228" height="3.94228" fill="#003DA5"/>
<rect x="335.633" y="0.334717" width="3.94228" height="3.94228" fill="#003DA5"/>
<rect x="357.023" y="0.334717" width="3.94228" height="3.94228" fill="#003DA5"/>
<rect x="378.414" y="0.334717" width="3.94228" height="3.94228" fill="#003DA5"/>
<rect x="399.805" y="0.334717" width="3.94228" height="3.94228" fill="#003DA5"/>
<rect x="421.195" y="0.334717" width="3.94228" height="3.94228" fill="#003DA5"/>
<rect y="22.7808" width="3.94228" height="3.94228" fill="#003DA5"/>
<rect x="22.4453" y="22.7808" width="3.94228" height="3.94228" fill="#003DA5"/>
<rect x="44.8906" y="22.7808" width="3.94228" height="3.94228" fill="#003DA5"/>
<rect x="67.3359" y="22.7808" width="3.94228" height="3.94228" fill="#003DA5"/>
<rect x="89.7852" y="22.7808" width="3.94228" height="3.94228" fill="#003DA5"/>
<rect x="112.23" y="22.7808" width="3.94228" height="3.94228" fill="#003DA5"/>
<rect x="134.676" y="22.7808" width="3.94228" height="3.94228" fill="#003DA5"/>
<rect x="157.125" y="22.7808" width="3.94228" height="3.94228" fill="#003DA5"/>
<rect x="179.57" y="22.7808" width="3.94228" height="3.94228" fill="#003DA5"/>
<rect x="202.016" y="22.7808" width="3.94228" height="3.94228" fill="#003DA5"/>
<rect x="224.461" y="22.7808" width="3.94228" height="3.94228" fill="#003DA5"/>
<rect x="246.906" y="22.7808" width="3.94228" height="3.94228" fill="#003DA5"/>
<rect x="269.352" y="22.7808" width="3.94228" height="3.94228" fill="#003DA5"/>
<rect x="314.246" y="22.7808" width="3.94228" height="3.94228" fill="#003DA5"/>
<rect x="291.797" y="22.7808" width="3.94228" height="3.94228" fill="#003DA5"/>
<rect x="335.633" y="22.7808" width="3.94228" height="3.94228" fill="#003DA5"/>
<rect x="357.023" y="22.7808" width="3.94228" height="3.94228" fill="#003DA5"/>
<rect x="378.414" y="22.7808" width="3.94228" height="3.94228" fill="#003DA5"/>
<rect x="399.805" y="22.7808" width="3.94228" height="3.94228" fill="#003DA5"/>
<rect x="421.195" y="22.7808" width="3.94228" height="3.94228" fill="#003DA5"/>
<rect y="45.2269" width="3.94228" height="3.94228" fill="#003DA5"/>
<rect x="22.4453" y="45.2269" width="3.94228" height="3.94228" fill="#003DA5"/>
<rect x="44.8906" y="45.2269" width="3.94228" height="3.94228" fill="#003DA5"/>
<rect x="67.3359" y="45.2269" width="3.94228" height="3.94228" fill="#003DA5"/>
<rect x="89.7852" y="45.2269" width="3.94228" height="3.94228" fill="#003DA5"/>
<rect x="112.23" y="45.2269" width="3.94228" height="3.94228" fill="#003DA5"/>
<rect x="134.676" y="45.2269" width="3.94228" height="3.94228" fill="#003DA5"/>
<rect x="157.125" y="45.2269" width="3.94228" height="3.94228" fill="#003DA5"/>
<rect x="179.57" y="45.2269" width="3.94228" height="3.94228" fill="#003DA5"/>
<rect x="202.016" y="45.2269" width="3.94228" height="3.94228" fill="#003DA5"/>
<rect x="224.461" y="45.2269" width="3.94228" height="3.94228" fill="#003DA5"/>
<rect x="246.906" y="45.2269" width="3.94228" height="3.94228" fill="#003DA5"/>
<rect x="314.246" y="45.2269" width="3.94228" height="3.94228" fill="#003DA5"/>
<rect x="269.352" y="45.2269" width="3.94228" height="3.94228" fill="#003DA5"/>
<rect x="291.797" y="45.2269" width="3.94228" height="3.94228" fill="#003DA5"/>
<rect x="335.633" y="45.2269" width="3.94228" height="3.94228" fill="#003DA5"/>
<rect x="357.023" y="45.2269" width="3.94228" height="3.94228" fill="#003DA5"/>
<rect x="378.414" y="45.2269" width="3.94228" height="3.94228" fill="#003DA5"/>
<rect x="399.805" y="45.2269" width="3.94228" height="3.94228" fill="#003DA5"/>
<rect x="421.195" y="45.2269" width="3.94228" height="3.94228" fill="#003DA5"/>
<rect y="67.673" width="3.94228" height="3.94228" fill="#003DA5"/>
<rect x="22.4453" y="67.673" width="3.94228" height="3.94228" fill="#003DA5"/>
<rect x="44.8906" y="67.673" width="3.94228" height="3.94228" fill="#003DA5"/>
<rect x="67.3359" y="67.673" width="3.94228" height="3.94228" fill="#003DA5"/>
<rect x="89.7852" y="67.673" width="3.94228" height="3.94228" fill="#003DA5"/>
<rect x="112.23" y="67.673" width="3.94228" height="3.94228" fill="#003DA5"/>
<rect x="134.676" y="67.673" width="3.94228" height="3.94228" fill="#003DA5"/>
<rect x="157.121" y="67.673" width="3.94228" height="3.94228" fill="#003DA5"/>
<rect x="179.57" y="67.673" width="3.94228" height="3.94228" fill="#003DA5"/>
<rect x="202.016" y="67.673" width="3.94228" height="3.94228" fill="#003DA5"/>
<rect x="224.461" y="67.673" width="3.94228" height="3.94228" fill="#003DA5"/>
<rect x="314.246" y="67.673" width="3.94228" height="3.94228" fill="#003DA5"/>
<rect x="246.906" y="67.673" width="3.94228" height="3.94228" fill="#003DA5"/>
<rect x="269.352" y="67.673" width="3.94228" height="3.94228" fill="#003DA5"/>
<rect x="291.797" y="67.673" width="3.94228" height="3.94228" fill="#003DA5"/>
<rect x="335.633" y="67.673" width="3.94228" height="3.94228" fill="#003DA5"/>
<rect x="357.023" y="67.673" width="3.94228" height="3.94228" fill="#003DA5"/>
<rect x="378.414" y="67.673" width="3.94228" height="3.94228" fill="#003DA5"/>
<rect x="399.805" y="67.673" width="3.94228" height="3.94228" fill="#003DA5"/>
<rect x="421.195" y="67.673" width="3.94228" height="3.94228" fill="#003DA5"/>
<rect y="90.1191" width="3.94228" height="3.94228" fill="#003DA5"/>
<rect x="22.4453" y="90.1191" width="3.94228" height="3.94228" fill="#003DA5"/>
<rect x="44.8906" y="90.1191" width="3.94228" height="3.94228" fill="#003DA5"/>
<rect x="67.3359" y="90.1191" width="3.94228" height="3.94228" fill="#003DA5"/>
<rect x="89.7852" y="90.1191" width="3.94228" height="3.94228" fill="#003DA5"/>
<rect x="112.23" y="90.1191" width="3.94228" height="3.94228" fill="#003DA5"/>
<rect x="134.676" y="90.1191" width="3.94228" height="3.94228" fill="#003DA5"/>
<rect x="157.121" y="90.1191" width="3.94228" height="3.94228" fill="#003DA5"/>
<rect x="179.57" y="90.1191" width="3.94228" height="3.94228" fill="#003DA5"/>
<rect x="202.016" y="90.1191" width="3.94228" height="3.94228" fill="#003DA5"/>
<rect x="224.461" y="90.1191" width="3.94228" height="3.94228" fill="#003DA5"/>
<rect x="246.906" y="90.1191" width="3.94228" height="3.94228" fill="#003DA5"/>
<rect x="269.352" y="90.1191" width="3.94228" height="3.94228" fill="#003DA5"/>
<rect x="335.633" y="90.1191" width="3.94228" height="3.94228" fill="#003DA5"/>
<rect x="357.023" y="90.1191" width="3.94228" height="3.94228" fill="#003DA5"/>
<rect x="378.414" y="90.1191" width="3.94228" height="3.94228" fill="#003DA5"/>
<rect x="399.805" y="90.1191" width="3.94228" height="3.94228" fill="#003DA5"/>
<rect x="421.195" y="90.1191" width="3.94228" height="3.94228" fill="#003DA5"/>
<rect y="112.565" width="3.94228" height="3.94228" fill="#003DA5"/>
<rect x="22.4453" y="112.565" width="3.94228" height="3.94228" fill="#003DA5"/>
<rect x="44.8906" y="112.565" width="3.94228" height="3.94228" fill="#003DA5"/>
<rect x="67.3359" y="112.565" width="3.94228" height="3.94228" fill="#003DA5"/>
<rect x="89.7852" y="112.565" width="3.94228" height="3.94228" fill="#003DA5"/>
<rect x="112.23" y="112.565" width="3.94228" height="3.94228" fill="#003DA5"/>
<rect x="134.676" y="112.565" width="3.94228" height="3.94228" fill="#003DA5"/>
<rect x="157.125" y="112.565" width="3.94228" height="3.94228" fill="#003DA5"/>
<rect x="179.57" y="112.565" width="3.94228" height="3.94228" fill="#003DA5"/>
<rect x="202.016" y="112.565" width="3.94228" height="3.94228" fill="#003DA5"/>
<rect x="224.461" y="112.565" width="3.94228" height="3.94228" fill="#003DA5"/>
<rect x="246.906" y="112.565" width="3.94228" height="3.94228" fill="#003DA5"/>
<rect x="269.352" y="112.565" width="3.94228" height="3.94228" fill="#003DA5"/>
<rect x="335.633" y="112.565" width="3.94228" height="3.94228" fill="#003DA5"/>
<rect x="357.023" y="112.565" width="3.94228" height="3.94228" fill="#003DA5"/>
<rect x="378.414" y="112.565" width="3.94228" height="3.94228" fill="#003DA5"/>
<rect x="399.805" y="112.565" width="3.94228" height="3.94228" fill="#003DA5"/>
<rect x="421.195" y="112.565" width="3.94228" height="3.94228" fill="#003DA5"/>
<rect y="135.011" width="3.94228" height="3.94228" fill="#003DA5"/>
<rect x="22.4453" y="135.011" width="3.94228" height="3.94228" fill="#003DA5"/>
<rect x="44.8906" y="135.011" width="3.94228" height="3.94228" fill="#003DA5"/>
<rect x="67.3359" y="135.011" width="3.94228" height="3.94228" fill="#003DA5"/>
<rect x="89.7852" y="135.011" width="3.94228" height="3.94228" fill="#003DA5"/>
<rect x="112.23" y="135.011" width="3.94228" height="3.94228" fill="#003DA5"/>
<rect x="134.676" y="135.011" width="3.94228" height="3.94228" fill="#003DA5"/>
<rect x="157.125" y="135.011" width="3.94228" height="3.94228" fill="#003DA5"/>
<rect x="314.246" y="135.011" width="3.94228" height="3.94228" fill="#003DA5"/>
<rect x="179.57" y="135.011" width="3.94228" height="3.94228" fill="#003DA5"/>
<rect x="202.016" y="135.011" width="3.94228" height="3.94228" fill="#003DA5"/>
<rect x="224.461" y="135.011" width="3.94228" height="3.94228" fill="#003DA5"/>
<rect x="246.906" y="135.011" width="3.94228" height="3.94228" fill="#003DA5"/>
<rect x="269.352" y="135.011" width="3.94228" height="3.94228" fill="#003DA5"/>
<rect x="291.797" y="135.011" width="3.94228" height="3.94228" fill="#003DA5"/>
<rect x="335.633" y="135.011" width="3.94228" height="3.94228" fill="#003DA5"/>
<rect x="357.023" y="135.011" width="3.94228" height="3.94228" fill="#003DA5"/>
<rect x="378.414" y="135.011" width="3.94228" height="3.94228" fill="#003DA5"/>
<rect x="399.805" y="135.011" width="3.94228" height="3.94228" fill="#003DA5"/>
<rect x="421.195" y="135.011" width="3.94228" height="3.94228" fill="#003DA5"/>
<rect y="157.457" width="3.94228" height="3.94228" fill="#003DA5"/>
<rect x="22.4453" y="157.457" width="3.94228" height="3.94228" fill="#003DA5"/>
<rect x="44.8906" y="157.457" width="3.94228" height="3.94228" fill="#003DA5"/>
<rect x="112.23" y="157.457" width="3.94228" height="3.94228" fill="#003DA5"/>
<rect x="134.676" y="157.457" width="3.94228" height="3.94228" fill="#003DA5"/>
<rect x="314.246" y="157.457" width="3.94228" height="3.94228" fill="#003DA5"/>
<rect x="157.125" y="157.457" width="3.94228" height="3.94228" fill="#003DA5"/>
<rect x="179.57" y="157.457" width="3.94228" height="3.94228" fill="#003DA5"/>
<rect x="202.016" y="157.457" width="3.94228" height="3.94228" fill="#003DA5"/>
<rect x="224.461" y="157.457" width="3.94228" height="3.94228" fill="#003DA5"/>
<rect x="246.906" y="157.457" width="3.94228" height="3.94228" fill="#003DA5"/>
<rect x="269.352" y="157.457" width="3.94228" height="3.94228" fill="#003DA5"/>
<rect x="291.797" y="157.457" width="3.94228" height="3.94228" fill="#003DA5"/>
<rect x="335.633" y="157.457" width="3.94228" height="3.94228" fill="#003DA5"/>
<rect x="357.023" y="157.457" width="3.94228" height="3.94228" fill="#003DA5"/>
<rect x="378.414" y="157.457" width="3.94228" height="3.94228" fill="#003DA5"/>
<rect x="399.805" y="157.457" width="3.94228" height="3.94228" fill="#003DA5"/>
<rect x="421.195" y="157.457" width="3.94228" height="3.94228" fill="#003DA5"/>
<rect y="179.903" width="3.94228" height="3.94228" fill="#003DA5"/>
<rect x="22.4453" y="179.903" width="3.94228" height="3.94228" fill="#003DA5"/>
<rect x="44.8906" y="179.903" width="3.94228" height="3.94228" fill="#003DA5"/>
<rect x="112.23" y="179.903" width="3.94228" height="3.94228" fill="#003DA5"/>
<rect x="314.246" y="179.903" width="3.94228" height="3.94228" fill="#003DA5"/>
<rect x="134.676" y="179.903" width="3.94228" height="3.94228" fill="#003DA5"/>
<rect x="157.125" y="179.903" width="3.94228" height="3.94228" fill="#003DA5"/>
<rect x="179.57" y="179.903" width="3.94228" height="3.94228" fill="#003DA5"/>
<rect x="202.016" y="179.903" width="3.94228" height="3.94228" fill="#003DA5"/>
<rect x="224.461" y="179.903" width="3.94228" height="3.94228" fill="#003DA5"/>
<rect x="246.906" y="179.903" width="3.94228" height="3.94228" fill="#003DA5"/>
<rect x="269.352" y="179.903" width="3.94228" height="3.94228" fill="#003DA5"/>
<rect x="291.797" y="179.903" width="3.94228" height="3.94228" fill="#003DA5"/>
<rect x="335.633" y="179.903" width="3.94228" height="3.94228" fill="#003DA5"/>
<rect x="357.023" y="179.903" width="3.94228" height="3.94228" fill="#003DA5"/>
<rect x="378.414" y="179.903" width="3.94228" height="3.94228" fill="#003DA5"/>
<rect x="399.805" y="179.903" width="3.94228" height="3.94228" fill="#003DA5"/>
<rect x="421.195" y="179.903" width="3.94228" height="3.94228" fill="#003DA5"/>
<rect y="199.21" width="3.94228" height="3.94228" fill="#003DA5"/>
<rect y="218.517" width="3.94228" height="3.94228" fill="#003DA5"/>
<rect y="237.824" width="3.94228" height="3.94228" fill="#003DA5"/>
<rect y="257.13" width="3.94228" height="3.94228" fill="#003DA5"/>
<rect y="276.437" width="3.94228" height="3.94228" fill="#003DA5"/>
<rect y="295.744" width="3.94228" height="3.94228" fill="#003DA5"/>
<rect y="315.051" width="3.94228" height="3.94228" fill="#003DA5"/>
<rect y="334.358" width="3.94228" height="3.94228" fill="#003DA5"/>
<rect y="353.664" width="3.94228" height="3.94228" fill="#003DA5"/>
<rect y="372.971" width="3.94228" height="3.94228" fill="#003DA5"/>
<rect y="392.278" width="3.94228" height="3.94228" fill="#003DA5"/>
<rect y="411.585" width="3.94228" height="3.94228" fill="#003DA5"/>
<rect x="22.4453" y="199.21" width="3.94228" height="3.94228" fill="#003DA5"/>
<rect x="22.4453" y="218.517" width="3.94228" height="3.94228" fill="#003DA5"/>
<rect x="22.4453" y="237.824" width="3.94228" height="3.94228" fill="#003DA5"/>
<rect x="22.4453" y="257.13" width="3.94228" height="3.94228" fill="#003DA5"/>
<rect x="22.4453" y="276.437" width="3.94228" height="3.94228" fill="#003DA5"/>
<rect x="22.4453" y="295.744" width="3.94228" height="3.94228" fill="#003DA5"/>
<rect x="22.4453" y="315.051" width="3.94228" height="3.94228" fill="#003DA5"/>
<rect x="22.4453" y="334.358" width="3.94228" height="3.94228" fill="#003DA5"/>
<rect x="22.4453" y="353.664" width="3.94228" height="3.94228" fill="#003DA5"/>
<rect x="22.4453" y="372.971" width="3.94228" height="3.94228" fill="#003DA5"/>
<rect x="22.4453" y="392.278" width="3.94228" height="3.94228" fill="#003DA5"/>
<rect x="22.4453" y="411.585" width="3.94228" height="3.94228" fill="#003DA5"/>
<rect x="44.8906" y="199.21" width="3.94228" height="3.94228" fill="#003DA5"/>
<rect x="44.8906" y="218.517" width="3.94228" height="3.94228" fill="#003DA5"/>
<rect x="44.8906" y="237.824" width="3.94228" height="3.94228" fill="#003DA5"/>
<rect x="44.8906" y="257.13" width="3.94228" height="3.94228" fill="#003DA5"/>
<rect x="44.8906" y="276.437" width="3.94228" height="3.94228" fill="#003DA5"/>
<rect x="44.8906" y="295.744" width="3.94228" height="3.94228" fill="#003DA5"/>
<rect x="44.8906" y="315.051" width="3.94228" height="3.94228" fill="#003DA5"/>
<rect x="44.8906" y="334.358" width="3.94228" height="3.94228" fill="#003DA5"/>
<rect x="44.8906" y="353.664" width="3.94228" height="3.94228" fill="#003DA5"/>
<rect x="44.8906" y="372.971" width="3.94228" height="3.94228" fill="#003DA5"/>
<rect x="44.8906" y="392.278" width="3.94228" height="3.94228" fill="#003DA5"/>
<rect x="44.8906" y="411.585" width="3.94228" height="3.94228" fill="#003DA5"/>
<rect x="67.3359" y="199.21" width="3.94228" height="3.94228" fill="#003DA5"/>
<rect x="67.3359" y="218.517" width="3.94228" height="3.94228" fill="#003DA5"/>
<rect x="67.3359" y="237.824" width="3.94228" height="3.94228" fill="#003DA5"/>
<rect x="67.3359" y="257.13" width="3.94228" height="3.94228" fill="#003DA5"/>
<rect x="67.3359" y="276.437" width="3.94228" height="3.94228" fill="#003DA5"/>
<rect x="67.3359" y="295.744" width="3.94228" height="3.94228" fill="#003DA5"/>
<rect x="67.3359" y="315.051" width="3.94228" height="3.94228" fill="#003DA5"/>
<rect x="67.3359" y="334.358" width="3.94228" height="3.94228" fill="#003DA5"/>
<rect x="67.3359" y="353.664" width="3.94228" height="3.94228" fill="#003DA5"/>
<rect x="67.3359" y="372.971" width="3.94228" height="3.94228" fill="#003DA5"/>
<rect x="67.3359" y="392.278" width="3.94228" height="3.94228" fill="#003DA5"/>
<rect x="67.3359" y="411.585" width="3.94228" height="3.94228" fill="#003DA5"/>
<rect x="89.7852" y="199.21" width="3.94228" height="3.94228" fill="#003DA5"/>
<rect x="89.7852" y="218.517" width="3.94228" height="3.94228" fill="#003DA5"/>
<rect x="89.7852" y="237.824" width="3.94228" height="3.94228" fill="#003DA5"/>
<rect x="89.7852" y="257.13" width="3.94228" height="3.94228" fill="#003DA5"/>
<rect x="89.7852" y="276.437" width="3.94228" height="3.94228" fill="#003DA5"/>
<rect x="89.7852" y="295.744" width="3.94228" height="3.94228" fill="#003DA5"/>
<rect x="89.7852" y="315.051" width="3.94228" height="3.94228" fill="#003DA5"/>
<rect x="89.7852" y="334.358" width="3.94228" height="3.94228" fill="#003DA5"/>
<rect x="89.7852" y="353.664" width="3.94228" height="3.94228" fill="#003DA5"/>
<rect x="89.7852" y="372.971" width="3.94228" height="3.94228" fill="#003DA5"/>
<rect x="89.7852" y="392.278" width="3.94228" height="3.94228" fill="#003DA5"/>
<rect x="89.7852" y="411.585" width="3.94228" height="3.94228" fill="#003DA5"/>
<rect x="112.23" y="199.21" width="3.94228" height="3.94228" fill="#003DA5"/>
<rect x="112.23" y="218.517" width="3.94228" height="3.94228" fill="#003DA5"/>
<rect x="112.23" y="237.824" width="3.94228" height="3.94228" fill="#003DA5"/>
<rect x="112.23" y="257.13" width="3.94228" height="3.94228" fill="#003DA5"/>
<rect x="112.23" y="276.437" width="3.94228" height="3.94228" fill="#003DA5"/>
<rect x="112.23" y="295.744" width="3.94228" height="3.94228" fill="#003DA5"/>
<rect x="112.23" y="315.051" width="3.94228" height="3.94228" fill="#003DA5"/>
<rect x="112.23" y="334.358" width="3.94228" height="3.94228" fill="#003DA5"/>
<rect x="112.23" y="353.664" width="3.94228" height="3.94228" fill="#003DA5"/>
<rect x="112.23" y="372.971" width="3.94228" height="3.94228" fill="#003DA5"/>
<rect x="112.23" y="392.278" width="3.94228" height="3.94228" fill="#003DA5"/>
<rect x="112.23" y="411.585" width="3.94228" height="3.94228" fill="#003DA5"/>
<rect x="314.246" y="199.21" width="3.94228" height="3.94228" fill="#003DA5"/>
<rect x="314.246" y="218.517" width="3.94228" height="3.94228" fill="#003DA5"/>
<rect x="314.246" y="237.824" width="3.94228" height="3.94228" fill="#003DA5"/>
<rect x="314.246" y="257.13" width="3.94228" height="3.94228" fill="#003DA5"/>
<rect x="314.246" y="276.437" width="3.94228" height="3.94228" fill="#003DA5"/>
<rect x="314.246" y="295.744" width="3.94228" height="3.94228" fill="#003DA5"/>
<rect x="314.246" y="315.051" width="3.94228" height="3.94228" fill="#003DA5"/>
<rect x="314.246" y="334.358" width="3.94228" height="3.94228" fill="#003DA5"/>
<rect x="314.246" y="353.664" width="3.94228" height="3.94228" fill="#003DA5"/>
<rect x="314.246" y="372.971" width="3.94228" height="3.94228" fill="#003DA5"/>
<rect x="314.246" y="392.278" width="3.94228" height="3.94228" fill="#003DA5"/>
<rect x="314.246" y="411.585" width="3.94228" height="3.94228" fill="#003DA5"/>
<rect x="134.676" y="199.21" width="3.94228" height="3.94228" fill="#003DA5"/>
<rect x="134.676" y="218.517" width="3.94228" height="3.94228" fill="#003DA5"/>
<rect x="134.676" y="237.824" width="3.94228" height="3.94228" fill="#003DA5"/>
<rect x="134.676" y="257.13" width="3.94228" height="3.94228" fill="#003DA5"/>
<rect x="134.676" y="276.437" width="3.94228" height="3.94228" fill="#003DA5"/>
<rect x="134.676" y="295.744" width="3.94228" height="3.94228" fill="#003DA5"/>
<rect x="134.676" y="315.051" width="3.94228" height="3.94228" fill="#003DA5"/>
<rect x="134.676" y="334.358" width="3.94228" height="3.94228" fill="#003DA5"/>
<rect x="134.676" y="353.664" width="3.94228" height="3.94228" fill="#003DA5"/>
<rect x="134.676" y="372.971" width="3.94228" height="3.94228" fill="#003DA5"/>
<rect x="134.676" y="392.278" width="3.94228" height="3.94228" fill="#003DA5"/>
<rect x="134.676" y="411.585" width="3.94228" height="3.94228" fill="#003DA5"/>
<rect x="157.125" y="199.21" width="3.94228" height="3.94228" fill="#003DA5"/>
<rect x="157.125" y="218.517" width="3.94228" height="3.94228" fill="#003DA5"/>
<rect x="157.125" y="237.824" width="3.94228" height="3.94228" fill="#003DA5"/>
<rect x="157.125" y="257.13" width="3.94228" height="3.94228" fill="#003DA5"/>
<rect x="157.125" y="276.437" width="3.94228" height="3.94228" fill="#003DA5"/>
<rect x="157.125" y="295.744" width="3.94228" height="3.94228" fill="#003DA5"/>
<rect x="157.125" y="315.051" width="3.94228" height="3.94228" fill="#003DA5"/>
<rect x="157.125" y="334.358" width="3.94228" height="3.94228" fill="#003DA5"/>
<rect x="157.125" y="353.664" width="3.94228" height="3.94228" fill="#003DA5"/>
<rect x="157.125" y="372.971" width="3.94228" height="3.94228" fill="#003DA5"/>
<rect x="157.125" y="392.278" width="3.94228" height="3.94228" fill="#003DA5"/>
<rect x="157.125" y="411.585" width="3.94228" height="3.94228" fill="#003DA5"/>
<rect x="179.57" y="199.21" width="3.94228" height="3.94228" fill="#003DA5"/>
<rect x="179.57" y="218.517" width="3.94228" height="3.94228" fill="#003DA5"/>
<rect x="179.57" y="237.824" width="3.94228" height="3.94228" fill="#003DA5"/>
<rect x="179.57" y="257.13" width="3.94228" height="3.94228" fill="#003DA5"/>
<rect x="179.57" y="276.437" width="3.94228" height="3.94228" fill="#003DA5"/>
<rect x="179.57" y="295.744" width="3.94228" height="3.94228" fill="#003DA5"/>
<rect x="179.57" y="315.051" width="3.94228" height="3.94228" fill="#003DA5"/>
<rect x="179.57" y="334.358" width="3.94228" height="3.94228" fill="#003DA5"/>
<rect x="179.57" y="353.664" width="3.94228" height="3.94228" fill="#003DA5"/>
<rect x="179.57" y="372.971" width="3.94228" height="3.94228" fill="#003DA5"/>
<rect x="179.57" y="392.278" width="3.94228" height="3.94228" fill="#003DA5"/>
<rect x="179.57" y="411.585" width="3.94228" height="3.94228" fill="#003DA5"/>
<rect x="202.016" y="199.21" width="3.94228" height="3.94228" fill="#003DA5"/>
<rect x="202.016" y="218.517" width="3.94228" height="3.94228" fill="#003DA5"/>
<rect x="202.016" y="237.824" width="3.94228" height="3.94228" fill="#003DA5"/>
<rect x="202.016" y="257.13" width="3.94228" height="3.94228" fill="#003DA5"/>
<rect x="202.016" y="276.437" width="3.94228" height="3.94228" fill="#003DA5"/>
<rect x="202.016" y="295.744" width="3.94228" height="3.94228" fill="#003DA5"/>
<rect x="202.016" y="315.051" width="3.94228" height="3.94228" fill="#003DA5"/>
<rect x="202.016" y="334.358" width="3.94228" height="3.94228" fill="#003DA5"/>
<rect x="202.016" y="353.664" width="3.94228" height="3.94228" fill="#003DA5"/>
<rect x="202.016" y="372.971" width="3.94228" height="3.94228" fill="#003DA5"/>
<rect x="202.016" y="392.278" width="3.94228" height="3.94228" fill="#003DA5"/>
<rect x="202.016" y="411.585" width="3.94228" height="3.94228" fill="#003DA5"/>
<rect x="224.461" y="199.21" width="3.94228" height="3.94228" fill="#003DA5"/>
<rect x="224.461" y="218.517" width="3.94228" height="3.94228" fill="#003DA5"/>
<rect x="224.461" y="237.824" width="3.94228" height="3.94228" fill="#003DA5"/>
<rect x="224.461" y="257.13" width="3.94228" height="3.94228" fill="#003DA5"/>
<rect x="224.461" y="276.437" width="3.94228" height="3.94228" fill="#003DA5"/>
<rect x="224.461" y="295.744" width="3.94228" height="3.94228" fill="#003DA5"/>
<rect x="224.461" y="315.051" width="3.94228" height="3.94228" fill="#003DA5"/>
<rect x="224.461" y="334.358" width="3.94228" height="3.94228" fill="#003DA5"/>
<rect x="224.461" y="353.664" width="3.94228" height="3.94228" fill="#003DA5"/>
<rect x="224.461" y="372.971" width="3.94228" height="3.94228" fill="#003DA5"/>
<rect x="224.461" y="392.278" width="3.94228" height="3.94228" fill="#003DA5"/>
<rect x="224.461" y="411.585" width="3.94228" height="3.94228" fill="#003DA5"/>
<rect x="246.906" y="199.21" width="3.94228" height="3.94228" fill="#003DA5"/>
<rect x="246.906" y="218.517" width="3.94228" height="3.94228" fill="#003DA5"/>
<rect x="246.906" y="237.824" width="3.94228" height="3.94228" fill="#003DA5"/>
<rect x="246.906" y="257.13" width="3.94228" height="3.94228" fill="#003DA5"/>
<rect x="246.906" y="276.437" width="3.94228" height="3.94228" fill="#003DA5"/>
<rect x="246.906" y="295.744" width="3.94228" height="3.94228" fill="#003DA5"/>
<rect x="246.906" y="315.051" width="3.94228" height="3.94228" fill="#003DA5"/>
<rect x="246.906" y="334.358" width="3.94228" height="3.94228" fill="#003DA5"/>
<rect x="246.906" y="353.664" width="3.94228" height="3.94228" fill="#003DA5"/>
<rect x="246.906" y="372.971" width="3.94228" height="3.94228" fill="#003DA5"/>
<rect x="246.906" y="392.278" width="3.94228" height="3.94228" fill="#003DA5"/>
<rect x="246.906" y="411.585" width="3.94228" height="3.94228" fill="#003DA5"/>
<rect x="269.352" y="199.21" width="3.94228" height="3.94228" fill="#003DA5"/>
<rect x="269.352" y="218.517" width="3.94228" height="3.94228" fill="#003DA5"/>
<rect x="269.352" y="237.824" width="3.94228" height="3.94228" fill="#003DA5"/>
<rect x="269.352" y="257.13" width="3.94228" height="3.94228" fill="#003DA5"/>
<rect x="269.352" y="276.437" width="3.94228" height="3.94228" fill="#003DA5"/>
<rect x="269.352" y="295.744" width="3.94228" height="3.94228" fill="#003DA5"/>
<rect x="269.352" y="315.051" width="3.94228" height="3.94228" fill="#003DA5"/>
<rect x="269.352" y="334.358" width="3.94228" height="3.94228" fill="#003DA5"/>
<rect x="269.352" y="353.664" width="3.94228" height="3.94228" fill="#003DA5"/>
<rect x="269.352" y="372.971" width="3.94228" height="3.94228" fill="#003DA5"/>
<rect x="269.352" y="392.278" width="3.94228" height="3.94228" fill="#003DA5"/>
<rect x="269.352" y="411.585" width="3.94228" height="3.94228" fill="#003DA5"/>
<rect x="291.797" y="199.21" width="3.94228" height="3.94228" fill="#003DA5"/>
<rect x="291.797" y="218.517" width="3.94228" height="3.94228" fill="#003DA5"/>
<rect x="291.797" y="237.824" width="3.94228" height="3.94228" fill="#003DA5"/>
<rect x="291.797" y="257.13" width="3.94228" height="3.94228" fill="#003DA5"/>
<rect x="291.797" y="276.437" width="3.94228" height="3.94228" fill="#003DA5"/>
<rect x="291.797" y="295.744" width="3.94228" height="3.94228" fill="#003DA5"/>
<rect x="291.797" y="315.051" width="3.94228" height="3.94228" fill="#003DA5"/>
<rect x="291.797" y="334.358" width="3.94228" height="3.94228" fill="#003DA5"/>
<rect x="291.797" y="353.664" width="3.94228" height="3.94228" fill="#003DA5"/>
<rect x="291.797" y="372.971" width="3.94228" height="3.94228" fill="#003DA5"/>
<rect x="291.797" y="392.278" width="3.94228" height="3.94228" fill="#003DA5"/>
<rect x="291.797" y="411.585" width="3.94228" height="3.94228" fill="#003DA5"/>
<rect x="335.633" y="199.21" width="3.94228" height="3.94228" fill="#003DA5"/>
<rect x="335.633" y="218.517" width="3.94228" height="3.94228" fill="#003DA5"/>
<rect x="335.633" y="237.824" width="3.94228" height="3.94228" fill="#003DA5"/>
<rect x="335.633" y="257.13" width="3.94228" height="3.94228" fill="#003DA5"/>
<rect x="335.633" y="276.437" width="3.94228" height="3.94228" fill="#003DA5"/>
<rect x="335.633" y="295.744" width="3.94228" height="3.94228" fill="#003DA5"/>
<rect x="335.633" y="315.051" width="3.94228" height="3.94228" fill="#003DA5"/>
<rect x="335.633" y="334.358" width="3.94228" height="3.94228" fill="#003DA5"/>
<rect x="335.633" y="353.664" width="3.94228" height="3.94228" fill="#003DA5"/>
<rect x="335.633" y="372.971" width="3.94228" height="3.94228" fill="#003DA5"/>
<rect x="335.633" y="392.278" width="3.94228" height="3.94228" fill="#003DA5"/>
<rect x="335.633" y="411.585" width="3.94228" height="3.94228" fill="#003DA5"/>
<rect x="357.023" y="199.21" width="3.94228" height="3.94228" fill="#003DA5"/>
<rect x="357.023" y="218.517" width="3.94228" height="3.94228" fill="#003DA5"/>
<rect x="357.023" y="237.824" width="3.94228" height="3.94228" fill="#003DA5"/>
<rect x="357.023" y="257.13" width="3.94228" height="3.94228" fill="#003DA5"/>
<rect x="357.023" y="276.437" width="3.94228" height="3.94228" fill="#003DA5"/>
<rect x="357.023" y="295.744" width="3.94228" height="3.94228" fill="#003DA5"/>
<rect x="357.023" y="315.051" width="3.94228" height="3.94228" fill="#003DA5"/>
<rect x="357.023" y="334.358" width="3.94228" height="3.94228" fill="#003DA5"/>
<rect x="357.023" y="392.278" width="3.94228" height="3.94228" fill="#003DA5"/>
<rect x="357.023" y="411.585" width="3.94228" height="3.94228" fill="#003DA5"/>
<rect x="378.414" y="199.21" width="3.94228" height="3.94228" fill="#003DA5"/>
<rect x="378.414" y="218.517" width="3.94228" height="3.94228" fill="#003DA5"/>
<rect x="378.414" y="237.824" width="3.94228" height="3.94228" fill="#003DA5"/>
<rect x="378.414" y="257.13" width="3.94228" height="3.94228" fill="#003DA5"/>
<rect x="378.414" y="276.437" width="3.94228" height="3.94228" fill="#003DA5"/>
<rect x="378.414" y="295.744" width="3.94228" height="3.94228" fill="#003DA5"/>
<rect x="378.414" y="315.051" width="3.94228" height="3.94228" fill="#003DA5"/>
<rect x="378.414" y="334.358" width="3.94228" height="3.94228" fill="#003DA5"/>
<rect x="378.414" y="392.278" width="3.94228" height="3.94228" fill="#003DA5"/>
<rect x="378.414" y="411.585" width="3.94228" height="3.94228" fill="#003DA5"/>
<rect x="399.805" y="199.21" width="3.94228" height="3.94228" fill="#003DA5"/>
<rect x="399.805" y="218.517" width="3.94228" height="3.94228" fill="#003DA5"/>
<rect x="399.805" y="237.824" width="3.94228" height="3.94228" fill="#003DA5"/>
<rect x="399.805" y="257.13" width="3.94228" height="3.94228" fill="#003DA5"/>
<rect x="399.805" y="276.437" width="3.94228" height="3.94228" fill="#003DA5"/>
<rect x="399.805" y="295.744" width="3.94228" height="3.94228" fill="#003DA5"/>
<rect x="399.805" y="315.051" width="3.94228" height="3.94228" fill="#003DA5"/>
<rect x="399.805" y="334.358" width="3.94228" height="3.94228" fill="#003DA5"/>
<rect x="399.805" y="353.664" width="3.94228" height="3.94228" fill="#003DA5"/>
<rect x="399.805" y="372.971" width="3.94228" height="3.94228" fill="#003DA5"/>
<rect x="399.805" y="392.278" width="3.94228" height="3.94228" fill="#003DA5"/>
<rect x="399.805" y="411.585" width="3.94228" height="3.94228" fill="#003DA5"/>
<rect x="421.195" y="199.21" width="3.94228" height="3.94228" fill="#003DA5"/>
<rect x="421.195" y="218.517" width="3.94228" height="3.94228" fill="#003DA5"/>
<rect x="421.195" y="237.824" width="3.94228" height="3.94228" fill="#003DA5"/>
<rect x="421.195" y="257.13" width="3.94228" height="3.94228" fill="#003DA5"/>
<rect x="421.195" y="276.437" width="3.94228" height="3.94228" fill="#003DA5"/>
<rect x="421.195" y="295.744" width="3.94228" height="3.94228" fill="#003DA5"/>
<rect x="421.195" y="315.051" width="3.94228" height="3.94228" fill="#003DA5"/>
<rect x="421.195" y="334.358" width="3.94228" height="3.94228" fill="#003DA5"/>
<rect x="421.195" y="353.664" width="3.94228" height="3.94228" fill="#003DA5"/>
<rect x="421.195" y="372.971" width="3.94228" height="3.94228" fill="#003DA5"/>
<rect x="421.195" y="392.278" width="3.94228" height="3.94228" fill="#003DA5"/>
<rect x="421.195" y="411.585" width="3.94228" height="3.94228" fill="#003DA5"/>
<path d="M365.631 372.027L363.596 370.51L367.259 365.848L361.598 363.961L362.412 361.63L367.925 363.591V357.634H370.367V363.591L375.917 361.63L376.731 363.961L371.144 365.848L374.622 370.51L372.698 372.027L369.109 367.18L365.631 372.027Z" fill="#003DA5"/>
<path d="M296.02 116.507L306.343 89.5344H310.043L299.757 116.507H296.02Z" fill="#003DA5"/>
<path d="M87.7344 178.064L69.3454 170.664V167.556L87.7344 160.119V163.56L73.5264 168.925V169.221L87.7344 174.549V178.064Z" fill="#003DA5"/>
</svg>
