<svg width="21" height="21" viewBox="0 0 21 21" fill="none" xmlns="http://www.w3.org/2000/svg">
<path fill-rule="evenodd" clip-rule="evenodd" d="M15.2412 0.599121H5.24121C2.47979 0.599121 0.241211 2.8377 0.241211 5.59912V15.5991C0.241211 18.3605 2.47979 20.5991 5.24121 20.5991H15.2412C18.0026 20.5991 20.2412 18.3605 20.2412 15.5991V5.59912C20.2412 2.8377 18.0026 0.599121 15.2412 0.599121ZM14.5038 10.5991C14.5038 12.9532 12.5953 14.8617 10.2411 14.8617C7.88696 14.8617 5.97852 12.9532 5.97852 10.5991C5.97852 8.24487 7.88696 6.33643 10.2411 6.33643C12.5953 6.33643 14.5038 8.24487 14.5038 10.5991ZM15.6498 6.17126C16.2719 6.17126 16.7762 5.66696 16.7762 5.04486C16.7762 4.42277 16.2719 3.91846 15.6498 3.91846C15.0277 3.91846 14.5234 4.42277 14.5234 5.04486C14.5234 5.66696 15.0277 6.17126 15.6498 6.17126Z" fill="#E3F5FF"/>
</svg>
