<svg width="21" height="20" viewBox="0 0 21 20" fill="none" xmlns="http://www.w3.org/2000/svg">
<path d="M14.2412 6.09912C15.8325 6.09912 17.3586 6.73126 18.4839 7.85648C19.6091 8.9817 20.2412 10.5078 20.2412 12.0991V19.0991H16.2412V12.0991C16.2412 11.5687 16.0305 11.06 15.6554 10.6849C15.2804 10.3098 14.7716 10.0991 14.2412 10.0991C13.7108 10.0991 13.2021 10.3098 12.827 10.6849C12.4519 11.06 12.2412 11.5687 12.2412 12.0991V19.0991H8.24121V12.0991C8.24121 10.5078 8.87335 8.9817 9.99857 7.85648C11.1238 6.73126 12.6499 6.09912 14.2412 6.09912Z" fill="#E3F5FF"/>
<path d="M4.24121 7.09912H0.241211V19.0991H4.24121V7.09912Z" fill="#E3F5FF"/>
<path d="M2.24121 4.09912C3.34578 4.09912 4.24121 3.20369 4.24121 2.09912C4.24121 0.994552 3.34578 0.0991211 2.24121 0.0991211C1.13664 0.0991211 0.241211 0.994552 0.241211 2.09912C0.241211 3.20369 1.13664 4.09912 2.24121 4.09912Z" fill="#E3F5FF"/>
</svg>
