<svg width="64" height="65" viewBox="0 0 64 65" fill="none" xmlns="http://www.w3.org/2000/svg">
<path d="M40 5.44446V10.7778M40 53.4445V58.7778M5.33334 40.1111H10.6667M5.33334 24.1111H10.6667M53.3333 40.1111H58.6667M53.3333 24.1111H58.6667M24 5.44446V10.7778M24 53.4445V58.7778M16 10.7778H48C50.9455 10.7778 53.3333 13.1656 53.3333 16.1111V48.1111C53.3333 51.0566 50.9455 53.4445 48 53.4445H16C13.0545 53.4445 10.6667 51.0566 10.6667 48.1111V16.1111C10.6667 13.1656 13.0545 10.7778 16 10.7778ZM26.6667 24.1111H37.3333C38.8061 24.1111 40 25.305 40 26.7778V37.4445C40 38.9172 38.8061 40.1111 37.3333 40.1111H26.6667C25.1939 40.1111 24 38.9172 24 37.4445V26.7778C24 25.305 25.1939 24.1111 26.6667 24.1111Z" stroke="#003DA5" stroke-width="2" stroke-linecap="round" stroke-linejoin="round"/>
</svg>
