<svg width="64" height="65" viewBox="0 0 64 65" fill="none" xmlns="http://www.w3.org/2000/svg">
<path d="M8 18.7778V13.4444C8 12.0299 8.5619 10.6734 9.5621 9.67318C10.5623 8.67299 11.9188 8.11108 13.3333 8.11108H18.6667M45.3333 8.11108H50.6667C52.0812 8.11108 53.4377 8.67299 54.4379 9.67318C55.4381 10.6734 56 12.0299 56 13.4444V18.7778M56 45.4444V50.7778C56 52.1922 55.4381 53.5488 54.4379 54.549C53.4377 55.5492 52.0812 56.1111 50.6667 56.1111H45.3333M18.6667 56.1111H13.3333C11.9188 56.1111 10.5623 55.5492 9.5621 54.549C8.5619 53.5488 8 52.1922 8 50.7778V45.4444M40 32.1111C40 36.5294 36.4183 40.1111 32 40.1111C27.5817 40.1111 24 36.5294 24 32.1111C24 27.6928 27.5817 24.1111 32 24.1111C36.4183 24.1111 40 27.6928 40 32.1111Z" stroke="#003DA5" stroke-width="2" stroke-linecap="round" stroke-linejoin="round"/>
</svg>
