<svg width="64" height="65" viewBox="0 0 64 65" fill="none" xmlns="http://www.w3.org/2000/svg">
<g id="lucide/brain">
<path id="Vector" d="M32 13.4445C32.0031 12.3779 31.793 11.3214 31.3819 10.3373C30.9707 9.3531 30.367 8.46107 29.6061 7.71366C28.8451 6.96624 27.9425 6.37853 26.9511 5.98509C25.9597 5.59164 24.8997 5.40041 23.8333 5.42264C22.767 5.44486 21.7158 5.6801 20.7417 6.11451C19.7676 6.54893 18.8902 7.17374 18.1611 7.95222C17.432 8.73069 16.8659 9.6471 16.4961 10.6475C16.1264 11.648 15.9604 12.7123 16.008 13.7778M32 13.4445V48.1111M32 13.4445C31.9969 12.3779 32.207 11.3214 32.6181 10.3373C33.0293 9.3531 33.633 8.46107 34.3939 7.71366C35.1549 6.96624 36.0575 6.37853 37.0489 5.98509C38.0403 5.59164 39.1003 5.40041 40.1667 5.42264C41.233 5.44486 42.2842 5.6801 43.2583 6.11451C44.2324 6.54893 45.1098 7.17374 45.8389 7.95222C46.568 8.73069 47.1341 9.6471 47.5039 10.6475C47.8736 11.648 48.0396 12.7123 47.992 13.7778M16.008 13.7778C14.4405 14.1808 12.9853 14.9353 11.7526 15.984C10.5199 17.0327 9.54197 18.3481 8.89292 19.8307C8.24386 21.3133 7.94069 22.9242 8.00637 24.5413C8.07205 26.1584 8.50485 27.7394 9.272 29.1645M16.008 13.7778C16.0607 15.0678 16.4249 16.3258 17.0693 17.4445M9.272 29.1645C7.92315 30.2603 6.86247 31.6691 6.18224 33.2683C5.50201 34.8675 5.22282 36.6087 5.36897 38.3404C5.51512 40.0722 6.08218 41.7419 7.02082 43.2045C7.95945 44.6671 9.24124 45.8782 10.7547 46.7325M9.272 29.1645C9.75984 28.7672 10.2819 28.4164 10.832 28.1111M10.7547 46.7325C10.5678 48.1784 10.6793 49.6474 11.0824 51.0485C11.4854 52.4497 12.1715 53.7534 13.0981 54.879C14.0247 56.0047 15.1723 56.9284 16.4699 57.5932C17.7675 58.2579 19.1877 58.6496 20.6426 58.744C22.0975 58.8384 23.5564 58.6336 24.929 58.1421C26.3017 57.6506 27.559 56.8829 28.6234 55.8865C29.6877 54.89 30.5365 53.686 31.1172 52.3486C31.698 51.0113 31.9984 49.5691 32 48.1111M10.7547 46.7325C12.3554 47.6353 14.1622 48.112 16 48.1111M32 48.1111C32.0016 49.5691 32.302 51.0113 32.8828 52.3486C33.4635 53.686 34.3123 54.89 35.3766 55.8865C36.441 56.8829 37.6983 57.6506 39.071 58.1421C40.4436 58.6336 41.9025 58.8384 43.3574 58.744C44.8123 58.6496 46.2325 58.2579 47.5301 57.5932C48.8277 56.9284 49.9753 56.0047 50.9019 54.879C51.8285 53.7534 52.5146 52.4497 52.9176 51.0485C53.3207 49.6474 53.4322 48.1784 53.2453 46.7325M47.992 13.7778C49.5595 14.1808 51.0147 14.9353 52.2474 15.984C53.4801 17.0327 54.458 18.3481 55.1071 19.8307C55.7561 21.3133 56.0593 22.9242 55.9936 24.5413C55.928 26.1584 55.4952 27.7394 54.728 29.1645M47.992 13.7778C47.9385 15.068 47.5761 16.326 46.9307 17.4445M54.728 29.1645C56.0769 30.2603 57.1375 31.6691 57.8178 33.2683C58.498 34.8675 58.7772 36.6087 58.631 38.3404C58.4849 40.0722 57.9178 41.7419 56.9792 43.2045C56.0405 44.6671 54.7588 45.8782 53.2453 46.7325M54.728 29.1645C54.2402 28.7672 53.7181 28.4164 53.168 28.1111M53.2453 46.7325C51.6446 47.6353 49.8378 48.112 48 48.1111M40 34.7778C37.7612 33.9902 35.8062 32.5565 34.3822 30.6578C32.9582 28.7592 32.1292 26.4809 32 24.1111C31.8708 26.4809 31.0418 28.7592 29.6178 30.6578C28.1938 32.5565 26.2388 33.9902 24 34.7778" stroke="#003DA5" stroke-width="2" stroke-linecap="round" stroke-linejoin="round"/>
</g>
</svg>
