<svg width="64" height="65" viewBox="0 0 64 65" fill="none" xmlns="http://www.w3.org/2000/svg">
<path d="M24 32.1111L29.3333 37.4444L40 26.7778M53.3333 34.7778C53.3333 48.1111 44 54.7778 32.9066 58.6444C32.3257 58.8413 31.6947 58.8319 31.12 58.6178C20 54.7778 10.6666 48.1111 10.6666 34.7778V16.1111C10.6666 15.4039 10.9476 14.7256 11.4477 14.2255C11.9478 13.7254 12.626 13.4444 13.3333 13.4444C18.6666 13.4444 25.3333 10.2444 29.9733 6.1911C30.5382 5.70843 31.2569 5.44324 32 5.44324C32.743 5.44324 33.4617 5.70843 34.0266 6.1911C38.6933 10.2711 45.3333 13.4444 50.6666 13.4444C51.3739 13.4444 52.0522 13.7254 52.5522 14.2255C53.0523 14.7256 53.3333 15.4039 53.3333 16.1111V34.7778Z" stroke="#003DA5" stroke-width="2" stroke-linecap="round" stroke-linejoin="round"/>
</svg>
