<svg xmlns="http://www.w3.org/2000/svg" fill="none" viewBox="0 0 222 60" height="60" width="222">
<path fill="#003da5" d="M67.519 30.1106C67.519 25.6917 61.9852 21.504 53.5008 18.907C55.4588 10.2595 54.5886 3.37955 50.7541 1.17687C49.8703 0.660195 48.8372 0.415446 47.7086 0.415446V3.44754C48.334 3.44754 48.8372 3.56991 49.2586 3.80104C51.1077 4.86158 51.9101 8.89981 51.2843 14.0937C51.1351 15.3719 50.8903 16.7179 50.5911 18.0912C47.926 17.4385 45.0163 16.9355 41.9571 16.6092C40.1217 14.0937 38.2181 11.8095 36.3008 9.81079C40.7334 5.69099 44.8941 3.43391 47.7223 3.43391V0.401855C43.9829 0.401855 39.0883 3.06682 34.1392 7.68969C29.1898 3.094 24.2951 0.456248 20.556 0.456248V3.48831C23.3705 3.48831 27.5446 5.73179 31.9772 9.82438C30.0736 11.8231 28.17 14.0937 26.3616 16.6092C23.2887 16.9355 20.3791 17.4385 17.7142 18.1048C17.4014 16.7451 17.1703 15.4262 17.007 14.1617C16.3683 8.96779 17.1566 4.92956 18.9924 3.85543C19.4001 3.61068 19.9303 3.50193 20.556 3.50193V0.469838C19.4138 0.469838 18.3804 0.714587 17.4832 1.23127C13.6623 3.43391 12.8059 10.3003 14.7772 18.9206C6.32015 21.5312 0.813477 25.7054 0.813477 30.1106C0.813477 34.5297 6.34732 38.7175 14.8317 41.3143C12.8737 49.962 13.7438 56.8417 17.5783 59.0445C18.4622 59.561 19.4953 59.8058 20.6375 59.8058C24.3766 59.8058 29.2715 57.1409 34.2206 52.518C39.1697 57.1138 44.0647 59.7516 47.8037 59.7516C48.9457 59.7516 49.9791 59.5069 50.8766 58.99C54.6972 56.7873 55.5539 49.921 53.5823 41.3009C62.0123 38.7038 67.519 34.5161 67.519 30.1106ZM49.8162 21.0417C49.313 22.7958 48.6876 24.6039 47.9804 26.4123C47.4231 25.3247 46.8384 24.2369 46.1993 23.1491C45.5739 22.0614 44.9075 21.0009 44.2414 19.9675C46.172 20.2531 48.0348 20.6066 49.8162 21.0417ZM43.5886 35.5221C42.5281 37.3579 41.4406 39.0982 40.312 40.7163C38.2859 40.8929 36.2331 40.9881 34.1662 40.9881C32.1131 40.9881 30.0599 40.8929 28.0478 40.7296C26.9192 39.1116 25.8177 37.3849 24.7572 35.5629C23.7238 33.7818 22.7858 31.9734 21.9291 30.1516C22.7722 28.3295 23.7238 26.5074 24.7438 24.7264C25.8043 22.8909 26.8919 21.1505 28.0204 19.5324C30.0465 19.3557 32.0994 19.2605 34.1662 19.2605C36.2194 19.2605 38.2725 19.3557 40.2846 19.5188C41.4132 21.1369 42.5147 22.8636 43.5752 24.6857C44.6086 26.4667 45.5466 28.2751 46.4034 30.0972C45.5466 31.919 44.6086 33.7411 43.5886 35.5221ZM47.9804 33.7547C48.6941 35.5267 49.3204 37.3326 49.8569 39.166C48.0756 39.6011 46.1993 39.9683 44.255 40.2538C44.9212 39.207 45.5873 38.1329 46.213 37.0313C46.8384 35.9438 47.4231 34.8423 47.9804 33.7547ZM34.1933 48.2624C32.9288 46.9569 31.6643 45.5021 30.4135 43.9114C31.6372 43.9658 32.8881 44.0065 34.1525 44.0065C35.4307 44.0065 36.6952 43.9795 37.9326 43.9114C36.7655 45.4281 35.5172 46.8805 34.1933 48.2624ZM24.0774 40.2538C22.1468 39.9683 20.2839 39.6147 18.5029 39.1797C19.0058 37.4257 19.6315 35.6173 20.3384 33.8089C20.896 34.8967 21.4806 35.9846 22.1194 37.0721C22.7585 38.1599 23.4112 39.2204 24.0774 40.2538ZM34.1255 11.9591C35.39 13.2643 36.6544 14.7192 37.9052 16.31C36.6815 16.2556 35.4307 16.2149 34.1662 16.2149C32.888 16.2149 31.6236 16.242 30.3864 16.31C31.5535 14.7934 32.8016 13.341 34.1255 11.9591ZM24.0637 19.9675C23.3976 21.0145 22.7314 22.0886 22.106 23.1898C21.4806 24.2776 20.896 25.3655 20.3384 26.453C19.6245 24.6811 18.9984 22.8751 18.4622 21.0417C20.2432 20.6202 22.1194 20.2531 24.0637 19.9675ZM11.7588 36.9906C6.94561 34.9375 3.83195 32.2455 3.83195 30.1106C3.83195 27.9759 6.94561 25.2703 11.7588 23.2309C12.9281 22.7277 14.2063 22.279 15.5252 21.8575C16.3002 24.5224 17.3199 27.2961 18.5844 30.1379C17.3336 32.9661 16.3272 35.7261 15.5659 38.3776C14.2199 37.9559 12.9418 37.4938 11.7588 36.9906ZM19.0739 56.4203C17.2247 55.3599 16.4224 51.3216 17.0481 46.1275C17.1977 44.8496 17.4421 43.5034 17.7413 42.13C20.4065 42.7828 23.3161 43.286 26.3753 43.6122C28.2108 46.1275 30.1143 48.4117 32.0316 50.4104C27.599 54.5304 23.4383 56.7873 20.6102 56.7873C19.9984 56.7739 19.4819 56.6514 19.0739 56.4203ZM51.3254 46.0597C51.9642 51.2535 51.1758 55.2917 49.34 56.3659C48.9323 56.6107 48.4021 56.7195 47.7764 56.7195C44.9619 56.7195 40.7878 54.476 36.3553 50.3834C38.2588 48.3847 40.1624 46.1141 41.9708 43.5985C45.0437 43.2723 47.9533 42.7691 50.6182 42.103C50.9311 43.4763 51.1758 44.7952 51.3254 46.0597ZM56.56 36.9906C55.3907 37.4938 54.1125 37.9425 52.7936 38.3639C52.0186 35.6991 50.9989 32.9253 49.7344 30.0835C50.9855 27.2554 51.9915 24.4953 52.7528 21.8439C54.0991 22.2654 55.377 22.7277 56.5737 23.2309C61.3869 25.2837 64.5005 27.9759 64.5005 30.1106C64.4868 32.2455 61.3732 34.9511 56.56 36.9906Z"></path>
<path fill="#003da5" d="M40.3659 30.111C40.3659 33.543 37.584 36.3249 34.1521 36.3249C30.7204 36.3249 27.9385 33.543 27.9385 30.111C27.9385 26.6794 30.7204 23.8975 34.1521 23.8975C37.584 23.8975 40.3659 26.6794 40.3659 30.111Z"></path>
<path fill="#003da5" d="M86.9173 28.6925H82.6315V36.0737H80.2129V17.8274H86.2532C88.3083 17.8274 89.8874 18.2956 90.9901 19.2314C92.1013 20.1665 92.6569 21.5285 92.6569 23.3162C92.6569 24.4527 92.3478 25.4424 91.7295 26.2867C91.1197 27.1303 90.2675 27.7612 89.1731 28.1785L93.4589 35.9231V36.0737H90.8774L86.9173 28.6925ZM82.6315 26.725H86.3284C87.5231 26.725 88.4713 26.4157 89.1731 25.7975C89.8832 25.1794 90.2382 24.3523 90.2382 23.3162C90.2382 22.1886 89.8999 21.324 89.2232 20.7224C88.5548 20.1208 87.5857 19.8158 86.3158 19.8076H82.6315V26.725ZM101.304 36.3246C99.4658 36.3246 97.9703 35.723 96.8174 34.5198C95.6644 33.3083 95.088 31.6916 95.088 29.6701V29.2439C95.088 27.899 95.3428 26.7003 95.8524 25.6476C96.3704 24.5861 97.0889 23.759 98.0079 23.1663C98.9353 22.5647 99.9378 22.2635 101.016 22.2635C102.778 22.2635 104.149 22.8442 105.126 24.0054C106.103 25.1667 106.592 26.8292 106.592 28.993V29.9579H97.4064C97.4398 31.2952 97.8283 32.377 98.5718 33.2042C99.3237 34.0224 100.276 34.4321 101.429 34.4321C102.248 34.4321 102.941 34.2651 103.509 33.9309C104.078 33.5968 104.574 33.154 105.001 32.6026L106.417 33.7054C105.28 35.4511 103.576 36.3246 101.304 36.3246ZM101.016 24.1687C100.08 24.1687 99.2945 24.5111 98.6595 25.1959C98.0246 25.8731 97.6319 26.8254 97.4816 28.0534H104.274V27.878C104.207 26.7003 103.89 25.7893 103.322 25.1457C102.753 24.4946 101.984 24.1687 101.016 24.1687ZM117.658 36.0737C117.524 35.8062 117.415 35.3304 117.332 34.645C116.254 35.7643 114.967 36.3246 113.472 36.3246C112.135 36.3246 111.037 35.9485 110.176 35.1964C109.324 34.4359 108.898 33.4754 108.898 32.3141C108.898 30.9026 109.433 29.808 110.502 29.0311C111.579 28.2452 113.092 27.8526 115.039 27.8526H117.294V26.7879C117.294 25.9773 117.052 25.3338 116.568 24.858C116.083 24.3733 115.368 24.1312 114.424 24.1312C113.597 24.1312 112.904 24.3396 112.344 24.7576C111.785 25.175 111.505 25.6806 111.505 26.274H109.174C109.174 25.5974 109.412 24.9456 109.888 24.3186C110.372 23.684 111.024 23.1828 111.843 22.8149C112.67 22.4478 113.576 22.2635 114.562 22.2635C116.125 22.2635 117.348 22.6561 118.234 23.442C119.12 24.2189 119.579 25.2925 119.612 26.6621V32.903C119.612 34.1482 119.771 35.1379 120.089 35.8729V36.0737H117.658ZM113.811 34.307C114.537 34.307 115.227 34.119 115.878 33.7429C116.53 33.3668 117.002 32.8783 117.294 32.2767V29.4948H115.477C112.637 29.4948 111.216 30.3257 111.216 31.9882C111.216 32.715 111.459 33.2836 111.943 33.6927C112.428 34.1018 113.05 34.307 113.811 34.307ZM128.685 34.4321C129.513 34.4321 130.235 34.1812 130.854 33.68C131.472 33.1787 131.814 32.5524 131.881 31.8002H134.074C134.032 32.5771 133.765 33.3166 133.272 34.0186C132.779 34.7205 132.119 35.2802 131.292 35.6976C130.473 36.1156 129.605 36.3246 128.685 36.3246C126.839 36.3246 125.369 35.7103 124.274 34.4823C123.188 33.2454 122.645 31.5582 122.645 29.4192V29.0311C122.645 27.711 122.887 26.537 123.372 25.5098C123.857 24.4819 124.55 23.684 125.453 23.1161C126.363 22.5475 127.436 22.2635 128.673 22.2635C130.194 22.2635 131.455 22.719 132.458 23.63C133.468 24.5404 134.007 25.7226 134.074 27.1761H131.881C131.814 26.2988 131.48 25.5803 130.878 25.0206C130.286 24.4527 129.55 24.1687 128.673 24.1687C127.495 24.1687 126.58 24.5943 125.928 25.4469C125.285 26.2905 124.963 27.5147 124.963 29.1187V29.5571C124.963 31.1192 125.285 32.3224 125.928 33.166C126.572 34.0103 127.491 34.4321 128.685 34.4321ZM139.826 19.2314V22.5145H142.358V24.3066H139.826V32.715C139.826 33.2582 139.939 33.6673 140.165 33.943C140.39 34.2104 140.775 34.3445 141.318 34.3445C141.585 34.3445 141.952 34.2943 142.42 34.1939V36.0737C141.81 36.2407 141.217 36.3246 140.641 36.3246C139.605 36.3246 138.824 36.0108 138.297 35.3844C137.771 34.758 137.508 33.868 137.508 32.715V24.3066H135.039V22.5145H137.508V19.2314H139.826ZM165.83 36.0737H163.411L154.225 22.0132V36.0737H151.807V17.8274H154.225L163.436 31.9508V17.8274H165.83V36.0737ZM178.111 36.0737C177.977 35.8062 177.868 35.3304 177.785 34.645C176.707 35.7643 175.42 36.3246 173.925 36.3246C172.588 36.3246 171.489 35.9485 170.629 35.1964C169.777 34.4359 169.351 33.4754 169.351 32.3141C169.351 30.9026 169.885 29.808 170.955 29.0311C172.032 28.2452 173.545 27.8526 175.491 27.8526H177.747V26.7879C177.747 25.9773 177.505 25.3338 177.02 24.858C176.536 24.3733 175.821 24.1312 174.877 24.1312C174.05 24.1312 173.357 24.3396 172.797 24.7576C172.238 25.175 171.957 25.6806 171.957 26.274H169.627C169.627 25.5974 169.865 24.9456 170.341 24.3186C170.825 23.684 171.477 23.1828 172.296 22.8149C173.123 22.4478 174.029 22.2635 175.015 22.2635C176.577 22.2635 177.801 22.6561 178.687 23.442C179.572 24.2189 180.032 25.2925 180.065 26.6621V32.903C180.065 34.1482 180.224 35.1379 180.542 35.8729V36.0737H178.111ZM174.263 34.307C174.99 34.307 175.68 34.119 176.331 33.7429C176.982 33.3668 177.454 32.8783 177.747 32.2767V29.4948H175.93C173.09 29.4948 171.669 30.3257 171.669 31.9882C171.669 32.715 171.912 33.2836 172.396 33.6927C172.881 34.1018 173.503 34.307 174.263 34.307ZM186.845 19.2314V22.5145H189.377V24.3066H186.845V32.715C186.845 33.2582 186.958 33.6673 187.184 33.943C187.409 34.2104 187.793 34.3445 188.337 34.3445C188.603 34.3445 188.971 34.2943 189.439 34.1939V36.0737C188.829 36.2407 188.236 36.3246 187.659 36.3246C186.624 36.3246 185.843 36.0108 185.316 35.3844C184.79 34.758 184.527 33.868 184.527 32.715V24.3066H182.058V22.5145H184.527V19.2314H186.845ZM194.615 36.0737H192.296V22.5145H194.615V36.0737ZM192.108 18.9176C192.108 18.5421 192.221 18.2245 192.447 17.9653C192.681 17.7061 193.023 17.5771 193.474 17.5771C193.926 17.5771 194.268 17.7061 194.502 17.9653C194.736 18.2245 194.853 18.5421 194.853 18.9176C194.853 19.2936 194.736 19.6068 194.502 19.8578C194.268 20.1081 193.926 20.2338 193.474 20.2338C193.023 20.2338 192.681 20.1081 192.447 19.8578C192.221 19.6068 192.108 19.2936 192.108 18.9176ZM202.811 32.9284L206.169 22.5145H208.538L203.675 36.0737H201.908L196.996 22.5145H199.364L202.811 32.9284ZM216.219 36.3246C214.381 36.3246 212.886 35.723 211.733 34.5198C210.58 33.3083 210.004 31.6916 210.004 29.6701V29.2439C210.004 27.899 210.259 26.7003 210.768 25.6476C211.286 24.5861 212.004 23.759 212.923 23.1663C213.851 22.5647 214.853 22.2635 215.931 22.2635C217.694 22.2635 219.064 22.8442 220.042 24.0054C221.019 25.1667 221.508 26.8292 221.508 28.993V29.9579H212.322C212.356 31.2952 212.744 32.377 213.488 33.2042C214.239 34.0224 215.192 34.4321 216.344 34.4321C217.163 34.4321 217.857 34.2651 218.425 33.9309C218.993 33.5968 219.49 33.154 219.917 32.6026L221.333 33.7054C220.196 35.4511 218.492 36.3246 216.219 36.3246ZM215.931 24.1687C214.996 24.1687 214.21 24.5111 213.575 25.1959C212.94 25.8731 212.547 26.8254 212.398 28.0534H219.189V27.878C219.122 26.7003 218.805 25.7893 218.237 25.1457C217.669 24.4946 216.9 24.1687 215.931 24.1687Z"></path>
</svg>
