<svg fill="none" viewBox="0 0 194 87" height="87" width="194" xmlns="http://www.w3.org/2000/svg">
  <defs></defs>
  <path fill="#003da5" d="M0 43.2086V0H86.4172V86.4172H0"></path>
  <path stroke-width="6.25" stroke="white" d="M 66.097 42.465 C 66.786 42.488 67.401 42.538 67.877 42.596 L 68.72 42.794 C 70.278 43.16 71.414 43.815 72.495 44.916 C 72.171 45.133 71.835 45.356 71.497 45.577 C 71.041 45.12 70.531 44.708 69.95 44.361 C 68.789 43.667 67.555 43.359 66.291 43.268 L 66.282 43.267 L 66.273 43.266 C 64.414 43.142 62.501 43.546 60.986 44.753 C 59.411 46.007 58.619 47.855 58.619 49.841 C 58.619 51.118 58.912 51.961 59.296 52.793 L 59.312 52.827 L 59.328 52.86 C 60.494 55.235 62.734 56.33 65.89 57.715 L 65.9 57.72 L 65.911 57.724 C 72.089 60.381 73.942 61.827 74.999 63.463 L 75.004 63.47 L 75.008 63.477 C 76.259 65.389 76.621 68.738 75.716 71.183 C 74.827 73.487 72.582 75.386 68.557 76.054 L 68.549 76.055 L 68.54 76.056 C 68.072 76.137 67.06 76.195 65.848 76.182 C 64.665 76.169 63.602 76.092 63.032 75.996 C 60.134 75.448 57.489 74.002 55.994 72.363 L 55.987 72.356 L 55.98 72.348 C 55.942 72.307 55.89 72.247 55.826 72.169 L 57.069 71.448 L 57.077 71.443 L 57.158 71.396 C 57.397 71.656 57.639 71.902 57.874 72.129 C 58.555 72.785 59.413 73.507 60.221 73.958 L 60.267 73.983 L 60.313 74.007 C 62.247 75.004 64.445 75.413 66.474 75.309 C 68.461 75.207 70.643 74.587 72.27 73.112 L 72.277 73.105 L 72.285 73.098 C 73.719 71.78 74.44 70.171 74.44 68.205 C 74.44 67.56 74.394 66.858 74.17 66.114 C 73.945 65.366 73.6 64.774 73.279 64.285 L 73.238 64.223 L 73.194 64.163 C 72.48 63.181 71.536 62.485 70.445 61.857 C 69.37 61.237 67.916 60.552 65.973 59.689 L 65.95 59.678 L 65.927 59.668 C 61.641 57.846 60.184 56.84 58.853 55.452 C 58.209 54.726 57.519 53.461 57.197 52.426 C 57.126 52.113 57.034 51.346 57.007 50.384 C 56.994 49.915 56.999 49.467 57.02 49.091 C 57.031 48.904 57.045 48.749 57.06 48.628 C 57.075 48.507 57.087 48.452 57.088 48.448 L 57.099 48.404 L 57.109 48.359 C 57.748 45.385 59.936 43.222 63.48 42.565 L 63.502 42.561 L 63.524 42.557 C 63.91 42.48 64.88 42.423 66.097 42.465 Z M 46.262 43.756 L 38.153 43.756 L 35.028 43.756 L 35.028 46.881 L 35.028 75.731 L 33.306 75.731 L 33.306 46.881 L 33.306 43.756 L 30.181 43.756 L 22.136 43.756 L 22.136 43.381 L 22.136 42.95 C 22.136 42.95 42.079 42.904 44.821 42.917 C 45.341 42.92 45.823 42.923 46.262 42.926 C 46.262 43.088 46.262 43.254 46.262 43.425 L 46.262 43.756 Z"></path>
  <path fill="#003da5" d="M107.46 0H193.877V86.4172H107.46V0Z"></path>
  <path fill="white" d="M186.805 65.8066C186.173 61.8636 183.601 58.5531 175.986 55.4644C173.341 54.2487 170.392 53.378 169.513 51.3736C169.201 50.2071 169.16 49.55 169.357 48.8435C169.924 46.5516 172.66 45.837 174.828 46.4941C176.225 46.9624 177.547 48.0386 178.344 49.7553C182.073 47.3403 182.065 47.3567 184.669 45.6974C183.716 44.2188 183.207 43.5369 182.583 42.9045C180.34 40.399 177.284 39.1093 172.397 39.2079C171.551 39.3147 170.696 39.4296 169.85 39.5365C167.411 40.1526 165.086 41.434 163.722 43.1509C159.631 47.7921 160.798 55.9162 165.776 59.2597C170.68 62.9398 177.884 63.7777 178.804 67.2196C179.699 71.4336 175.707 72.7972 171.74 72.3126C168.815 71.7047 167.189 70.2179 165.431 67.5153C162.194 69.3882 162.194 69.3882 158.867 71.3022C159.656 73.0273 160.486 73.8076 161.808 75.3027C168.068 81.6526 183.733 81.3404 186.542 71.7294C186.657 71.4007 187.413 69.1992 186.805 65.8066ZM154.44 39.7171H146.357C146.357 46.6995 146.324 53.6326 146.324 60.615C146.324 65.0591 146.554 69.1335 145.831 70.3821C144.648 72.8382 141.584 72.5343 140.187 72.0578C138.766 71.3595 138.043 70.3656 137.206 68.961C136.976 68.5585 136.803 68.2463 136.745 68.2217C134.552 69.5606 132.367 70.9077 130.174 72.2468C131.266 74.4894 132.876 76.4362 134.938 77.7012C138.019 79.5495 142.159 80.1163 146.488 79.1223C149.306 78.3009 151.737 76.6005 153.01 74.0129C154.85 70.6203 154.456 66.513 154.44 61.9704C154.481 54.5608 154.44 47.1513 154.44 39.7171Z"></path>
</svg>
