<svg xmlns="http://www.w3.org/2000/svg" fill="none" viewBox="0 0 200 46" height="46" width="200">
<path fill="#003da5" d="M55.7644 1.98901H64.9626V20.6492L81.9266 1.98901H93.0367L76.0133 20.1005L93.8134 44.6765H82.7635L69.8018 26.5043L64.9635 31.6262V44.6765H55.7652V1.98901H55.7644Z"></path>
<path fill="#003da5" d="M88.9241 28.5154V28.394C88.9241 19.0024 96.3307 11.3799 106.306 11.3799C116.281 11.3799 123.568 18.881 123.568 28.2718V28.394C123.568 37.7848 116.161 45.4073 106.186 45.4073C96.2113 45.4073 88.9241 37.907 88.9241 28.5154ZM114.609 28.5154V28.394C114.609 23.5756 111.204 19.3682 106.186 19.3682C101.168 19.3682 97.8834 23.4534 97.8834 28.2718V28.394C97.8834 33.2116 101.288 37.419 106.306 37.419C111.324 37.419 114.609 33.333 114.609 28.5154Z"></path>
<path fill="#003da5" d="M126.075 35.4073V19.9178H122.252V11.9902H126.075V3.63524H135.155V11.9902H142.681V19.9178H135.155V33.8826C135.155 36.0166 136.051 37.0533 138.081 37.0533C139.647 37.0609 141.188 36.6623 142.561 35.8944V43.3349C140.649 44.4938 138.44 45.2254 135.393 45.2254C129.838 45.2254 126.074 42.9691 126.074 35.4073H126.075ZM145.286 0.159424H154.366V44.6758H145.286V0.159424ZM157.647 0.159424H167.204V8.39216H157.647V0.159424ZM157.887 11.9902H166.966V44.6758H157.886V11.9902H157.887ZM170.419 11.9902H179.499V16.6249C181.589 13.8806 184.277 11.3808 188.877 11.3808C195.746 11.3808 199.748 16.0155 199.748 23.5167V44.6767H190.668V26.443C190.668 22.0527 188.637 19.7956 185.172 19.7956C181.708 19.7956 179.498 22.0518 179.498 26.443V44.6767H170.418V11.9902H170.419Z"></path>
<path fill="#003da5" d="M21.4831 1.96729L0.494141 24.5019V44.6472L21.4522 23.2124L42.2983 1.96729H21.4831Z"></path>
<path fill="#003da5" d="M0.494141 44.6472L21.4522 23.2124L42.2983 44.6472H0.494141Z"></path>
<path fill="#003da5" d="M0.494141 1.96729H21.4831L0.494141 24.5019V1.96729Z"></path>
</svg>
