<svg xmlns="http://www.w3.org/2000/svg" fill="none" viewBox="0 0 154 55" height="55" width="154">
<path fill="#003da5" d="M133.87 47.6984V54.6976H146.515C149.105 54.6976 153.552 52.8028 153.707 47.5051V44.7982C153.707 40.2739 149.995 37.6057 146.515 37.6057H140.211V34.3574H152.702V27.3196H140.714C137.621 27.3196 133.483 29.8718 133.483 34.6281V37.0643C133.483 41.8207 137.582 44.2568 140.714 44.2568C149.415 44.2955 138.626 44.2568 146.669 44.2568V47.6598M66.1205 45.997C66.1205 45.997 72.8877 45.4169 72.8877 36.6776C72.8877 27.9383 64.6898 27.1262 64.6898 27.1262H49.918V54.6976H57.3425V48.0465L63.7617 54.6976H74.7438L66.1205 45.997ZM63.259 40.3512H57.3425V34.0481H63.2977C63.2977 34.0481 64.9604 34.6668 64.9604 37.1803C64.9604 39.6938 63.259 40.3512 63.259 40.3512ZM91.2171 27.3196H83.6765C78.3015 27.3196 76.484 32.1919 76.484 34.5121V54.6976H84.0246V49.8639H91.1011V54.6976H98.4096V34.5121C98.4096 28.6343 93.0732 27.3196 91.2171 27.3196ZM91.1011 42.0527H83.9859V35.3628C83.9859 35.3628 83.9859 33.8547 86.3447 33.8547H88.9356C91.0237 33.8547 91.0624 35.3628 91.0624 35.3628V42.0527H91.1011ZM101.851 27.3196H109.701V54.6976H101.851V27.3196ZM112.911 27.3196V54.6976H131.279V47.6211H120.722V27.3196H112.911Z" clip-rule="evenodd" fill-rule="evenodd"></path>
<path fill="#003da5" d="M3.32117 54.6973H33.8701C33.8701 54.6973 28.031 28.054 47.3658 17.2651C51.5808 15.2156 64.9992 7.55907 86.9635 23.8003C87.6595 23.2203 88.3169 22.7562 88.3169 22.7562C88.3169 22.7562 68.2087 2.6867 45.819 4.92953C34.5662 5.93494 20.7225 16.1824 12.6019 29.7167C4.48125 43.2511 3.32117 54.6973 3.32117 54.6973Z" clip-rule="evenodd" fill-rule="evenodd"></path>
<path fill="#003da5" d="M3.32117 54.6973H33.8701C33.8701 54.6973 28.031 28.054 47.3658 17.2651C51.5808 15.2156 64.9992 7.55907 86.9635 23.8003C87.6595 23.2203 88.3169 22.7562 88.3169 22.7562C88.3169 22.7562 68.2087 2.6867 45.819 4.92953C34.5662 5.93494 20.7225 16.1824 12.6019 29.7167C4.48125 43.2511 3.32117 54.6973 3.32117 54.6973Z" clip-rule="evenodd" fill-rule="evenodd"></path>
<path fill="#003da5" d="M3.32117 54.6977H33.8701C33.8701 54.6977 28.031 28.0543 47.3658 17.2655C51.5808 15.216 64.9992 7.55946 86.9635 23.8007C87.6595 23.2206 88.3169 22.7566 88.3169 22.7566C88.3169 22.7566 68.2087 2.68709 45.819 4.92992C34.5275 5.93533 20.6838 16.1828 12.5632 29.7171C4.44258 43.2515 3.32117 54.6977 3.32117 54.6977ZM66.9713 7.09542L67.126 4.50456C66.778 4.31121 65.8112 3.84718 63.375 3.15112L63.2204 5.70332C64.4965 6.12868 65.7339 6.59272 66.9713 7.09542Z" clip-rule="evenodd" fill-rule="evenodd"></path>
<path fill="#003da5" d="M63.2977 15.2931L63.143 17.7293C64.4191 17.768 65.6952 17.9227 66.9713 18.1934L67.126 15.7958C65.8112 15.5252 64.5351 15.3705 63.2977 15.2931ZM48.9899 3.22823H49.3766L48.6032 0.869385C47.4045 0.869385 46.167 0.946724 44.8909 1.1014L45.6257 3.38291C46.7471 3.2669 47.8685 3.22823 48.9899 3.22823ZM50.8461 17.4586L51.7355 20.1268C52.8569 19.5855 53.9783 19.1214 55.0997 18.7734L54.249 16.2212C52.9342 16.6079 51.8128 17.0333 50.8461 17.4586ZM33.2901 7.28854L31.5499 4.62034C30.5832 5.12304 29.5778 5.66441 28.5337 6.28313L30.3125 8.99C31.3179 8.37129 32.2847 7.79124 33.2901 7.28854ZM41.2173 24.6899L43.0735 27.4741C43.7309 26.5073 44.5042 25.6179 45.355 24.7285L43.6148 22.099C42.7254 22.9111 41.9134 23.8005 41.2173 24.6899ZM35.6102 37.1415L38.7425 39.6163C38.8972 38.1082 39.1678 36.6001 39.5545 35.092L36.7703 32.8878C36.2676 34.3186 35.9196 35.7494 35.6102 37.1415ZM18.673 18.7734L15.9274 16.3759C14.922 17.3426 13.9553 18.3094 13.0659 19.2761L16.0434 21.8283C16.8555 20.7842 17.7449 19.7401 18.673 18.7734ZM6.99474 36.0587L2.54774 34.4346C1.81302 36.0974 1.00095 38.0309 0.614258 39.0749L5.06126 40.6991C5.56397 39.3843 6.37603 37.4895 6.99474 36.0587ZM35.0302 46.9635C35.1075 49.013 35.3009 50.6758 35.4942 51.8359L40.1346 53.4987C39.7866 51.9906 39.4385 50.2891 39.2065 48.4717L35.0302 46.9635Z" clip-rule="evenodd" fill-rule="evenodd"></path>
</svg>
