<svg xmlns="http://www.w3.org/2000/svg" fill="none" viewBox="0 0 174 106" height="106" width="174">
<path fill="#003da5" d="M24.8876 81.6948C24.8876 81.6948 20.8928 84.0194 27.7336 84.8046C36.0233 85.7512 40.2576 85.615 49.3899 83.8875C49.3899 83.8875 51.7942 85.3929 55.1504 86.6953C34.6724 95.4701 8.80525 86.1877 24.8876 81.6948ZM22.3844 70.2441C22.3844 70.2441 17.9028 73.5613 24.7496 74.2693C33.6051 75.1838 40.5951 75.2584 52.6983 72.9296C52.6983 72.9296 54.3695 74.6259 56.9994 75.5526C32.2437 82.7933 4.67251 76.1226 22.3844 70.2441Z" clip-rule="evenodd" fill-rule="evenodd"></path>
<path fill="#003da5" d="M43.4778 50.8175C48.5259 56.6284 42.1546 61.8544 42.1546 61.8544C42.1546 61.8544 54.9667 55.2418 49.0821 46.9581C43.588 39.2367 39.3737 35.4007 62.1857 22.1721C62.1857 22.1721 26.3768 31.1118 43.4778 50.8175Z" clip-rule="evenodd" fill-rule="evenodd"></path>
<path fill="#003da5" d="M70.5606 90.1646C70.5606 90.1646 73.5176 92.6028 67.3033 94.4882C55.4865 98.0674 18.1114 99.1468 7.72963 94.6305C4.00036 93.0062 10.9973 90.7546 13.1986 90.2791C15.4945 89.7828 16.8046 89.8731 16.8046 89.8731C12.6546 86.9507 -10.0204 95.6127 5.28886 98.0977C47.0344 104.866 81.3874 95.0505 70.5606 90.1646ZM26.8098 58.3782C26.8098 58.3782 7.80078 62.8944 20.0792 64.5361C25.2653 65.2294 35.5959 65.0697 45.2262 64.2619C53.0943 63.6016 60.9919 62.189 60.9919 62.189C60.9919 62.189 58.2196 63.3786 56.211 64.7478C36.9043 69.8263 -0.3866 67.461 10.35 62.2697C19.4276 57.8784 26.8098 58.3782 26.8098 58.3782ZM60.9129 77.4384C80.5371 67.2432 71.4638 57.4437 65.1289 58.7643C63.5801 59.0879 62.8851 59.3673 62.8851 59.3673C62.8851 59.3673 63.463 58.4632 64.5615 58.0745C77.0916 53.6711 86.7262 71.0653 60.5216 77.9538C60.5207 77.9538 60.8227 77.6814 60.9129 77.4384Z" clip-rule="evenodd" fill-rule="evenodd"></path>
<path fill="#003da5" d="M49.0822 0.80542C49.0822 0.80542 59.9481 11.6783 38.7733 28.3923C21.7921 41.8048 34.9018 49.4499 38.7681 58.1882C28.8541 49.2451 21.5821 41.371 26.4601 34.0443C33.6219 23.2895 53.4665 18.0739 49.0822 0.80542Z" clip-rule="evenodd" fill-rule="evenodd"></path>
<path fill="#003da5" d="M28.7404 105.074C47.5742 106.278 76.5016 104.405 77.1879 95.4915C77.1879 95.4915 75.8708 98.8702 61.621 101.55C45.5438 104.577 25.7114 104.225 13.9526 102.284C13.9526 102.284 16.3622 104.278 28.7404 105.074Z" clip-rule="evenodd" fill-rule="evenodd"></path>
<path fill="#003da5" d="M170.104 56.337H169.532V56.0159H171.077V56.337H170.504V57.9404H170.104V56.337ZM173.188 56.4168H173.181L172.612 57.9396H172.351L171.785 56.4168H171.778V57.9396H171.398V56.0151H171.956L172.48 57.3765L173.004 56.0151H173.557V57.9396H173.189L173.188 56.4168ZM119.441 74.4063C117.665 75.9456 115.787 76.8115 114.101 76.8115C111.7 76.8115 110.396 75.3686 110.396 73.0597C110.396 70.5599 111.792 68.7309 117.376 68.7309H119.44L119.441 74.4063ZM124.343 79.9369V62.8159C124.343 58.4402 121.848 55.5526 115.832 55.5526C112.323 55.5526 109.246 56.4194 106.744 57.524L107.464 60.5565C109.435 59.8328 111.982 59.1621 114.483 59.1621C117.949 59.1621 119.44 60.5565 119.44 63.4432V65.6081H117.708C109.29 65.6081 105.491 68.874 105.491 73.7842C105.491 78.015 107.995 80.4202 112.707 80.4202C115.736 80.4202 117.999 79.1699 120.112 77.3399L120.496 79.9369H124.343ZM140.705 79.9369H134.592L127.232 55.9882H132.571L137.14 70.7048L138.157 75.1265C140.461 68.7309 142.097 62.238 142.915 55.9882H148.107C146.717 63.8736 144.213 72.5313 140.705 79.9369ZM164.164 74.4063C162.383 75.9456 160.505 76.8115 158.823 76.8115C156.421 76.8115 155.12 75.3686 155.12 73.0597C155.12 70.5599 156.516 68.7309 162.097 68.7309H164.164V74.4063ZM169.068 79.9369V62.8159C169.068 58.4402 166.565 55.5526 160.556 55.5526C157.042 55.5526 153.967 56.4194 151.465 57.524L152.185 60.5565C154.156 59.8328 156.708 59.1621 159.21 59.1621C162.67 59.1621 164.163 60.5565 164.163 63.4432V65.6081H162.432C154.013 65.6081 150.216 68.874 150.216 73.7842C150.216 78.015 152.715 80.4202 157.428 80.4202C160.459 80.4202 162.719 79.1699 164.837 77.3399L165.223 79.9369H169.068ZM100.116 84.0063C98.7191 86.0479 96.4597 87.6644 93.9894 88.5763L91.5686 85.7251C93.4506 84.7594 95.0627 83.2002 95.8133 81.7495C96.4597 80.4566 96.7295 78.7941 96.7295 74.815V47.4702H101.94V74.4376C101.94 79.7599 101.515 81.9108 100.116 84.0063Z" clip-rule="evenodd" fill-rule="evenodd"></path>
</svg>
