<svg xmlns="http://www.w3.org/2000/svg" fill="none" viewBox="0 0 157 53" height="53" width="157">
<path fill="white" d="M29.5373 11.783C21.029 11.783 15.3047 16.6746 15.3047 26.3278V32.2082C16.1893 31.8179 17.126 31.6098 18.0888 31.5577C19.0515 31.5317 20.0142 31.7399 20.8728 32.2082V26.3278C20.8728 20.1092 24.3074 16.8308 29.4853 16.8308C34.6631 16.8308 38.0977 20.1092 38.0977 26.3278V41.3671H43.6659V26.3278C43.6659 16.6746 37.9156 11.783 29.4593 11.783M46.6841 26.9523C46.6841 18.1317 53.0589 11.757 62.2177 11.757C71.3765 11.757 77.5692 18.1577 77.5692 26.9523V28.9298H52.5645C53.215 33.6913 57.4041 37.1779 62.2177 36.9438C65.9905 36.9438 68.5925 35.7989 70.2317 33.3531H76.3202C74.0305 38.7391 68.8006 42.1737 62.1136 42.1737C53.1109 42.1737 46.7622 35.7989 46.7622 26.9783M71.923 24.0902C70.8822 19.6669 66.7971 16.6486 62.2697 16.9088C57.7684 16.6746 53.7614 19.6929 52.7987 24.0902H71.923ZM80.6395 26.9523C80.6395 18.1577 87.0663 11.757 96.2251 11.757C104.473 11.4187 111.42 17.8455 111.759 26.0937C111.759 26.3799 111.785 26.6661 111.759 26.9523C111.759 35.7989 105.384 42.1477 96.2251 42.1477C87.0663 42.1477 80.6395 35.7989 80.6395 26.9523ZM105.956 26.9523C106.269 21.7484 102.288 17.2991 97.0837 16.9869C96.7195 16.9608 96.3552 16.9608 95.9909 16.9869C90.683 16.7787 86.2336 20.8898 86.0255 26.1978C86.0255 26.4579 86.0255 26.6921 86.0255 26.9523C85.7132 32.1562 89.6942 36.6315 94.8981 36.9177C95.2624 36.9438 95.6266 36.9438 95.9909 36.9177C102.053 37.0999 105.956 32.8587 105.956 26.9523ZM143.45 47.2475H144.101C147.691 47.2475 148.992 45.6082 148.992 41.4972V13.7344H154.561V41.1849C154.561 48.3663 151.777 51.983 144.595 51.983H143.45V47.2475ZM140.692 44.1511H135.124V37.282H121.074C118.446 37.3861 115.948 36.0071 114.699 33.6913C113.658 31.5317 113.97 28.9818 115.505 27.1605L128.073 10.6381C129.842 8.14026 133.069 7.12551 135.957 8.14027C138.793 9.05095 140.718 11.7049 140.692 14.6711V32.3904H143.945V37.282H140.692V44.1511ZM120.085 30.2308C119.877 30.4389 119.747 30.7511 119.747 31.0374C119.747 31.844 120.397 32.4684 121.178 32.4684H135.072V14.6711C135.072 13.6824 134.422 13.3702 134.083 13.3702H133.589C133.121 13.3962 132.704 13.6304 132.444 14.0207L120.085 30.2308Z"></path>
<path fill="white" d="M151.803 0.932861C149.175 0.932861 147.067 3.06645 147.067 5.6684C147.067 8.27034 149.201 10.4039 151.803 10.4039C154.431 10.4039 156.538 8.27034 156.538 5.6684C156.538 3.06645 154.405 0.932861 151.803 0.932861ZM17.7508 34.3158C16.7361 34.2637 15.7213 34.602 14.9667 35.3045L9.73683 31.896C9.86693 31.4797 9.94498 31.0373 9.91896 30.595C9.91896 27.967 7.81139 25.8334 5.18343 25.8334C2.55547 25.8334 0.421875 27.941 0.421875 30.569C0.421875 33.1969 2.52945 35.3305 5.15741 35.3305C5.15741 35.3305 5.15741 35.3305 5.18343 35.3305C6.19819 35.3826 7.21294 35.0443 7.96751 34.3418L13.1974 37.9325C13.0673 38.3488 13.0153 38.7911 13.0413 39.2334C13.0153 39.6758 13.0673 40.1181 13.1974 40.5344L7.96751 44.1511C7.18693 43.5006 6.19819 43.1624 5.18343 43.1624C2.55547 43.1624 0.447895 45.296 0.447895 47.8979C0.447895 50.5259 2.58149 52.6334 5.18343 52.6334C7.78537 52.6334 9.91896 50.4999 9.91896 47.8979C9.94498 47.4556 9.89295 47.0133 9.73683 46.5969L14.9667 43.0063C15.7473 43.6567 16.7361 43.995 17.7508 43.995C20.3528 43.995 22.4863 41.8874 22.4863 39.2595C22.4863 39.2595 22.4863 39.2595 22.4863 39.2334C22.5124 36.5795 20.4048 34.3938 17.7508 34.3158Z"></path>
</svg>
