<svg xmlns="http://www.w3.org/2000/svg" fill="none" viewBox="0 0 216 63" height="63" width="216">
<path fill="white" d="M81.428 27.1598C81.428 20.581 79.5522 17.2035 75.8002 17.0187C74.307 16.9482 72.85 17.1858 71.4319 17.7366C70.3002 18.1414 69.5385 18.5425 69.1378 18.9478V34.6507C71.5376 36.1569 73.6687 36.8572 75.5273 36.747C79.4591 36.4863 81.428 33.294 81.428 27.1598ZM86.056 27.4326C86.056 30.7749 85.2721 33.5493 83.6954 35.7553C81.9385 38.2523 79.5034 39.538 76.3902 39.6085C74.0432 39.6831 71.6253 38.948 69.1373 37.4066V51.6787L65.1124 50.2429V18.5642C65.7729 17.7542 66.6232 17.0584 67.6532 16.468C70.049 15.072 72.9594 14.3546 76.3857 14.3193L76.4426 14.3762C79.5739 14.3369 81.9864 15.6227 83.6819 18.2295C85.2631 20.6207 86.056 23.6856 86.056 27.4326ZM110.654 36.7994C110.654 41.2824 110.205 44.3865 109.307 46.1128C108.404 47.8386 106.686 49.2169 104.15 50.2434C102.094 51.0534 99.8696 51.4939 97.4833 51.5689L96.8178 49.0326C99.2443 48.7028 100.953 48.3721 101.944 48.0419C103.894 47.3814 105.233 46.3689 105.969 45.0122C106.559 43.9072 106.849 41.7978 106.849 38.676V37.6279C104.097 38.8789 101.213 39.4996 98.1966 39.4996C96.2147 39.4996 94.4667 38.8789 92.9605 37.6279C91.2695 36.2672 90.4242 34.5414 90.4242 32.4496V15.6977L94.4491 14.3193V31.1801C94.4491 32.9809 95.0301 34.3683 96.1925 35.3415C97.355 36.3146 98.8612 36.7817 100.706 36.7461C102.551 36.7063 104.528 35.9929 106.629 34.5969V14.9265H110.654L110.654 36.7994ZM126.365 39.3885C125.925 39.4257 125.482 39.4447 125.04 39.4454C122.763 39.4454 120.988 38.9042 119.721 37.8163C118.457 36.7289 117.823 35.2276 117.823 33.3116V17.4587H115.066V14.927H117.823V8.20269L121.843 6.77145V14.927H126.365V17.4587H121.843V33.2014C121.843 34.7121 122.248 35.782 123.058 36.4077C123.754 36.9227 124.859 37.2177 126.365 37.2927V39.3885H126.365ZM150.735 39.0583H146.71V23.5225C146.71 21.9417 146.34 20.581 145.605 19.4452C144.755 18.159 143.575 17.5161 142.06 17.5161C140.215 17.5161 137.908 18.4892 135.138 20.4355V39.0583H131.113V1.92342L135.138 0.655273V17.569C137.709 15.6972 140.519 14.7593 143.571 14.7593C145.702 14.7593 147.428 15.4772 148.749 16.9085C150.075 18.3392 150.735 20.1229 150.735 22.2544L150.735 39.0583ZM172.127 26.5259C172.127 23.9982 171.647 21.911 170.691 20.2597C169.555 18.2475 167.789 17.1858 165.403 17.0761C160.99 17.3313 158.788 20.4929 158.788 26.5526C158.788 29.331 159.246 31.6518 160.171 33.5145C161.351 35.8881 163.122 37.0596 165.482 37.0198C169.912 36.9841 172.127 33.4878 172.127 26.5259ZM176.535 26.5521C176.535 30.1501 175.615 33.1445 173.778 35.5353C171.757 38.213 168.965 39.5557 165.403 39.5557C161.871 39.5557 159.119 38.2125 157.133 35.5353C155.332 33.1445 154.433 30.1501 154.433 26.5521C154.433 23.1706 155.406 20.3257 157.353 18.0094C159.409 15.5522 162.113 14.3193 165.456 14.3193C168.797 14.3193 171.519 15.5522 173.615 18.0094C175.562 20.3257 176.535 23.1706 176.535 26.5521ZM199.609 39.0583H195.584V22.642C195.584 20.8412 195.043 19.4362 193.96 18.4233C192.876 17.4149 191.432 16.9261 189.631 16.9654C187.72 17.0006 185.901 17.6259 184.175 18.8371V39.0583H180.15V18.3397C182.466 16.6537 184.598 15.5522 186.544 15.0372C188.38 14.5574 190.001 14.3193 191.397 14.3193C192.352 14.3193 193.251 14.4115 194.096 14.5967C195.677 14.9622 196.963 15.6403 197.953 16.6356C199.059 17.7366 199.609 19.0571 199.609 20.6031V39.0583Z"></path>
<path fill="white" d="M25.3601 2.07197C23.2892 2.08146 21.3117 2.25811 19.5719 2.56622C14.446 3.47204 13.5154 5.36725 13.5154 8.86311V13.4798H25.6285V15.0186H8.96914C5.44888 15.0186 2.36594 17.1347 1.40185 21.1601C0.289569 25.7741 0.240325 28.6533 1.40185 33.471C2.26294 37.0573 4.31943 39.6125 7.83969 39.6125H12.0046V34.0782C12.0046 30.08 15.4639 26.5534 19.5719 26.5534H31.671C35.039 26.5534 37.7276 23.7804 37.7276 20.3979V8.86266C37.7276 5.58004 34.9581 3.11378 31.671 2.56577C29.5897 2.21971 27.4311 2.06204 25.3601 2.07197ZM18.8093 5.78469C20.0608 5.78469 21.0822 6.82333 21.0822 8.10006C21.0822 9.37226 20.0603 10.4014 18.8093 10.4014C17.5538 10.4014 16.5364 9.37272 16.5364 8.10006C16.5364 6.82333 17.5538 5.78469 18.8093 5.78469Z"></path>
<path fill="white" d="M39.2387 15.0181V20.3969C39.2387 24.5673 35.703 28.0772 31.6714 28.0772H19.5723C16.258 28.0772 13.5157 30.9134 13.5157 34.2327V45.767C13.5157 49.0501 16.3701 50.981 19.5723 51.9225C23.4065 53.0501 27.0836 53.2539 31.6714 51.9225C34.7209 51.0397 37.7279 49.2624 37.7279 45.767V41.1507H25.6288V39.612H43.7845C47.3052 39.612 48.6167 37.1561 49.841 33.4705C51.106 29.6765 51.0522 26.027 49.841 21.1595C48.9709 17.6551 47.3092 15.0181 43.7845 15.0181H39.2387ZM32.4335 44.2283C33.689 44.2283 34.7064 45.257 34.7064 46.5296C34.7064 47.8063 33.689 48.845 32.4335 48.845C31.1821 48.845 30.1606 47.8063 30.1606 46.5296C30.1606 45.2574 31.1825 44.2283 32.4335 44.2283Z"></path>
<path fill="white" d="M207.447 11.3383H208.152V6.91269H209.823V6.38501H205.775V6.91269H207.446L207.447 11.3383ZM210.45 11.3383H211.052V7.29625L212.361 11.3379H213.032L214.395 7.3098V11.3383H215.053V6.38546H214.183L212.693 10.629L211.422 6.38546H210.45V11.3383Z"></path>
<path fill="white" d="M41.9986 59.7642C41.9986 61.5027 34.7309 62.9117 25.7653 62.9117C16.8002 62.9117 9.53247 61.5027 9.53247 59.7642C9.53247 58.0258 16.8002 56.6162 25.7653 56.6162C34.7309 56.6162 41.9986 58.0258 41.9986 59.7642Z" opacity="0.444"></path>
</svg>
