<svg xmlns="http://www.w3.org/2000/svg" fill="none" viewBox="0 0 211 68" height="68" width="211">
<path fill="#003da5" d="M81.4394 19.9735C80.3548 19.9735 79.365 20.1178 78.4702 20.4066C77.6025 20.6724 76.8419 21.1198 76.1884 21.7489C75.5607 22.3522 75.0536 23.1372 74.6672 24.1039C74.3052 25.0692 74.0998 26.2216 74.051 27.5611C73.9751 29.7345 73.9751 31.9078 74.051 34.0811C74.0998 35.4328 74.3052 36.5853 74.6672 37.5384C75.0536 38.5037 75.5607 39.3009 76.1884 39.93C76.8392 40.5333 77.5998 40.9807 78.4702 41.2722C79.365 41.538 80.3548 41.6708 81.4394 41.6708C82.505 41.6708 83.4948 41.5264 84.4086 41.2377C85.3224 40.9231 86.1074 40.4662 86.7636 39.867C87.4415 39.2392 87.9743 38.442 88.362 37.4753C88.7485 36.51 88.9417 35.3752 88.9417 34.0709V32.2244H82.6311C82.0997 32.2244 81.8339 31.9532 81.8339 31.4109V30.9025C81.8339 30.3602 82.0997 30.089 82.6311 30.089H90.3795C90.9218 30.089 91.1929 30.3602 91.1929 30.9025V34.0893C91.1929 35.5399 90.976 36.8686 90.5422 38.0753C90.1083 39.2589 89.4684 40.2866 88.6224 41.1583C87.8021 42.026 86.7744 42.7019 85.5393 43.1859C84.3191 43.6442 82.943 43.8733 81.4109 43.8733C79.8409 43.8733 78.4648 43.6442 77.2825 43.1859C76.0989 42.7033 75.097 42.0389 74.2768 41.1929C73.4796 40.3483 72.864 39.3463 72.4302 38.1871C72.0194 37.0035 71.7902 35.6993 71.7428 34.2743C71.694 33.1897 71.6696 32.0427 71.6696 30.8333C71.6696 29.6131 71.694 28.4661 71.7428 27.3923C71.7916 25.9688 72.0329 24.6767 72.4668 23.5161C72.9006 22.3325 73.5162 21.3184 74.3134 20.4737C75.1336 19.6291 76.1355 18.9769 77.3191 18.5173C78.5027 18.0347 79.8667 17.7933 81.4109 17.7933C83.0785 17.7933 84.5035 18.0469 85.6857 18.5539C86.8693 19.061 87.8353 19.6711 88.5837 20.3843C89.3321 21.0852 89.888 21.8221 90.2513 22.5949C90.6133 23.3677 90.8065 24.0076 90.8309 24.5147C90.8553 24.7316 90.7943 24.9126 90.6479 25.0577C90.5028 25.1797 90.3096 25.2407 90.0683 25.2407H89.2711C89.0542 25.2407 88.8969 25.1932 88.7993 25.0983C88.7044 24.9763 88.6081 24.7831 88.5105 24.5187C88.318 23.9764 88.0468 23.4341 87.697 22.8918C87.3581 22.3495 86.9012 21.8668 86.3263 21.4438C85.7474 21.01 85.0593 20.6595 84.2621 20.3924C83.4649 20.1267 82.5227 19.9938 81.4353 19.9938L81.4394 19.9735ZM98.5386 27.1788C99.4063 25.5112 101.048 24.6774 103.464 24.6774H104.806C105.338 24.6774 105.604 24.9431 105.604 25.4746V25.983C105.604 26.5145 105.338 26.7802 104.806 26.7802H103.249C101.798 26.7802 100.651 27.2025 99.8076 28.0472C98.963 28.8918 98.5406 30.0388 98.5406 31.4882V42.7141C98.5406 42.9554 98.4559 43.1486 98.2864 43.2937C98.1414 43.4388 97.9482 43.5113 97.7068 43.5113H97.1272C96.5958 43.5113 96.33 43.2456 96.33 42.7141V25.5091C96.33 25.2678 96.4026 25.0746 96.5476 24.9295C96.6927 24.7601 96.8859 24.6753 97.1272 24.6753H97.7068C97.9482 24.6753 98.1414 24.7601 98.2864 24.9295C98.4559 25.0746 98.5406 25.2678 98.5406 25.5091V27.1768L98.5386 27.1788ZM120.909 43.5215C120.378 43.5215 120.112 43.2557 120.112 42.7243V41.0221C119.895 41.361 119.606 41.7 119.244 42.0389C118.905 42.3779 118.482 42.6795 117.977 42.9439C117.469 43.2096 116.859 43.4266 116.146 43.5947C115.445 43.7872 114.625 43.8835 113.685 43.8835C112.818 43.8835 111.984 43.7506 111.184 43.4849C110.411 43.1961 109.723 42.8097 109.12 42.3257C108.541 41.843 108.07 41.2756 107.708 40.6235C107.37 39.9727 107.2 39.2609 107.2 38.4881C107.2 37.6679 107.37 36.931 107.708 36.2775C108.07 35.6267 108.565 35.0593 109.193 34.5753C109.821 34.0682 110.569 33.6581 111.438 33.3449C112.333 33.006 113.311 32.7646 114.373 32.6209L120.096 31.8237V30.5567C120.096 29.2525 119.697 28.2383 118.9 27.5144C118.127 26.7904 116.884 26.4284 115.17 26.4284C113.818 26.4284 112.768 26.6941 112.018 27.2256C111.294 27.7326 110.837 28.2885 110.647 28.8932C110.552 29.182 110.432 29.3874 110.285 29.5094C110.163 29.6043 109.994 29.6518 109.777 29.6518H109.268C109.051 29.6518 108.858 29.5792 108.689 29.4342C108.544 29.2647 108.471 29.0715 108.471 28.8546C108.471 28.5156 108.592 28.0933 108.833 27.5876C109.074 27.0805 109.461 26.5856 109.992 26.103C110.535 25.6203 111.235 25.2102 112.093 24.8726C112.938 24.5106 113.965 24.3296 115.176 24.3296C116.6 24.3296 117.771 24.5228 118.69 24.9092C119.631 25.2956 120.368 25.8027 120.901 26.4304C121.432 27.0337 121.794 27.7096 121.987 28.458C122.204 29.2064 122.312 29.9432 122.312 30.6686V42.7283C122.312 43.2598 122.047 43.5256 121.515 43.5256H120.899L120.909 43.5215ZM114.064 41.7827C114.884 41.7827 115.657 41.6498 116.382 41.3841C117.131 41.0953 117.783 40.673 118.339 40.1171C118.881 39.5748 119.315 38.8745 119.64 38.0163C119.955 37.1716 120.112 36.1819 120.112 35.0471V33.8167L115.441 34.4675C111.433 35.0098 109.429 36.2897 109.429 38.3071C109.429 38.9104 109.562 39.4297 109.828 39.8649C110.116 40.2988 110.478 40.6608 110.914 40.9509C111.347 41.2397 111.842 41.4566 112.398 41.6017C112.94 41.7237 113.496 41.7847 114.066 41.7847L114.064 41.7827ZM136.345 43.8835C134.824 43.8835 133.58 43.6123 132.615 43.07C131.65 42.5277 130.865 41.8518 130.26 41.0424V49.6246C130.26 50.156 129.994 50.4218 129.463 50.4218H128.847C128.315 50.4218 128.049 50.156 128.049 49.6246V25.4746C128.049 24.9431 128.315 24.6774 128.847 24.6774H129.463C129.994 24.6774 130.26 24.9431 130.26 25.4746V27.1768C130.863 26.3565 131.648 25.6806 132.615 25.1492C133.58 24.6069 134.824 24.3357 136.345 24.3357C137.745 24.3357 138.928 24.5892 139.894 25.0963C140.883 25.579 141.681 26.2311 142.285 27.0527C142.889 27.8499 143.322 28.7678 143.587 29.8063C143.876 30.8204 144.045 31.859 144.095 32.9219C144.12 33.2839 144.132 33.6825 144.132 34.1177C144.132 34.5516 144.12 34.9502 144.095 35.3135C144.046 36.3792 143.877 37.4299 143.587 38.4657C143.321 39.4799 142.887 40.3977 142.285 41.2194C141.682 42.0166 140.885 42.6687 139.894 43.1758C138.928 43.6584 137.745 43.8997 136.345 43.8997V43.8835ZM130.26 32.7999C130.236 33.1619 130.223 33.6324 130.223 34.2113C130.223 34.7902 130.236 35.2607 130.26 35.6227C130.284 36.3466 130.405 37.0835 130.622 37.8333C130.863 38.5573 131.225 39.2094 131.708 39.7897C132.191 40.3686 132.801 40.8513 133.538 41.2377C134.262 41.5996 135.131 41.7806 136.145 41.7806C137.211 41.7806 138.092 41.5996 138.789 41.2377C139.513 40.8757 140.093 40.393 140.528 39.7897C140.986 39.1619 141.312 38.4501 141.504 37.6543C141.721 36.834 141.854 35.9887 141.903 35.1183C141.927 34.4404 141.927 33.7645 141.903 33.0907C141.854 32.223 141.721 31.3892 141.504 30.5893C141.312 29.7921 140.986 29.0918 140.528 28.4885C140.094 27.8608 139.515 27.3659 138.789 27.0039C138.088 26.6175 137.207 26.4243 136.145 26.4243C135.107 26.4243 134.226 26.6175 133.502 27.0039C132.778 27.3903 132.168 27.8974 131.671 28.5251C131.213 29.1284 130.863 29.8043 130.62 30.5527C130.403 31.3011 130.282 32.0495 130.258 32.7979L130.26 32.7999ZM151.274 27.1788C151.925 26.3341 152.71 25.6461 153.629 25.1146C154.543 24.5831 155.786 24.3174 157.359 24.3174C158.59 24.3174 159.664 24.5228 160.582 24.9336C161.496 25.3444 162.257 25.9118 162.864 26.6358C163.492 27.3598 163.962 28.2173 164.275 29.2084C164.59 30.1981 164.747 31.2726 164.747 32.4318V42.7182C164.747 43.2496 164.482 43.5154 163.95 43.5154H163.34C162.808 43.5154 162.543 43.2496 162.543 42.7182V32.6108C162.543 30.6788 162.072 29.1698 161.131 28.0838C160.19 26.972 158.814 26.4162 157.003 26.4162C155.265 26.4162 153.877 26.9585 152.838 28.0431C151.799 29.1277 151.28 30.651 151.28 32.6128V42.7202C151.28 43.2517 151.014 43.5174 150.483 43.5174H149.867C149.335 43.5174 149.07 43.2517 149.07 42.7202V18.5905C149.07 18.0591 149.335 17.7933 149.867 17.7933H150.483C151.014 17.7933 151.28 18.0591 151.28 18.5905V27.1727L151.274 27.1788ZM179.522 17.7994C180.922 17.7994 182.202 18.0048 183.362 18.4157C184.521 18.8265 185.51 19.4542 186.331 20.2988C187.175 21.1191 187.827 22.1576 188.287 23.4144C188.77 24.6455 189.036 26.1064 189.084 27.797C189.133 28.8817 189.158 29.8958 189.158 30.8394C189.158 31.7803 189.133 32.7945 189.084 33.8818C188.962 37.335 188.081 39.8703 186.441 41.4878L188.759 44.7478C188.783 44.7966 188.808 44.8441 188.832 44.8901C188.857 44.939 188.869 45.0237 188.869 45.1444C188.869 45.3369 188.796 45.5064 188.651 45.6528C188.506 45.7978 188.337 45.8704 188.143 45.8704H187.346C187.08 45.8704 186.851 45.7619 186.658 45.545C186.466 45.3525 186.308 45.183 186.186 45.0366L184.588 42.826C183.137 43.5269 181.446 43.8774 179.516 43.8774C176.498 43.8774 174.168 43.0686 172.526 41.4512C170.909 39.8337 170.051 37.3106 169.953 33.8818C169.905 32.7972 169.88 31.7831 169.88 30.8394C169.88 29.8985 169.905 28.8844 169.953 27.797C170.002 26.1064 170.256 24.6455 170.714 23.4144C171.197 22.159 171.849 21.1205 172.67 20.2988C173.515 19.4542 174.505 18.8265 175.64 18.4157C176.799 18.0048 178.091 17.7994 179.516 17.7994H179.522ZM179.522 19.9755C178.508 19.9755 177.566 20.1328 176.695 20.4473C175.827 20.7361 175.067 21.2065 174.413 21.8587C173.763 22.5095 173.243 23.3433 172.856 24.3601C172.494 25.3742 172.288 26.5809 172.239 27.9801C172.215 28.5224 172.191 29.0294 172.166 29.5013C172.166 29.9595 172.166 30.4069 172.166 30.8435C172.166 31.2773 172.166 31.7342 172.166 32.2142C172.191 32.6725 172.215 33.1673 172.239 33.6988C172.288 35.1224 172.494 36.3426 172.856 37.3594C173.242 38.3491 173.749 39.1694 174.377 39.8202C175.028 40.471 175.788 40.9536 176.659 41.2682C177.526 41.5569 178.478 41.7013 179.514 41.7013C180.552 41.7013 181.504 41.5569 182.369 41.2682C183.237 40.9536 183.985 40.471 184.614 39.8202C185.265 39.1694 185.772 38.3491 186.135 37.3594C186.522 36.3453 186.739 35.1251 186.786 33.6988C186.811 33.1673 186.823 32.6725 186.823 32.2142C186.823 31.7315 186.823 31.2746 186.823 30.8435C186.823 30.4096 186.823 29.9622 186.823 29.5013C186.823 29.043 186.811 28.5359 186.786 27.9801C186.737 26.5795 186.521 25.3729 186.135 24.3601C185.773 23.346 185.266 22.5122 184.614 21.8587C183.964 21.2079 183.203 20.7374 182.333 20.4473C181.465 20.1328 180.523 19.9755 179.506 19.9755H179.522ZM197.201 41.3414H209.696C210.238 41.3414 210.509 41.6125 210.509 42.1549V42.6978C210.509 43.2293 210.238 43.495 209.696 43.495H195.716C195.185 43.495 194.919 43.2293 194.919 42.6978V18.9566C194.919 18.4251 195.185 18.1594 195.716 18.1594H196.404C196.935 18.1594 197.201 18.4251 197.201 18.9566V41.3414ZM5.83312 51.5362L3.3927 50.1249L30.5993 3.00439L33.0397 4.41577L5.83312 51.5362Z"></path>
<path fill="#003da5" d="M2.83801 46.3623H57.2513V49.183H2.83801V46.3623Z"></path>
<path fill="#003da5" d="M31.132 63.6614L3.91321 47.9471L5.32459 45.5067L32.5414 61.2169L31.132 63.6614ZM54.7756 22.703L27.5589 6.99071L28.9702 4.55029L56.187 20.2646L54.7756 22.703Z"></path>
<path fill="#003da5" d="M5.3313 22.6945L3.91992 20.2541L31.1591 4.55811L32.5705 6.99853L5.3313 22.6945Z"></path>
<path fill="#003da5" d="M54.2734 51.5362L27.0648 4.41577L29.5052 3.00439L56.7118 50.1249L54.2734 51.5362ZM4.99524 18.3831H7.81189V49.8117H4.99524V18.3831ZM52.2906 18.3831H55.1113V49.8117H52.2886L52.2906 18.3831Z"></path>
<path fill="#003da5" d="M30.6505 62.4675L29.4181 60.3321L53.0902 46.6658L54.3226 48.8011L30.6505 62.4675Z"></path>
<path fill="#003da5" d="M58.8496 50.7291C58.0622 52.0911 56.7666 53.0849 55.2472 53.4925C53.7277 53.9001 52.1087 53.6881 50.7454 52.9031C49.3834 52.1158 48.3896 50.8201 47.982 49.3007C47.5744 47.7813 47.7864 46.1622 48.5714 44.7989C49.3587 43.437 50.6543 42.4431 52.1738 42.0355C53.6932 41.6279 55.3123 41.8399 56.6756 42.6249C59.5309 44.2518 60.4969 47.9125 58.8496 50.7291ZM11.5217 23.3964C10.7343 24.7583 9.43871 25.7522 7.91927 26.1598C6.39984 26.5674 4.78077 26.3554 3.41746 25.5704C2.05554 24.783 1.06169 23.4874 0.654094 21.968C0.246497 20.4486 0.458461 18.8295 1.24346 17.4662C2.03083 16.1043 3.32645 15.1104 4.84588 14.7028C6.36531 14.2952 7.98439 14.5072 9.34769 15.2922C12.1847 16.9191 13.1507 20.5798 11.5237 23.3964M1.26176 50.7291C-0.369255 47.8921 0.598778 44.2742 3.4378 42.6249C6.27479 40.9939 9.89271 41.9619 11.542 44.8009C13.173 47.6379 12.205 51.2559 9.36599 52.9052C6.5107 54.5362 2.89277 53.5681 1.26176 50.7291ZM48.5917 23.3964C46.9607 20.5594 47.9287 16.9415 50.7677 15.2922C53.6047 13.6612 57.2226 14.6292 58.872 17.4682C60.503 20.3052 59.5349 23.9231 56.6959 25.5725C55.3326 26.3574 53.7135 26.5694 52.1941 26.1618C50.6747 25.7542 49.3791 24.7583 48.5917 23.3964ZM30.0506 67.3667C26.7723 67.3667 24.1224 64.7168 24.1224 61.4385C24.1224 58.1602 26.7784 55.5103 30.0506 55.5103C33.3228 55.5103 35.9788 58.1602 35.9788 61.4385C35.9761 63.0099 35.3507 64.5162 34.2395 65.6274C33.1283 66.7386 31.622 67.364 30.0506 67.3667ZM30.0506 12.6972C26.7723 12.6972 24.1224 10.0473 24.1224 6.76901C24.1224 3.49071 26.7784 0.84082 30.0506 0.84082C33.3228 0.84082 35.9788 3.49071 35.9788 6.76901C35.9801 7.54789 35.8277 8.31937 35.5303 9.03921C35.2328 9.75906 34.7962 10.4131 34.2454 10.9639C33.6947 11.5146 33.0406 11.9512 32.3208 12.2487C31.6009 12.5461 30.8295 12.6985 30.0506 12.6972Z"></path>
</svg>
